<svg id="eb4cfe3e-ec07-4993-8a9f-bea58ebb9e27" data-name="Layer 1" xmlns="http://www.w3.org/2000/svg" viewBox="0 0 194.1 173.4"><defs><style>.ab618163-3362-45ca-946e-3879b7a3bf05{fill:#935831;}.ba37742a-6343-4065-b099-27fe1806ce25{fill:#552d0f;}.a8959991-9f61-451e-8910-35a57f25c0fa{fill:#734322;}.a70cef22-aab5-4da8-9c89-a5f566e0f9de{fill:#724321;}.a7fca4fd-4897-4ef5-a67c-7bf0dd64122f{fill:#3c1a00;}.b6766bfe-e983-491f-a7f6-743b0464dc0d{fill:#854e2a;}.f647d69f-7b25-4069-96ca-afd914aa88d7{fill:#4d270a;}.ae15709f-413b-42af-8ae5-6edca248353e{fill:#5e3414;}.a7376276-eb49-410b-83e2-fbff74409ad2{fill:#653a1a;}.a2893229-b988-44d8-b476-4e9446ce9f0b{fill:#8f5630;}.f0914150-7559-4cac-b92e-34e3e0b68f2a{fill:#5e3415;}.be554770-6eac-4d42-a6f1-c8ab7929176c{fill:#3a1800;}</style></defs><path class="ab618163-3362-45ca-946e-3879b7a3bf05" d="M13.7,104.8c-1.3-2.9-1.1-6-1.5-9C7.7,63.6,26.3,32.9,44.9,18.6A86,86,0,0,1,81.7,2.7,81.1,81.1,0,0,1,99.4,1c31.1,1.3,54.9,15.2,71.5,41.4,7,11.2,10.8,23.6,12.2,36.8a69.8,69.8,0,0,1-.8,20.4c-.4,2,0,4.1-1.1,5.9-1-.6-.8-3.4-3.1-1.3-.8.7-2.3.4-3.3-.4a3.6,3.6,0,0,1-.5-2.5,18.6,18.6,0,0,0,.4-3.3c-.1-9.8.6-19.7-1.8-29.4A77.8,77.8,0,0,0,24.7,60.1c-4.5,11.8-4.8,24.1-4.5,36.5-.1,2.8.4,6.2-4.3,5.9C14.7,102.4,14.7,104.3,13.7,104.8Z"/><path class="ba37742a-6343-4065-b099-27fe1806ce25" d="M141,160.9a.6.6,0,0,1-.6.4,1.5,1.5,0,0,0-1,.7h-.2l-.7.6-.8.4-1,.5a30.6,30.6,0,0,1-8.2,3.8A91.7,91.7,0,0,1,97,173a85.3,85.3,0,0,1-40.8-10.4l-.7-.6c-.4-.5-1-.4-1.4-.8h-.2c.3-2.1,2-1.8,3.3-1.9a9,9,0,0,0,4.6-1.9c1.9-.5,3.4.6,5,1.2q29.3,11.9,58.8,1.1c2-.8,3.9-1.9,6.2-1.6a8.9,8.9,0,0,0,5.7,1.4C138.8,159.2,140.5,158.9,141,160.9Z"/><path class="a8959991-9f61-451e-8910-35a57f25c0fa" d="M61.7,157.7c-.4,2.4-.5,2.5-2,2.5H55.8a2.4,2.4,0,0,0-1.9.8l-5.1-3.3a71.1,71.1,0,0,1-15-12.9c-9.4-10.8-16.2-22.9-19.6-36.7-.2-1.2-.4-2.3-.5-3.4a5.3,5.3,0,0,1,.1-1.3c.2-1.1-.5-2.4,1-3.1s1.8.6,2.7,1a1,1,0,0,0,1.5-.9c0-1.3.1-2.6.1-3.9,2.4.6,1.9,2.7,2.1,4.2a74,74,0,0,0,12.5,30.7,88,88,0,0,0,24.2,22.9C59.3,155.3,61.1,155.8,61.7,157.7Z"/><path class="a70cef22-aab5-4da8-9c89-a5f566e0f9de" d="M141,160.9c-1.7-1.1-3.4-.7-5.2-.2s-2.5.5-3.5-2.2,2-2.6,3.4-3.4c18.2-11,30.6-26.6,36.6-47.1.5-1.6.1-3.9,2.7-4.3s3.9-1,5.7-2.2c.7,1.5.1,2.8.5,4-.1,3.5-1.4,6.8-2.6,10a86.5,86.5,0,0,1-27.1,38.6A65,65,0,0,1,141,160.9Z"/><path class="a8959991-9f61-451e-8910-35a57f25c0fa" d="M54.1,161.2a1.1,1.1,0,0,1,1.4.8A1.4,1.4,0,0,1,54.1,161.2Z"/><path class="a70cef22-aab5-4da8-9c89-a5f566e0f9de" d="M139.4,162a1,1,0,0,1,1-.7A1,1,0,0,1,139.4,162Z"/><path class="a70cef22-aab5-4da8-9c89-a5f566e0f9de" d="M138.5,162.7a.7.7,0,0,1,.7-.6A.7.7,0,0,1,138.5,162.7Z"/><path class="a70cef22-aab5-4da8-9c89-a5f566e0f9de" d="M136.7,163.6a1,1,0,0,1,1-.6A.8.8,0,0,1,136.7,163.6Z"/><path class="a7fca4fd-4897-4ef5-a67c-7bf0dd64122f" d="M175,103.7c-.6.4-.7,1.1-.9,1.8a87.3,87.3,0,0,1-14.4,30.3,25.2,25.2,0,0,1-5,5.3,21.8,21.8,0,0,0-2.2,2.1c-5.2,6-11.6,10.3-18.5,14.1a17.7,17.7,0,0,0-1.7,1.2l-11.4,4a63.4,63.4,0,0,1-17.8,3.1H92c-8.4-.2-16.3-2.3-24-5.2l-6.3-2.7a64.1,64.1,0,0,1-17.4-12.6L41.2,142c-10.5-10-16.7-22.3-20.1-36.2a32.7,32.7,0,0,1-1.3-7.6c0-.6-.5-1.1-.7-1.6,0-3.7-.1-7.5-.1-11.3A72.9,72.9,0,0,1,31.6,44,79.7,79.7,0,0,1,68.8,13.6,73.9,73.9,0,0,1,85.6,9.4a90.5,90.5,0,0,1,14.7-.7A72.9,72.9,0,0,1,145.7,25a81.3,81.3,0,0,1,21.1,24.5,69.8,69.8,0,0,1,7.3,19A67.7,67.7,0,0,1,175.9,84c0,4.8,0,9.6-.1,14.4-.7.7-.1,1.9-.7,2.7Z"/><path class="a70cef22-aab5-4da8-9c89-a5f566e0f9de" d="M175.1,101.1c-.1-1-.2-2,.7-2.7A2.7,2.7,0,0,1,175.1,101.1Z"/><path class="b6766bfe-e983-491f-a7f6-743b0464dc0d" d="M47.8,135.9c-2.9-1.8-4.5-4.8-6.6-7.4-6.1-7.6-9.7-16.5-12.2-25.9-.6-2.3-.8-4.8-1.2-7.2-.1-.5,0-1.1-.1-1.7a4,4,0,0,1,2.1-3.6c1.2-.7,2.2.1,3.2.6,2.7.6,4,3.1,5.9,4.7s3.8,2,5.4-.5,2.9-3.9,3.8-6.2c3.5-4,6.2-8.5,10-12.2a1.3,1.3,0,0,1,1.2.1,3.9,3.9,0,0,1,1.1,2.9c-.4,2.5-2.7,3.6-4.6,5.6,8.1-3.2,16-8,22.9,1.3,2.8,3.4,6.6,5.7,9.6,8.8s3.3,1.1,4.5-.8,3.7-6.6,5.8-9.7c.8-1.2,1.4-2.6,2.3-3.7s4-3.1,6.8-1.4,7.8,3.9,11.7,5.9c2.2,1.2,4.6,1.1,5.5-1.3,2.1-5.5,6.5-7,11.6-7.7,1.7-.3,2.7.8,3.4,2.1,2.2,3.7,5.1,6.7,7.5,10.2a17.4,17.4,0,0,1,1.1,1.8l.8,1.3,1.1,1.7a8.3,8.3,0,0,0,.8,1.2l.9,1.3.7,1.3.5.8a3.5,3.5,0,0,0,.5.8l.3.3.7.8a4.3,4.3,0,0,1,1.4,2.1c.1.5,0,1,.6,1.4,1.3,2,2.5,4.2,4,6.1a5,5,0,0,1,.5,5.7l-3.9,7.2a66,66,0,0,1-10.3,13.2c-1.9,1.4-4,1.5-6.2,1.5H54A11.1,11.1,0,0,1,47.8,135.9Z"/><path class="f647d69f-7b25-4069-96ca-afd914aa88d7" d="M151.5,96.7l-.9-1.7-.8-.9-.9-1.8a3,3,0,0,1-.8-.8l-1-1.8c-1.2-2.5-.3-4.8.5-7.1,10.2-28.9-9.6-62.4-40.8-67.9-35.9-6.4-62,23-62.3,50.8-.1,8.2,2,15.7,4.3,23.4a7.2,7.2,0,0,1-.5,2.1l-4.4,6.3a2.2,2.2,0,0,1-3.1.7,9.6,9.6,0,0,1-2.1-1.4c-2-1.9-4.2-3.6-5.7-5.9s-.3-6.3-.7-9.5a41.1,41.1,0,0,1,.3-12.1c.7-3.5,1.2-7.1,2.1-10.6a62,62,0,0,1,6.8-15.9A60.3,60.3,0,0,1,54.1,27.2c2.2-1.8,4.6-3.5,6.9-5.2,7.6-5.4,16.2-8.4,25.1-10.4a43.1,43.1,0,0,1,16-1.1c6.7,1,13.3,2.2,19.6,5a85.3,85.3,0,0,1,13,7,59.1,59.1,0,0,1,16.3,16c5,7.5,8.8,15.6,10.2,24.7.6,4,1.5,7.9,1.6,12a40.2,40.2,0,0,1-.6,6.9c-.5,2.6-.5,5.4-1.1,8.1a62,62,0,0,1-2.7,9.6,22.8,22.8,0,0,1-1.7,3c-.2.3-.5.3-.8,0l-1.8-2.6-.8-.9h-.1l-.7-.8c-.1-.3-.1-.6-.2-.9Z"/><path class="ae15709f-413b-42af-8ae5-6edca248353e" d="M47.8,135.9h99.3a9,9,0,0,1-3.1,3.6c-4.1,3.1-8.1,6.5-12.6,9.1s-9.3,4-14.1,5.6a57.3,57.3,0,0,1-13.5,2.5c-5.6.4-11.3.7-16.9-.4-2.4-.5-4.8-.8-7.2-1.4-6.8-1.6-12.9-4.8-19-8.3a46.3,46.3,0,0,1-11.9-9.2A7.1,7.1,0,0,1,47.8,135.9Z"/><path class="f647d69f-7b25-4069-96ca-afd914aa88d7" d="M155.9,102.8h.8a2.5,2.5,0,0,0,.1.8Z"/><path class="a7376276-eb49-410b-83e2-fbff74409ad2" d="M59.1,76.7h-.8c-2.9-3.7-3.8-8.2-4.4-12.5C50.3,40.5,66.3,17.9,90,14.2c16.9-2.7,31.3,3,41.9,16.7s12.4,28.4,5.8,44.2a3.6,3.6,0,0,1-1.1,1,1.4,1.4,0,0,1-1.2-.3c-8.1-10.4-15.2-21.5-23.1-32.1-1.6-2.2-3.3-4.4-4.8-6.7s-2.7-2.1-4.2.1-4.9,7.5-7.5,11.2-4.3,4.6-9.1,2.9-6.3-1.6-9.6,2.8c-4.9,6.3-9.7,12.7-14.3,19.2C61.8,74.5,61.1,76.2,59.1,76.7Z"/><path class="a2893229-b988-44d8-b476-4e9446ce9f0b" d="M59.1,76.7c5.8-8,11.4-16.1,17.5-23.8,3.7-4.7,3.9-5.3,10.3-2.8,4.8,1.8,5.3,1.7,8.1-2.5L103.5,35a7.6,7.6,0,0,1,1.1-1.4,1.3,1.3,0,0,1,1.2-.1,5.4,5.4,0,0,1,1.6,1.4l14,19.8c4.6,6.4,9.1,12.8,13.7,19.1a3.7,3.7,0,0,1,.7,2c-3.7.6-5.2-2.7-7.5-4.4-4.2-3-4.1-3.1-6.2,1.7a17.3,17.3,0,0,1-1,2.4c-1.6,2.9-2.9,3.3-5.4,1.1s-5.4-5.3-8.1-7.9c-4.3-4.3-4.6-4.2-7.4,1.4-1.2,2.3-2.3,4.7-3.6,6.9s-3.6,3.8-6.3,1.3-2.7-1.6-4,.6-3.7,3.3-6.3.3-2.8-4-4.3-6-3.3-2.4-5.5-.8-4.7,4.3-7.4,6c-.9.6-1.6,1.3-2.8.9S59.2,77.6,59.1,76.7Z"/><path class="f647d69f-7b25-4069-96ca-afd914aa88d7" d="M136.7,75.7c.8-2.7,1.6-5.5,2.3-8.3a38.3,38.3,0,0,0,1.2-9c.3-8.7-2.4-16.5-7.1-23.7a45.7,45.7,0,0,0-22.3-17.9,24.2,24.2,0,0,0-11-2H96.3c-5-.3-9.7,1-14.3,2.8a50.8,50.8,0,0,0-9.5,5.1c-7.1,5-11.9,11.7-15.2,19.7s-2.8,13.8-2.4,20.9c.1,2.7,1.3,5.3,2,8s1.4,3.5,1.4,5.4-.2,1.2-.6,1.6c-2.2,2.5-4.2,5.3-6.2,8a22.3,22.3,0,0,1-2.7,2.6c-2.2-2-2.7-4.7-3.5-7.3-2.1-6.9-2.3-14-1.8-21.1a46.2,46.2,0,0,1,4.4-15.3A48.6,48.6,0,0,1,59,29.3l3.7-3.7c4.1-4.5,9.4-7.1,15-9.3a90.3,90.3,0,0,1,11.6-3.2,7.7,7.7,0,0,1,3-.3,37.5,37.5,0,0,0,8.2.2,40.6,40.6,0,0,1,18.8,4.4l5.5,2.8a23.6,23.6,0,0,1,7.3,5.3l1.8,1.8c4.6,3.9,7.9,8.9,11.1,13.9a33.1,33.1,0,0,1,3.8,9.1,82.7,82.7,0,0,1,2.5,11.8,47.6,47.6,0,0,1-.2,11.3c-.6,4.8-2.6,9.1-3.6,13.8a21.7,21.7,0,0,1-.4,2.5c-3-3.5-6.1-6.9-8.2-11.1a4.8,4.8,0,0,0-2.2-2l-.4-.4Z"/><path class="f0914150-7559-4cac-b92e-34e3e0b68f2a" d="M60,79.3l10.2-8.1,1-.9a2.9,2.9,0,0,1,4.2.6l4.3,6a18.8,18.8,0,0,0,1.2,1.8c2.2,2.8,3.1,2.7,4.6-.6a11.9,11.9,0,0,1,1.2-2.2,1.4,1.4,0,0,1,2.2-.3c1,.9,1.9,1.9,2.9,2.7s2,.9,2.9-.3a21.3,21.3,0,0,0,1.6-2.5l3.9-7.8a22,22,0,0,1,1.5-2.6c1.2-1.6,2.1-1.7,3.6-.2,3.6,3.5,7.1,7.1,10.7,10.7s2.9,2.4,4.3-1,1.8-4.3,2.8-6.3,1.5-1.3,2.5-.5,4.4,3.7,6.6,5.7a13.8,13.8,0,0,0,3.6,2.3h0a3.8,3.8,0,0,1,.9.9h0c-.1,1-.5,1.8-1.6,1.7-4.6-.5-7.3,1.7-8.8,5.9a5.2,5.2,0,0,1-1.2,1.8c-1.8,2.1-2.6,2.4-5.2,1-4.6-2.4-9.4-4.4-13.8-7.2-1.2-.7-1.9-.6-3.1.4a9.3,9.3,0,0,0-2.1,2.7,6.2,6.2,0,0,1-1.7,2.5c-7.1-1.3-14.1.3-21,1.8a37.1,37.1,0,0,1-2.9-2.7c-2.7-2.9-5.9-3.3-9.5-2-1.9.6-3.8,1.4-5.7,2.1l-3.7,1.2c-.8.3-2,.8-2.4.1s.6-1.6,1.4-2.1A15.2,15.2,0,0,0,60,79.3Z"/><path class="be554770-6eac-4d42-a6f1-c8ab7929176c" d="M78.2,87.2c1-2.1,3.1-2.5,4.8-2.5,4.3,0,8.5-1.5,12.9-1.1a14.9,14.9,0,0,1,2.1.2c.8.1,1.1.9,1.2,1.6-1.9,3.4-3.9,6.7-5.9,10.1a13.7,13.7,0,0,1-1.5,2.1,1.6,1.6,0,0,1-2.3.3C86,94,81.4,91.4,78.2,87.2Z"/><path class="f647d69f-7b25-4069-96ca-afd914aa88d7" d="M148.1,91.5l.8.8Z"/><path class="f647d69f-7b25-4069-96ca-afd914aa88d7" d="M149.8,94.1l.8.9Z"/><path class="f647d69f-7b25-4069-96ca-afd914aa88d7" d="M151.5,96.7l.8.9Z"/><path class="f647d69f-7b25-4069-96ca-afd914aa88d7" d="M152.5,98.5l.7.8Z"/><path class="f647d69f-7b25-4069-96ca-afd914aa88d7" d="M153.3,99.3l.8.9Z"/><path class="b6766bfe-e983-491f-a7f6-743b0464dc0d" d="M136.7,76.7l-.9-.9h.9Z"/></svg>