<svg id="aed8296a-0018-416c-9e9f-6d51af0a738e" data-name="Layer 1" xmlns="http://www.w3.org/2000/svg" viewBox="0 0 194.1 173.4"><defs><style>.ffa6dbe4-da78-4e44-8d55-9cea1cb6408c{fill:#73ad3b;}.a57051a7-3b1b-44a0-9f08-b44936fa6589{fill:#b4cd37;}.bb319605-4ba2-424a-ae30-309246504c94{fill:#b4cd35;}.aa28ee65-675d-4d6a-8c67-58bac4dd3515{fill:#b6ce30;}.feccbecd-02a2-4b8b-bc37-7a1bf15242d6{fill:#b5cd37;}.a0c6cd2b-3c02-4fba-9b5a-26508c74cd03{fill:#b3cd36;}.a74168a0-0fbc-40f1-b83f-1942283c19ba{fill:#b3cd30;}.ac17f76e-f317-4dba-a9c2-1e2be07d7765{fill:#8cbb3a;}.b131e086-71b0-45f7-83af-d1d23afc575f{fill:#2fb149;}.a5636180-c726-4472-8c44-169339bc3689{fill:#30b24a;}.b64e17d6-208c-4e34-b0b3-dd1ab0e7b911{fill:#2eb149;}.f8f2fee8-1d70-48ad-aff4-64b4c56692e9{fill:#01a74d;}.bd136049-8bce-4ba8-acbc-6328fde94827{fill:#015c26;}.f622113c-9429-400f-a866-f3f70a1bd38c{fill:#015923;}.be53179b-3042-4bc7-9d72-65f14e69b762{fill:#035721;}.b48f4ec3-5eab-4e06-b70b-7b4fdb39b378{fill:#25af4a;}.fcc4d3f8-7da3-4571-9e40-adc590627dd9{fill:#045821;}.ec48e5e8-50d8-4a36-970d-79d1b871b4d2{fill:#005e27;}.bccdd450-01d9-477c-b8f5-48c536c824ce{fill:#005d26;}.a3f89af7-0c49-4a17-aac9-d5e1ab66b6b7{fill:#015a24;}</style></defs><path class="ffa6dbe4-da78-4e44-8d55-9cea1cb6408c" d="M113.7,4.9c4.5,0,8.6,1.4,12.7,3.2L137,13.4c22,11.8,35.3,30.1,40.4,54.4a94.2,94.2,0,0,1,2,23.1,74.9,74.9,0,0,1-13.6,40.9,96.4,96.4,0,0,1-20.4,21.4c-1,.8-2.1,1.8-3.6,1.6.2-4.2,1.3-8.4-.4-12.6a16,16,0,0,1,3.8-9.5c.7-.9,1.9-2.1.8-3.2s-2.1.2-3.2.8l-.7.5c-2.2,1.1-4.7,2-6.4.1s.4-3.9,1.7-5.5c3.6-4.5,8.2-8.1,11.9-12.6s6.1-9.4,8.7-14.3,3.6-4.6,6.9-.9,5.6,2,8,3.9c.4.3,1.2-.1,1.6-.6a2.6,2.6,0,0,0-.4-3,13.2,13.2,0,0,0-8.1-4.7c-4.9-.9-5.7-1.7-4.6-6.6a46,46,0,0,0-2.8-29.9c-1.1-2.3-2.7-4.4-3.4-6.9-1.4-4.6-.5-6.3,4.1-7.7,1.1-.3,2.7-.3,2.4-2s-1.6-1.6-2.9-1.6a6.3,6.3,0,0,0-2.7.3A18.3,18.3,0,0,1,141,37.2c-.4,2.9,1.6,4.1,2.2,5.9s1.1,4.7-1.4,6-3.5-.7-4.8-2.3c-7.1-9.1-15.7-16.5-26.3-21.3-3.5-1.6-6-3.6-4.7-8S109,7.8,113.7,4.9Z"/><path class="ffa6dbe4-da78-4e44-8d55-9cea1cb6408c" d="M141.1,155.4a25.1,25.1,0,0,1-10.4,6.2,17.4,17.4,0,0,0-7.4,4.3,9.2,9.2,0,0,1-3.5,1.9c-5.5,2.1-11.2,2.7-17,3.1s-12.1-.4-18.1-.6a3.4,3.4,0,0,1-3.3-2.1c-.1-1.7,1.1-2.8,2.2-3.8a15.1,15.1,0,0,0,4.6-8c1.2-6.7,1.5-6.7,7.9-5.7,10.5,1.7,20.9,1.9,30.6-3.5,2.8-1.5,5.7-3.1,9.1-2.4C139.9,147.2,139.5,151.8,141.1,155.4Z"/><path class="ffa6dbe4-da78-4e44-8d55-9cea1cb6408c" d="M25.7,129.2c-3.6-4.3-5.8-9.5-7.9-14.7-4.8-11.8-5.7-24.1-4.5-36.7a22.1,22.1,0,0,1,.8-3.5,2.3,2.3,0,0,1,3.2.5c2.9,2.7,6.5,3.7,10.1,4.5s4.6,5.1,4,8.9c-1.5,10.9-.9,21.5,5.1,31.2,1.7,2.7,2.3,5.7-.1,8.5S29.6,131.4,25.7,129.2Z"/><path class="ffa6dbe4-da78-4e44-8d55-9cea1cb6408c" d="M53.2,14.9A72.8,72.8,0,0,1,80,4.1a71.4,71.4,0,0,1,23.5-.9c1.2.8,2.6,0,3.7.8h0c.8,1.9-.5,3.2-1.4,4.5a19.7,19.7,0,0,0-4.2,10.2c-1.5,2.7-4.1,2.4-6.5,2-11.5-1.8-22.6-.8-32.9,5.4-2.4,1.5-5.2,2.5-8.2,1.5C50.4,23.3,50.1,18.7,53.2,14.9Z"/><path class="ffa6dbe4-da78-4e44-8d55-9cea1cb6408c" d="M15.7,65.3a14.3,14.3,0,0,1,1.1-5.8c5.1-12.8,11.4-24.8,21.8-34.1a38.8,38.8,0,0,1,6.5-5c2.4-1,2.6.9,2.9,2.3a32.7,32.7,0,0,1,.9,7,10.6,10.6,0,0,1-2.3,4.9C41.8,40.5,37,46.3,33.2,52.9A4.6,4.6,0,0,1,31.4,55c-2.9,1.5-3,3.8-2.8,6.8.5,5.4-2.1,8.7-7.3,10.4C17.7,71.3,14.9,69.8,15.7,65.3Z"/><path class="ffa6dbe4-da78-4e44-8d55-9cea1cb6408c" d="M78.9,167.2c-1.3,1.3-3,1.4-4.1.3-2.7-2.5-6.3-2.8-9.3-4.5s-6.3-2.7-9.4-4.1c-1.5-.7-2.7-2-4.2-2.6s-5.2-3-7.5-5-7.1-6.2-10.2-9.6-4-4.2-4.9-7c2.5-2.1,5.7-1.8,8.7-2.2a14.8,14.8,0,0,1,9.1,4.8c5.6,5.8,13.2,9.1,19.2,14.5,1.3,1.2,3.2.6,4.8.9,4.5.8,8.8,1.8,10.4,6.8C81.7,162.4,79.2,164.4,78.9,167.2Z"/><path class="a57051a7-3b1b-44a0-9f08-b44936fa6589" d="M47.8,30.5c0-3-1.2-5.8-1-8.8,0-.9-.9-1.1-1.7-1.3,2.4-2.4,4.8-4.5,8.1-5.5-1.6,4.1-.9,8.1,1,12a25.3,25.3,0,0,1,4.8,6,3.5,3.5,0,0,1-.4,4.6c-1.3,1.5-3,1.3-4.6.5S48.7,34,47.8,30.5Z"/><path class="bb319605-4ba2-424a-ae30-309246504c94" d="M38.6,133.6c-3.1.1-6.1,1.4-9.3,1.1a16.9,16.9,0,0,1-3.6-5.5c3.5-.1,7.1-.1,10.2-1.9s3.9-2.9,5.9-4.2,4.1-2,5.8-.1.2,4-1,5.7S41.7,132.6,38.6,133.6Z"/><path class="aa28ee65-675d-4d6a-8c67-58bac4dd3515" d="M141.1,155.4c-1.5-1.6-3.2-3.1-3-5.7s-1.1-2.8-1.8-4.1a17.6,17.6,0,0,1-3.7-5.6c-.8-1.6-.9-3.3.7-4.5a3.6,3.6,0,0,1,4.6-.1c2.3,1.5,4.4,3.3,4,6.5a11.8,11.8,0,0,1-.1,12.9Z"/><path class="feccbecd-02a2-4b8b-bc37-7a1bf15242d6" d="M100.8,17.7c-.8-4,2-6.7,3.8-9.6.8-1.4,2-2.6,2.6-4.2,2.3-.2,4.5-.4,6.5,1-2.5,4.1-5.4,8-6.5,12.8C105,20.4,102.9,20.4,100.8,17.7Z"/><path class="a0c6cd2b-3c02-4fba-9b5a-26508c74cd03" d="M15.7,65.3a5,5,0,0,0,1.8,3.9,22,22,0,0,0,3.8,2.4,60.9,60.9,0,0,1,6.1,1.7c1.7.7,3,1.7,2.8,3.7s-1.3,3.1-3.4,2.8a12.2,12.2,0,0,1-9.7-3.7,4.2,4.2,0,0,0-3-1.8C13.6,71.1,14.6,68.2,15.7,65.3Z"/><path class="a74168a0-0fbc-40f1-b83f-1942283c19ba" d="M78.9,167.2c-1.1-1.4-1.2-2.7.1-4a4.4,4.4,0,0,0,1.7-3c.9-1.4.8-3.2,1.5-4.7s2.3-4.1,5-3.3,2.4,3.1,1.7,5.2a11.3,11.3,0,0,1-4.3,7.6l-3.2,3.2A3.9,3.9,0,0,0,78.9,167.2Z"/><path class="feccbecd-02a2-4b8b-bc37-7a1bf15242d6" d="M107.2,4c-1.2,0-2.6.3-3.7-.8C104.8,3.1,106.2,2.9,107.2,4Z"/><path class="ac17f76e-f317-4dba-a9c2-1e2be07d7765" d="M88.9,157.4a8.1,8.1,0,0,0-.1-2.2,2.5,2.5,0,0,0-2.7-2.3,2.3,2.3,0,0,0-2.5,2.1c-.4,2-.9,4-2.9,5.2-.4-2.5-2.2-3.8-4.3-4.9a13.5,13.5,0,0,0-7.4-1.5c-1.9.2-3.6-.2-4.7-2.1a7.7,7.7,0,0,0-3-2.6,66.1,66.1,0,0,1-15.9-11.9,13.6,13.6,0,0,0-6.8-3.6c.6-1.3,2-1.7,3.2-2.4a12.3,12.3,0,0,0,5.3-5.3c.3-.7.7-1.4.2-2.1a2.7,2.7,0,0,0-2.4-1,3.8,3.8,0,0,0-2.4,1.1c-1.1.9-2.4,1.7-3.6,2.6a4.1,4.1,0,0,1-3,.8,6.1,6.1,0,0,0,0-6.5c-1-1.9-1.8-3.9-2.9-5.7a27.5,27.5,0,0,1-3.5-14.8c.1-2.5,0-4.9.1-7.4a11,11,0,0,1,.3-3.6c1.4-4,.3-7.1-3.1-9.5a5,5,0,0,0,2.3-2,2.1,2.1,0,0,0-1.2-3.2,30.1,30.1,0,0,0-4.3-1.1,3.6,3.6,0,0,1-2.3-1.9l.4-.2c5.5-3,6.8-5.9,5.5-11.9-.6-2.7-.5-3.3,1.9-4.3a7.5,7.5,0,0,0,3.5-3.3A104,104,0,0,1,42,38.5c2-2.6,4.6-4.8,5.8-8,1.1.4,1.5,1.4,2.1,2.3A13.9,13.9,0,0,0,55,37.3a2.6,2.6,0,0,0,2.9-.2,2.9,2.9,0,0,0,.5-3.4,17.3,17.3,0,0,0-1.7-2.1,7.8,7.8,0,0,1-2.5-4.7A16.3,16.3,0,0,0,61.6,25L68,21.8a30.5,30.5,0,0,1,13.6-3.2h7.7a10.9,10.9,0,0,1,4.4.6c1.8.6,3.6.3,5.4.3s1.5-.8,1.7-1.8a5.7,5.7,0,0,0,6.4,0c.2,1.2-1.3,2.3-.4,3.5a6.5,6.5,0,0,0,3.4,2.9,43.3,43.3,0,0,1,11.5,6.4c5.7,4,10.5,9.1,15.5,14,.9.9.9,2.3,1.6,3.2a1.8,1.8,0,0,0,1.9.9,2,2,0,0,0,1.8-1.3A4.4,4.4,0,0,0,142,43l-2.7-3.7a1.7,1.7,0,0,1-.3-2,1.9,1.9,0,0,1,2.2-1.2,11.2,11.2,0,0,1,2.6.8l3.7,1.7a4.4,4.4,0,0,0,4-.1c2.3-1.3,5-.6,7.5-1.5s3,.6,4.1,1.7a2.4,2.4,0,0,1-.6,3.8,7.2,7.2,0,0,1-3.5.8c-2.9.3-3.9,1.5-3.3,4.2a15.7,15.7,0,0,0,1.9,5.1,38.5,38.5,0,0,1,4.8,11.7c2.2,7.5,1.7,14.9.2,22.4a26.1,26.1,0,0,0-.6,2.7c-.1,2,.4,2.5,2.6,2.4s5.3,1.2,7.6,2.7a14.6,14.6,0,0,1,3.6,3.4,3.5,3.5,0,0,1-1.8,5.5,2.8,2.8,0,0,1-1.8-.3,12.2,12.2,0,0,1-1.7-1.5,2.6,2.6,0,0,0-3.2-.9,1.9,1.9,0,0,1-2.6-1.2c-.4-1.4-1.8-2-2.2-3.4s-1.1-.5-1.5-.1a5.9,5.9,0,0,0-1.5,1.7,71.9,71.9,0,0,1-9.2,15.6c-2.1,2.9-4.8,5.1-7.2,7.7s-5.1,4.7-6.8,7.9l-.5.7c-.1.5.2,1.1.6,1.1,2-.2,4.2.6,5.9-1.4a10,10,0,0,1,2.6-1.8c.6-.5,1.2-.9,2-.2s1.5,1.6,1.2,2.8a5.9,5.9,0,0,1-1.7,3.1c-2.4,2-3.3,4.7-3.7,7.6-.1.4-.5.7-.8,1.1a14.9,14.9,0,0,0-4-5.3,3.2,3.2,0,0,0-2-1,2.6,2.6,0,0,0-2.7,1.1,2.1,2.1,0,0,0,.1,2.5,13.5,13.5,0,0,1,3,6.4c-3-.2-5.6,1-8.1,2.3s-7.6,3.8-11.8,4.5a25.1,25.1,0,0,1-2.7.4H99.6a27,27,0,0,1-4.8-.9l-2.2-.7c-1.8-.4-2.6.2-2.7,2a24.5,24.5,0,0,1-.2,2.7C89.7,156.4,89.2,156.9,88.9,157.4Z"/><path class="ffa6dbe4-da78-4e44-8d55-9cea1cb6408c" d="M69.7,127.4l-2.5,1.9c-1.5,1-2.9,1.1-4.2-.1s-5-4.5-6.9-7.3-3.3-3.9-4-6.5c-.2-.7-1-.6-1.5-.3s-1.6,1.9-2.3,2.8a2.8,2.8,0,0,1-4.9-.5,25,25,0,0,1-1.5-3.8,26.5,26.5,0,0,0-1.1-3c-1.8-3-1.5-5.7.6-8.4s.9-1.6-.7-2.3a5.1,5.1,0,0,1-2.9-4.8c-.1-4.4,0-8.8,0-13.2A5.2,5.2,0,0,1,38.9,79a10.7,10.7,0,0,0,1.7-4.6,21.8,21.8,0,0,1,3.1-8.5,6.3,6.3,0,0,1,5.9-3.4h2.8c.7,1.9-.4,3.5-1.3,5-3.8,6.6-4.6,13.2.2,19.7.7,10.9,3.4,21.2,10.1,30.1,2.6,3.4,6.2,5.8,8.5,9.4A1.4,1.4,0,0,0,69.7,127.4Z"/><path class="b131e086-71b0-45f7-83af-d1d23afc575f" d="M130,121.8h-.9l-.9.8h0c-7.3,7.3-16.6,9.6-26.5,10.1a4.9,4.9,0,0,1-3.7-1.6c-.8-2.6.6-4.3,2.5-5.7,3.6-1.9,7.8-1,11.5-2.4,1.7-.1,2-.6.9-2.1s-1.9-4,.8-5.6c6.1-1.9,9.6-6.9,14-11s6.4-9.6,7.4-15.4c2.3-2.1,5-1.4,7.6-1.2a38.6,38.6,0,0,0,4.9.6c3.2,2.4,1,4.6-.2,6.8h0C144.4,106,139,115.1,130,121.8Z"/><path class="ffa6dbe4-da78-4e44-8d55-9cea1cb6408c" d="M53.3,60.6a3.8,3.8,0,0,1-2.8-1.4,2.6,2.6,0,0,1-.5-2.9,11.3,11.3,0,0,1,2.3-3.4c4.1-4,7.8-8.4,13.3-10.8a2,2,0,0,0,.8-1c.1-.7-.5-1.1-1.1-1.3l-.8-.2c-1.6-.6-2.9-1.5-2.8-3.2s1.4-2.6,2.8-3.3a68.6,68.6,0,0,1,17.2-5.3l4.9-.9a3,3,0,0,1,3.7,1.8l.9,1.6c.5.7,1.3.7,1.9-.1l.9-1.5a4.4,4.4,0,0,1,5.7-1.4c2.4,1,4.2,2.5,3.8,5.4,0,.5.1.9.1,1.4l-.4.5c-4.1,1.5-8.3.5-12.2.7,2.7.8,6.5-.3,8.4,3.3a3,3,0,0,1-1.1,3.2c-4.1.7-8.2-.5-12.3.1A42.8,42.8,0,0,0,62,54C59.4,56.5,57.7,60.4,53.3,60.6Z"/><path class="ffa6dbe4-da78-4e44-8d55-9cea1cb6408c" d="M98.1,131c2.8.8,5.6,1.3,8.4.1,7.3-.2,13.4-3.3,19.2-7.3a3.5,3.5,0,0,1,2.5-1,8.1,8.1,0,0,0,1.8,1.9,2.5,2.5,0,0,1-1,4.3,4.7,4.7,0,0,1-3.5.3,1.1,1.1,0,0,0-1.5.7c-.2.6.3,1.1.7,1.5s2,1.4,2.9,2.2,2.1,4.5-.3,5.7c-4.6,2.2-9.4,4.2-14.6,4.3-2.8.1-3.1-.3-3.7-3.4-.1-.3-.1-.6-.2-.9s-.5-.8-.9-.7-1,.4-1.1.7a14.1,14.1,0,0,0-.6,2.2,4.2,4.2,0,0,1-4,3.1c-4.1.3-8.1-.6-12.2-1.1-1.7-.2-2.7-1.8-3.6-3.2s-.3-1.2-.6-1.7a1,1,0,0,0-1.8-.4,7.5,7.5,0,0,0-.7,1.2,2.6,2.6,0,0,1-3.5,1.1,53.1,53.1,0,0,1-5.5-2.3c-2.5-1.3-3.6-3.5-4.4-6.1s.8-2.6.7-3.9l.6-.5c2-.3,3.6.8,5,1.8,9.4,7,20.3,6.7,31.2,7.3.6-.1-.1-.9.1-.3s0,.3-.3.3a55.1,55.1,0,0,1-8.1-.5c-2.5-.3-4.1-1.4-2.9-4.3A2.9,2.9,0,0,1,98.1,131Z"/><path class="a5636180-c726-4472-8c44-169339bc3689" d="M53.3,60.6c3.1-2.2,5.5-5.1,8.2-7.8A40.1,40.1,0,0,1,78.3,42.5a32.7,32.7,0,0,1,19.6-1.1c1.5,1.3,1.3,2.9.5,4.6-3.7,2.6-8.2.6-12.2,1.8-1.1.3-2.3.4-3.4.8a26.7,26.7,0,0,0-13.1,6c.9.2,1.7-.3,2.6-.3s2.5.5,2.9,1.8-.5,2-1.3,2.7-4.8,3.8-6.8,6a40.4,40.4,0,0,0-8.4,15.5c-.7,2-1,4.2-3,5.5s-3.2.5-4.6,1.2l-.6.2a40.7,40.7,0,0,0-3.1-4.9,5.1,5.1,0,0,1-1-5.1,67.7,67.7,0,0,1,6-14.7h0a3.9,3.9,0,0,0,.8-1C53.2,61.2,53.3,60.9,53.3,60.6Z"/><path class="ffa6dbe4-da78-4e44-8d55-9cea1cb6408c" d="M147.4,95.3a6.3,6.3,0,0,1,.5-3,2.7,2.7,0,0,0-.3-3.3c-2.4-.5-4.5-1.4-5.6-3.8-.8-11.7-4-22.6-11.4-31.9a4.2,4.2,0,0,1-.8-2.1l.3-.7,2.8-2.2a2.1,2.1,0,0,1,2.6.1,11.6,11.6,0,0,1,3.3,4.3c.7,1.5-.6,2.6-.4,4s.2.6.4.7a1.4,1.4,0,0,0,.9,0,4.1,4.1,0,0,0,1.9-1.8l2.8-4.2a1.7,1.7,0,0,1,2.8,0,12.1,12.1,0,0,1,2,3c1.6,4.2,3.6,8.3,4.8,12.7s.9,5.7-2.2,7.5c-.2.1-.2.5-.3.7s.9.8,1.4,1c2.1.9,2.8,2.6,2.7,4.8s-.8,3.1-3.8,2.8h-.4a1.6,1.6,0,0,0-1.8,1.1,1.4,1.4,0,0,0,.9,1.8c.7.3,1.5.3,2.2.6a2.8,2.8,0,0,1,1.4,4.4,7.7,7.7,0,0,1-2.9,2.2Z"/><path class="ffa6dbe4-da78-4e44-8d55-9cea1cb6408c" d="M51.7,120.2c.6.4,1.4.8,1.7,1.4,2.3,4.2,5.4,7.6,8.5,11.2l.2.4c2.4,3.7,2.4,3.7,6.1,6.1s7.8,5.2,11.8,7.6c1.3.8,2.8,1.2,4.1,1.9a1.5,1.5,0,0,1,.8,1.5,1.7,1.7,0,0,1-1.1,1.3,4.2,4.2,0,0,1-2.7.1,35.4,35.4,0,0,1-11.6-5.1c-3.2-2-6.4-4-8.5-7.3a2.2,2.2,0,0,0-1-.9c-4.9-2.2-7.3-6.7-10.3-10.6-1.7-2.3-1.2-4.9.7-7A3.9,3.9,0,0,1,51.7,120.2Z"/><path class="ffa6dbe4-da78-4e44-8d55-9cea1cb6408c" d="M31.8,75.1a2.1,2.1,0,0,1-2.1-2.5A37.6,37.6,0,0,1,31,67.8c2.2-4.6,4.4-9.3,8.3-12.9a41.7,41.7,0,0,0,4.8-6.1,13.4,13.4,0,0,1,3-3.3c2.3-1.8,4.4-3.7,6.5-5.7s3.6-1.4,5.2.3a2.3,2.3,0,0,1-.1,3.6c-1.6,1.4-3.3,2.6-5,3.9A57,57,0,0,0,41.4,60.3c-2.8,3.9-5.6,7.9-7.1,12.6A2.6,2.6,0,0,1,31.8,75.1Z"/><path class="ffa6dbe4-da78-4e44-8d55-9cea1cb6408c" d="M130,121.8c1.8-2.8,4.4-4.8,6.4-7.5a79.1,79.1,0,0,0,10.1-17.9,8.7,8.7,0,0,1,.9-1.1,1.9,1.9,0,0,0,1.6,1.9c3,.9,3.6,2.2,2.2,5l-5.6,10.3a6.3,6.3,0,0,1-2.4,2.7,10.4,10.4,0,0,0-5,6.2c-.8,2.2-1.4,2.4-3.8,1.7Z"/><path class="ffa6dbe4-da78-4e44-8d55-9cea1cb6408c" d="M103.6,34.1c1,0,1.5-.7,2.1-1.4,2.1-2.5,4.3-2.9,7.3-1.6l6,3.1c2.4,1.3,3.9,3.1,3.8,6.1s.6,2,1.8,1.3,2.1-1.4,3.3-.6a4.3,4.3,0,0,1,2.2,3.7c.1,1.8-.8,3.3-.9,4.9l-.6.3a4.8,4.8,0,0,1-2.8-1.5,53.2,53.2,0,0,0-17.7-10.6c-1.8-.6-4.3-.8-4.6-3.6Z"/><path class="ffa6dbe4-da78-4e44-8d55-9cea1cb6408c" d="M129.2,49.6l.9.9H130q-1.2.3-.9-.9Z"/><path class="ffa6dbe4-da78-4e44-8d55-9cea1cb6408c" d="M53.2,61.5a1.4,1.4,0,0,1-.8,1Z"/><path class="ffa6dbe4-da78-4e44-8d55-9cea1cb6408c" d="M128.2,122.7l.9-.8Z"/><path class="ffa6dbe4-da78-4e44-8d55-9cea1cb6408c" d="M70.6,128.3l-.9-.9h0c.8-.2,1.2.1,1,.9Z"/><path class="b64e17d6-208c-4e34-b0b3-dd1ab0e7b911" d="M70.7,128.2l-1-.9c-4.7-3.8-9-8.1-12-13.5s-4.7-8.4-5.8-13.1a9.3,9.3,0,0,1-.4-1.3c.2-4.2-1.3-8.1-1-12.2h.1c2.7-.5,4.6.9,6.1,2.9s1.6,6.7,2.2,10c.5,1.7-1.8,3.2-.1,4.9,4.2,3,5.4,8.3,9.2,11.8-.3-1.1-.9-1.9-.9-2.9a3.3,3.3,0,0,1,1.6-3.1c1.2-.7,2.3-.1,3.3.6a55.1,55.1,0,0,1,4.1,4.3c5.6,5.7,12.8,7.7,20.2,9.6,1.7,2-.9,4.6.8,6.6-.8,2.6-.6,3.4,1.5,3.6s6.1,1.6,9.7.8a1.8,1.8,0,0,1-2.1,1.1c-4,.1-7.9.2-11.9,0s-10.4-1.3-14.9-4.4A40.6,40.6,0,0,0,70.7,128.2Z"/><path class="f8f2fee8-1d70-48ad-aff4-64b4c56692e9" d="M96.2,125.5a29.8,29.8,0,0,1-18.6-7.2,48.4,48.4,0,0,1-6.4-6.4,1.7,1.7,0,0,0-2-.6,2.2,2.2,0,0,0-1.3,2.2,3.1,3.1,0,0,0,.7,2.1,18.4,18.4,0,0,1,1.7,2.2A2.1,2.1,0,0,1,70,119a.9.9,0,0,1-1.5.1,46.9,46.9,0,0,1-5.8-7.5c-1.4-2.3-2.4-5-4.9-6.4,2.6-7,6.9-8.8,13.3-5.2a15.2,15.2,0,0,0,5.6,2.1c-2.1-1.5-4.1-2.9-2.8-5.3s3.4-1.7,5.3-1.7,5.4,1,8,1.8,8.1,1.2,11.6-.8A42.2,42.2,0,0,1,80,93.8c-5.6-2.1-11-1.1-15.8,2.9-1.9,1.6-3.3,4-6.3,4-.2-.9-.3-2-.6-2.9A17.2,17.2,0,0,1,56,90.1c6.9-1.4,13.7-3,20.4-2.2-2.3-1.4-5.3-1.5-8.4-1a30.3,30.3,0,0,1-9,.5c-1.5-.1-3.5.3-3.9-2,1.2-1,1.6-2.5,2.1-4s2-5.4,3-8,4-7.2,6.7-10.2,4.7-3.8,7.1-5.7c.3-.2.7-.7.6-1.1a1.3,1.3,0,0,0-1.2-1.1,5.9,5.9,0,0,0-2.3.1l-2.4,1.2c-.6.2-1.3.6-1.7.1s.1-1.1.5-1.5a26.2,26.2,0,0,1,10.2-6.5,10.3,10.3,0,0,1,4.9-.8c3.9,2.3,4.6,5.3,2.1,8.8s-3.1,3.8-3.5,6.4c1.1-.6,1.4-1.9,2.4-2.4s3.9-.8,4.4,1.8-.5,5.4-1.3,8c-1.4,4.8-3.2,9.6-.6,15.7a37.6,37.6,0,0,1,3.7-20.3c2.4-5.2.5-9.8-2.3-14.2-.9-1.5-2.7-2.6-2.3-4.7a8.4,8.4,0,0,1,4.4-1c2.7.1,5.5,0,8.2,0,3.2,5.9,2.7,11.9,1.7,16.7,2-3.4,2.1-4.1,1.9-11.1-.1-1.8-.7-3.5,0-5.3,5.3.9,11,.5,14.9,5.6,2.3,3.1,5.1,5.9,7.5,9s4.9,5.1,3.4,9.1c-2.6.4-4.6-1.3-7.6-1.6,1.9,1.4,3.6,2.7,2.5,4.9s-2.8,2.1-4.6,2.2-4.8-.6-7.2-1.1c-4.4-.9-8.9-1.4-13.8.8,6.3-.3,11.9-.6,17.4.9s12.3.8,17.5-3.7c1.2-1,2.4-2.5,4.4-1.7a10.3,10.3,0,0,1,1.7,6.1,23.9,23.9,0,0,0,1.9,8.3c-5.3,2.9-11.1,1.9-16.4,3a12,12,0,0,0,7.8.9c1.6-.4,3.3-.5,4.7.8.3,3.2-1.2,6.2-1,9.4a1.3,1.3,0,0,1-1,1.4c-2.2.1-3,1.8-4.1,3.3a43.8,43.8,0,0,1-11.3,11,7.1,7.1,0,0,1-4.7,1.4c-1.3-3.3,2.1-5.5,1.7-8.4-.9,1.7-1.8,4.4-4.7,3.4s-2.6-3.5-2.4-5.8a45.1,45.1,0,0,1,1.7-8.9,15.2,15.2,0,0,0-1.8-12.3c1.9,6.8.8,12.9-.9,18.9a17.9,17.9,0,0,0,3.9,17.4c.8,1,1.7,1.8,1.8,3.1a8.8,8.8,0,0,1-5.8,1.7,21.1,21.1,0,0,0-6.1,1c-2-6.2-2.1-12.7-3.1-18.3-1,2-.8,4.8-.5,7.7S98.4,122.4,96.2,125.5Z"/><path class="bd136049-8bce-4ba8-acbc-6328fde94827" d="M112.7,123.7a17.4,17.4,0,0,1-5.2-5.6,18.9,18.9,0,0,1-1.5-15.7c1-3.1,1.1-6.3,1.9-9.3a2.8,2.8,0,0,0,.1-1.8c-1.2-2.9-.4-6-1.5-8.9a3.7,3.7,0,0,1,2.9,2.1c1.8,3.1,2.9,6.3,1.9,10s-1.5,6.7-2.1,10.1a9.8,9.8,0,0,0,0,4.5,2,2,0,0,0,2,1.6,1.8,1.8,0,0,0,1.9-1l1.7-4.7c.2-.4.5-.8,1.1-.6a1,1,0,0,1,.4.7c.2,2.6.2,5.1-1.3,7.5a9.5,9.5,0,0,0-1.6,3.7c-1.1,1.2-.9,2.4-.1,3.7a15,15,0,0,0,1.1,1.3c.7.8,2.1,1.5,1.4,2.5S113.7,123.9,112.7,123.7Z"/><path class="f622113c-9429-400f-a866-f3f70a1bd38c" d="M96.2,125.5c0-4.1.2-8.1-.6-12.2s.7-6.7,4.2-9.8c-1.5,5-.5,9,.6,13s.3,6.6.4,9.9a16.4,16.4,0,0,0-2.7,4.6,3.9,3.9,0,0,1-1,.8H95.8c-.8-.1-1.4-.6-1.1-1.5S96.6,127.4,96.2,125.5Z"/><path class="be53179b-3042-4bc7-9d72-65f14e69b762" d="M135.5,89.8a45,45,0,0,0-6.3.7,10.7,10.7,0,0,1-9.2-2.9c-.2-.1-.3-.5-.3-.7a.7.7,0,0,1,1-.6c4.2,1,8.3-.1,12.5-.7L139,85a2.8,2.8,0,0,1,3.7.3c1.4,1.5,3.8,1.8,4.9,3.7a2.9,2.9,0,0,1-3.4.6c-2.2-.8-4.4-.5-6.7-.6A2.6,2.6,0,0,0,135.5,89.8Z"/><path class="b48f4ec3-5eab-4e06-b70b-7b4fdb39b378" d="M142.7,85.3,139,85a4.5,4.5,0,0,1-2.6-5.1c.6-3.1-1-6.1-1-9.2-.8-1-.4-2,.2-2.9-3.9,4.4-5.3,4.7-8.3,1.8a24,24,0,0,0-6-10c-2.5-2.4-4.3-5.4-6.9-7.8a9.9,9.9,0,0,1-1.5-2.9,5.5,5.5,0,0,1-5.3-.1L101.9,46c-2.6-3.1-.6-5.6.8-8.2-1,.2-2,1.5-3.4.9a11.5,11.5,0,0,0-6.3-2c-1.9.1-3.8-.6-5.8-1-.1,0-.3-.4-.4-.6a.5.5,0,0,1,.4-.7l2.7-.2h13.6c2.3,2.3,5.6,2.9,8.5,4,5.6,2.1,10.2,5.6,14.7,9.5.7.7,1.6,1.3,2.4,2l.9.9a56.3,56.3,0,0,1,7.2,11A39.9,39.9,0,0,1,142,76.7C142.3,79.5,143,82.3,142.7,85.3Z"/><path class="fcc4d3f8-7da3-4571-9e40-adc590627dd9" d="M99.3,38.7l4.1-2.4c-.1,3.5-2.5,6.4-1.5,9.7s.7,6.6.8,9.9a10.6,10.6,0,0,1-2.6,8c-.6.6-1,1.5-1.6,2.1s-1.5,1.9-2.1,1.5.1-1.8.7-2.6A9.1,9.1,0,0,0,99,58.6c-.1-2.7.1-5.4-.7-8.1a16.8,16.8,0,0,1-.5-4.5c0-1.5,0-3.1.1-4.6S98.8,39.6,99.3,38.7Z"/><path class="ec48e5e8-50d8-4a36-970d-79d1b871b4d2" d="M85.2,47c2.1,2.4,4.2,4.8,5.4,7.8a26,26,0,0,1,1,2.5,12.7,12.7,0,0,1-1,10.1A28.1,28.1,0,0,0,88,74.2a27.3,27.3,0,0,0-1,8.1c.1,1.9,0,3.8,0,6a8.2,8.2,0,0,1-3.5-6.2,25.1,25.1,0,0,1,1.4-9.8c.6-1.7,1.1-3.5,1.7-5.2a11.5,11.5,0,0,0,.4-4.9,1.3,1.3,0,0,0-.9-1.4,2,2,0,0,0-1.7.4,5.3,5.3,0,0,0-1.9,2.5,11.2,11.2,0,0,1-1.1,2.5.7.7,0,0,1-.8.2c-.2,0-.6-.3-.6-.5a9.7,9.7,0,0,1,1.8-7.7A8.1,8.1,0,0,1,83,56.8c3-2.6,2.6-4,.9-7.1a7.5,7.5,0,0,0-1.3-1.8C83.2,46.7,84.3,47,85.2,47Z"/><path class="f622113c-9429-400f-a866-f3f70a1bd38c" d="M55.1,85.4c.5.2,1,.7,1.5.7,3.7.1,7.3.4,10.9-.5s6.1-.9,8.9.8a4.2,4.2,0,0,1,1.7,1.4c.1.9-.1,1.1-.5,1.1a69.9,69.9,0,0,0-17.1,1.7,9.8,9.8,0,0,1-4.5-.5l-5.4-3c0-1,.4-1.7,1.5-1.7S54.1,85.4,55.1,85.4Z"/><path class="ffa6dbe4-da78-4e44-8d55-9cea1cb6408c" d="M49.9,82.2h-.4a2,2,0,0,1-.4-.8c.5-2,1-4.1,2.5-5.7a3.9,3.9,0,0,1,1.1-.6c.2.3.6.7.5,1.1a35.2,35.2,0,0,1-1.3,4.3A2.7,2.7,0,0,1,49.9,82.2Z"/><path class="bccdd450-01d9-477c-b8f5-48c536c824ce" d="M57.9,100.7c2.5-2.1,4.7-4.7,7.6-6.5,5.4-3.3,11-4,16.7-.6a4.6,4.6,0,0,0,2.5.8,40.3,40.3,0,0,1,7.7.8,9.7,9.7,0,0,0,5.8-.4,7.3,7.3,0,0,1,3.6-.2c.2,1.3-.9,1.5-1.6,2A12.8,12.8,0,0,1,89,98.5a45.8,45.8,0,0,1-5.3-1.4c-2.5-1-5-.9-7.6-.8a1.6,1.6,0,0,0-1.7,1.2,1.9,1.9,0,0,0,.9,2.3c1.1.6,2.3,1,3.3,1.5a1.7,1.7,0,0,1,.6,1.1,1.6,1.6,0,0,1-.9.9,5.5,5.5,0,0,1-4-.3,37.4,37.4,0,0,1-5.2-2.8c-3.1-1.9-4.7-1.7-7.3.8s-2.7,2.8-4,4.2-1.3-.1-1.1-.8S57.5,102,57.9,100.7Z"/><path class="a3f89af7-0c49-4a17-aac9-d5e1ab66b6b7" d="M127.3,69.6c3.4,1.5,3.4,1.5,5.8-.7s1.9-2.3,3.5-2.6c.3,1.8-1.2,2.9-1.2,4.4-1.9,1.2-3.4,2.9-5.3,4.3-4.7,3.5-9.9,3.9-15.1,2.5s-10.5-1.4-15.8-1.4l-2.7.4c-.8.1-1.8,1.1-2.3-.1s.7-1.2,1.2-1.7a8.4,8.4,0,0,1,5.8-2.2c4,0,7.9-.2,11.7,1.4,2.2.9,4.5.4,6.8.3a2.2,2.2,0,0,0,.6-4.2l-3.9-1.3a1.8,1.8,0,0,1-.5-.7.9.9,0,0,1,.9-.8,10.6,10.6,0,0,1,5,.3Z"/></svg>