<svg id="a8b79213-e74c-49b0-b6cb-e6c1ec851ac0" data-name="Layer 1" xmlns="http://www.w3.org/2000/svg" viewBox="0 0 194.1 173.4"><defs><style>.f822c09e-a52e-4d51-8f93-ade59aad8a30{fill:#004d83;}.be03e6dd-c4f9-4e77-8355-eaa805082ec4{fill:#01abea;}.b72a2d14-93d9-4fdb-8462-21d94645d01f{fill:#017cb7;}.ad494b74-3d9a-49e9-abdd-a179a49299b7{fill:#0173ad;}.a7a4b4a9-d4df-4d0c-af7c-e3b20214bf30{fill:#004171;}.a4d1ddbf-9027-470f-961e-77a4fe1ccf43{fill:#00adee;}.f7a8f396-2f73-4b18-8488-6d6ad56776d6{fill:#0068a3;}.fba59e57-3da5-4269-be8d-2ee253355c5d{fill:#008bc9;}.b655a108-37fd-4420-b21b-8d4e0fd0e63e{fill:#005f9e;}.f530d933-4f3b-483a-8f7c-7a58b7d4c2ef{fill:#0097d6;}.a5d55dce-b998-4b52-99ab-219c0acec091{fill:#007ebb;}.b12e2ff3-7cd4-4d96-8778-5b31e1f2918a{fill:#008ac8;}.b40d0a1f-771f-4582-a0b4-c896794b3e2c{fill:#00a4e4;}.bf20e88c-0cc8-4e03-9b5a-b0e6a10f1711{fill:#00abec;}.aaf46617-b2ea-4d0d-81c9-5ea1e0d34822{fill:#005e9b;}.e036d41a-b42d-403a-8a14-8c853cb58b56{fill:#0076b2;}</style></defs><path class="f822c09e-a52e-4d51-8f93-ade59aad8a30" d="M162.7,138.2a.4.4,0,0,1-.3.6l-.7,1.1a14.9,14.9,0,0,1-2.8,3.8c-13.9,14.6-30.7,23.8-50.8,26.5s-41.6-1.5-59.7-13.7a15,15,0,0,1-1.3-1.1,1.8,1.8,0,0,0-1.3-.9.3.3,0,0,1-.3-.3,1.6,1.6,0,0,1-.9-.7h-.1l-.9-.8h0a2.4,2.4,0,0,0-.9-.8h0a1.4,1.4,0,0,0-1.2-1q-.3.1-.3-.3a1,1,0,0,1-.8-.7h-.1a1.5,1.5,0,0,1-.8-.8h-.1c1-3.5,4.2-.2,5.8-2-.4-1.6-2-2.4-3.1-3.4A79.2,79.2,0,0,1,17.8,96c-.8-6.3-.2-12.6-.3-18.9,3.1-31.5,27.2-59.8,57-66.7l1.8-.5,2.4-.4L81,9a15.4,15.4,0,0,1,3-.4,13.4,13.4,0,0,0,3-.5,16.9,16.9,0,0,1,3.8-.4,12.4,12.4,0,0,0,3.8-.5,8.6,8.6,0,0,1,3.2,0,11.4,11.4,0,0,0,3.7.5,23.1,23.1,0,0,1,3.7.3,10.7,10.7,0,0,0,3,.6l2.3.4,2.2.5,2.1.4,1.5.5,1.4.5,1.9.5,1.5.3,1.4.6.9.4a9.8,9.8,0,0,0,2.2.5c7.2,2,13.2,6.3,19,10.6a75,75,0,0,1,26.8,37.9c5.8,19.5,4.8,38.5-3.4,57.2a84.5,84.5,0,0,1-8.7,14.8c-.7,1-2.3,1.8-1.6,3.2s2,.5,3.1.5S162.3,137.6,162.7,138.2Z"/><path class="be03e6dd-c4f9-4e77-8355-eaa805082ec4" d="M97.9,8.1H94.5c-1.1.7-2.5-.1-3.6.7L86.7,9c-.8.5-1.9,0-2.7.6l-3.3.2c-.6.4-1.3.3-1.8.7l-2.5.2-1,.6a61.4,61.4,0,0,0-20.2,8.2A77.1,77.1,0,0,0,29.6,45,78.1,78.1,0,0,0,19.5,71.3c-.4,1.8-1.1,3.6-.9,5.5-1.5,2.7-3,1.1-4.4,0s-1-2.9-1.5-4.3a62.4,62.4,0,0,1,5.4-20.2A89.7,89.7,0,0,1,44.9,18.1,80.8,80.8,0,0,1,80.5,2.9a90.7,90.7,0,0,1,27-.9,81.5,81.5,0,0,1,24.7,7.1,86.5,86.5,0,0,1,27.9,21.2c7.7,8.8,13.7,18.7,16.8,30.2-1.9,2.4-3.9,4.2-6.6.9a114.8,114.8,0,0,0-7.4-15.9,64.8,64.8,0,0,0-12.1-14.9,80.5,80.5,0,0,0-18.3-13.4,31.9,31.9,0,0,0-7.9-3.2c-.4-.5-1.2-.3-1.7-.8h-.8l-.9-.6-1.7-.3c-.5-.4-1.2-.3-1.8-.7l-1.5-.2-1.1-.6-2.4-.2c-.6-.4-1.3-.3-1.9-.7l-2.5-.2c-.7-.6-1.8-.1-2.6-.6l-4.2-.2C100.4,8,99,8.8,97.9,8.1Z"/><path class="b72a2d14-93d9-4fdb-8462-21d94645d01f" d="M170.3,61.4c1.8,1,3.4,1.2,5.1-.3a6.7,6.7,0,0,1,1.5-.6c2,4.3,2.7,9,3.3,13.7.9,7.3,1.5,14.6.5,21.9-2.3,15.1-7.1,29.2-17.1,41.2l-.9.9c-2.1.2-4.1,1-6.3.7s-1.6-.8-1.1-1.7a11.6,11.6,0,0,1,1.3-2.2c6.3-7.1,10.4-15.4,13.4-24.3a114.8,114.8,0,0,0,3.6-15.4c.4-2.3,0-4.8.1-7.3a72.9,72.9,0,0,0-3-24.1A21.7,21.7,0,0,1,170.3,61.4Z"/><path class="ad494b74-3d9a-49e9-abdd-a179a49299b7" d="M12.7,72.5c1.1,1.4,1.4,3.2,2.9,4.4s2,.6,3-.1c0,3.7.2,7.5,0,11.2-.3,7.1,1.3,13.9,3.1,20.6C24.1,118,29,126.2,34.8,134a62.8,62.8,0,0,0,12.3,12.4,1.3,1.3,0,0,1,.5,1.5,2.3,2.3,0,0,1-1.3,1.1,5.3,5.3,0,0,1-3.7-.3c-1.1-.4-2.3-.6-3.2.5a75.7,75.7,0,0,1-19-24.6c-5.9-12.3-9.4-25.2-9.2-39a80.9,80.9,0,0,1,.8-9.8c.4-.7,0-1.6.5-2.3Z"/><path class="be03e6dd-c4f9-4e77-8355-eaa805082ec4" d="M12.5,73.5c.1.8.3,1.7-.5,2.3A2.8,2.8,0,0,1,12.5,73.5Z"/><path class="b72a2d14-93d9-4fdb-8462-21d94645d01f" d="M161.7,139.9a1.4,1.4,0,0,1,.7-1.1A.9.9,0,0,1,161.7,139.9Z"/><path class="ad494b74-3d9a-49e9-abdd-a179a49299b7" d="M39.5,149.2a1,1,0,0,1,.8.8C39.8,149.9,39.5,149.7,39.5,149.2Z"/><path class="ad494b74-3d9a-49e9-abdd-a179a49299b7" d="M40.4,150a2.7,2.7,0,0,0,.8.7C40.7,150.7,40.4,150.5,40.4,150Z"/><path class="ad494b74-3d9a-49e9-abdd-a179a49299b7" d="M41.5,151a1.4,1.4,0,0,1,1.2,1A1.4,1.4,0,0,1,41.5,151Z"/><path class="ad494b74-3d9a-49e9-abdd-a179a49299b7" d="M42.7,151.9a1,1,0,0,1,.9.8A.9.9,0,0,1,42.7,151.9Z"/><path class="ad494b74-3d9a-49e9-abdd-a179a49299b7" d="M43.6,152.7a1,1,0,0,1,.9.8A.9.9,0,0,1,43.6,152.7Z"/><path class="ad494b74-3d9a-49e9-abdd-a179a49299b7" d="M44.6,153.5a1.1,1.1,0,0,1,.9.7A.8.8,0,0,1,44.6,153.5Z"/><path class="ad494b74-3d9a-49e9-abdd-a179a49299b7" d="M45.8,154.5a1.3,1.3,0,0,1,1.3.9A1.8,1.8,0,0,1,45.8,154.5Z"/><path class="a7a4b4a9-d4df-4d0c-af7c-e3b20214bf30" d="M48.8,99.3c.5-2.8,2.5-4,4.9-4.9.7-.3,1.3.3,1.9.6a4.6,4.6,0,0,1,1.8,3.3c1.5,7.3,3.3,14.5,7,21.1.7-7.5,3-14.4,8.3-20.3s12.2-8.7,20.6-7.4c-2-2.7-4.8-4.7-4.3-8.5a9.9,9.9,0,0,1,10-1,13.1,13.1,0,0,1,2.2,2.5c7.9,10.4,18.2,13.1,30.5,9.5,1.3-.4,2.7-1.2,4.1-.1a7.7,7.7,0,0,1,4.7,1.5c4.5,3,7.6,7.3,11,11.3a7.5,7.5,0,0,1,1.6,3.5c.4,2.4,1.1,4.7,1.5,7.1a10.1,10.1,0,0,1,.1,3c-1.4,8.9-6.1,15.7-13.2,21.2-4.4,3.5-9.7,5.4-14.6,8a9.4,9.4,0,0,1-3.2,1.1c-1.1.2-1.5-.6-1.6-1.5a2,2,0,0,1,1-.8l1.2-.5.8-.3,1.2-.6.8-.4.7-.4.8-.4,1.2-.6.8-.5,1.2-.9,3.2-2.1,1.3-.9,2.5-1.9a2.7,2.7,0,0,0,.8-.7l.4-.3.8-.8,5.3-5.3,1.1-1.3a11.6,11.6,0,0,1,1.6-2.1,9.4,9.4,0,0,0,.9-1.2l1-1.6a1.2,1.2,0,0,0-.6-1.6c-4-1.1-6.7-4.1-9.7-6.9-1.3,2.1-1.2,4.2-1.5,6.1-1.2,7.2-4.8,13.2-10.9,16.8-17,10.1-34.8,12.6-52.5,2.4-15.1-8.7-23.2-22.9-27.3-39.6C47.9,101.7,47.7,100.3,48.8,99.3Z"/><path class="a4d1ddbf-9027-470f-961e-77a4fe1ccf43" d="M128.1,34.7c1.8-.3,3.6-.7,5.5-.9s4.6,3,3.5,5.2a17.4,17.4,0,0,1-1.1,1.8c-1.3,2.2-1.3,2.7.6,4.4a34.9,34.9,0,0,1,6.6,6.7c1.1,1.6,2.5,3.1,3,5.1.7,3.5-1.9,3.8-4.1,3.8-4.8.1-9.6-.3-14.4-.1a7.3,7.3,0,0,1-3-1.6c-8.4-7.3-17.3-6.6-26.5-1.8-1.8,1-3.4,2.3-5.5,2.3-8.9-.7-17.8-.1-26.7-.4-2.3,0-5.1.5-5.9-2.8.9-6.2,5.5-9.9,9.5-13.9,11.4-11.2,25.6-14.1,40.9-12A107.3,107.3,0,0,1,128.1,34.7Z"/><path class="f7a8f396-2f73-4b18-8488-6d6ad56776d6" d="M48.8,99.3a49.4,49.4,0,0,0,6.4,19.4,89.7,89.7,0,0,0,5.3,8.3,47.2,47.2,0,0,0,22.7,18.2,33,33,0,0,0,11.7,2.4c2.6-.1,5.2-.5,7.7.4h.8c3.2-1.9,6.9-1.5,10.3-2.5a44.8,44.8,0,0,0,14.7-6.8,26.3,26.3,0,0,0,8.8-12.5c.9-2.3.9-5,1.2-7.5a16.4,16.4,0,0,1,.2-2.2,1.7,1.7,0,0,1,1.4-1.4,1.5,1.5,0,0,1,1.4.7c.9,1.2,1.7,2.3,2.7,3.4s3.3,3.2,5.8,3.4a2.6,2.6,0,0,1,2.3,1.6c-.5.5-.3,1.3-.8,1.8l-.9,1.7-.9.9-1.7,2.5-.8.9a35.2,35.2,0,0,1-6.1,6.1l-.9.8h0l-.9.8-2.5,1.8-.9.8-4.3,2.7-.9.8h-.8l-.9.8h-.8l-.9.8h-.8l-.9.8h-.9l-.8.8H86.4a12.4,12.4,0,0,0-4.3.4,10.3,10.3,0,0,1-4.6.4c-6-.4-11.6-1.7-16.7-4.8a74.4,74.4,0,0,1-17.5-15.1c-3.4-3.8-6.6-7.9-8.4-12.8-3.5-4.4-4.3-9.9-6.1-15a23.7,23.7,0,0,1-1.5-9.2c4.1,2.9,8.8,2.5,13.4,2.3,2.3,0,3.9-2.7,6.4-1.4a6.5,6.5,0,0,1,.9,3C48,98,48,98.8,48.8,99.3Z"/><path class="fba59e57-3da5-4269-be8d-2ee253355c5d" d="M127.2,59.7c1.9-.1,3.9.2,5.8-.7a3.6,3.6,0,0,1,2.5.1c2.6,1,5.3.5,8,.5s2.6-.9,2.7-2.6c4.6,7.9,4.5,15.9,1,24.2a25.6,25.6,0,0,1-10.1,11.9l-1.3,1a4.3,4.3,0,0,0-1.6.5A31.4,31.4,0,0,1,120,96.7a22.4,22.4,0,0,1-12.8-4.3,26.9,26.9,0,0,1-8.5-9.5c-3.7-5.4-2.5-15.1,4.6-20.1s15.9-3.2,20.9,2.3c3.2,3.6,2.4,9.7-1.6,12.9-.9.7-2.1.8-3,1.8,7-.2,11.1-6.3,9.4-13.2C128.4,64.3,126.5,62.3,127.2,59.7Z"/><path class="b655a108-37fd-4420-b21b-8d4e0fd0e63e" d="M128.1,34.7a2.2,2.2,0,0,1-2.4.5l-14.5-3.4a15.2,15.2,0,0,0-4.2-.6H98.8A40.6,40.6,0,0,0,72.3,41.6,51.4,51.4,0,0,0,60.9,55.3c-1.2,1.3.6,4.3-2.6,4.4a2.5,2.5,0,0,1-.9-2.3c0-3.5-.1-7.1.1-10.6s.7-6.7,4.1-8.7c.9.5,1,1.3.9,2.5,2.8-2.9,6.1-4.8,9.2-6.9,5.9-4,5.9-6.4.3-10.4,3.5-3.8,7.9-6,12.7-7.5a21.6,21.6,0,0,1,7.2-1c2.7.2,5.4.1,8.1.1,5.4-.2,10,1.8,14.6,4.2s8.4,6.8,12.3,10.6A4.5,4.5,0,0,1,128.1,34.7Z"/><path class="f530d933-4f3b-483a-8f7c-7a58b7d4c2ef" d="M58.3,59.7A5,5,0,0,0,59.9,57a3.3,3.3,0,0,1,1-1.7c.5,2.5.5,2.6,2.5,2.6q11.5.1,23.1,0a19.3,19.3,0,0,1,7.2,1c.3,1.8-.8,3.2-1.6,4.7A23.4,23.4,0,0,0,89,79.1c.2,1.7.7,3.5-1.3,4.6-4.1,1.1-8.2.5-12.4.6s-10,0-15,.6-5.1-.4-5-4.7c.1-2.8-.4-5.7.4-8.5s.7-5.1,1.3-7.5A33.3,33.3,0,0,1,58.3,59.7Z"/><path class="a5d55dce-b998-4b52-99ab-219c0acec091" d="M55.7,71.7v9.8c.1,1.8.6,2.2,2.4,2.3a7.4,7.4,0,0,0,2.6-.2c2.5-.9,5-.7,7.6-.7H88.4c.6.1.6.5.9.9a46.2,46.2,0,0,0,2.8,4.8c1,1.5,2.6,2.5,3.6,4.1-1,.8-1.9.4-2.7.3-6.6-1.5-12.3.2-17.3,4.7A29.5,29.5,0,0,0,66.6,113c-.7,2.8-1.1,5.8-1.6,8.7-.8,0-1-.7-1.3-1.1a76.5,76.5,0,0,1-3.8-8.2A130,130,0,0,1,55.6,95a27.7,27.7,0,0,1-.8-7.6c.1-4.2,0-8.4.1-12.5C54.9,73.8,54.7,72.6,55.7,71.7Z"/><path class="b12e2ff3-7cd4-4d96-8778-5b31e1f2918a" d="M47.1,94.1a3.3,3.3,0,0,0-2.3,1c-1.2,1.5-2.8,1.6-4.6,1.6s-5.1-.3-7.6.3A2.3,2.3,0,0,1,30,95.9a7.8,7.8,0,0,0-2.7-2.7c0-3.8-.2-7.7,0-11.6a55.5,55.5,0,0,1,3-15,17.7,17.7,0,0,1,5.3-7.1,1.6,1.6,0,0,1,2.7.9c.1.8.1,1.7.2,2.6v7.7a2.2,2.2,0,0,0,.7,2.1c.2-2.9,0-5.6.1-8.3s-.3-2.9.8-4.1a1.7,1.7,0,0,1,.6.6c.5,1.5,4.6,8.2,5.6,9v9.4a40.7,40.7,0,0,0,.6,9.2A25.3,25.3,0,0,1,47.1,94.1Z"/><path class="b40d0a1f-771f-4582-a0b4-c896794b3e2c" d="M46.3,70a9.6,9.6,0,0,0-3.7-.9c-2.2-.2-2.3-.4-2.4-2.7s0-4-.1-6a21.5,21.5,0,0,1,1.1-7.1,20.4,20.4,0,0,1,9.2-12.5c1.1-.6,2.3-1.5,3.6-.3s.8,2.2.5,3.5a52.2,52.2,0,0,1-3.8,10.9A40.2,40.2,0,0,0,46.9,68,6.6,6.6,0,0,1,46.3,70Z"/><path class="bf20e88c-0cc8-4e03-9b5a-b0e6a10f1711" d="M72,23.3h.5c2.1,0,4.1.4,4.6,2.8s.2,4.9-2.1,6.5c-4.3,3-8.8,5.6-12.7,9.3-1-1.4-.4-2.7-.7-3.9.7-3.5,1.4-6.9,3.4-10S68.7,23.4,72,23.3Z"/><path class="b655a108-37fd-4420-b21b-8d4e0fd0e63e" d="M90.9,8.8c1.1-1.1,2.3-.8,3.6-.7C93.5,9.2,92.2,8.8,90.9,8.8Z"/><path class="b655a108-37fd-4420-b21b-8d4e0fd0e63e" d="M97.9,8.1c1.3-.1,2.5-.4,3.6.7C100.2,8.8,98.9,9.2,97.9,8.1Z"/><path class="b655a108-37fd-4420-b21b-8d4e0fd0e63e" d="M84,9.6A2.7,2.7,0,0,1,86.7,9C86,9.9,85,9.7,84,9.6Z"/><path class="b655a108-37fd-4420-b21b-8d4e0fd0e63e" d="M105.7,9a2.5,2.5,0,0,1,2.6.6C107.4,9.7,106.4,9.9,105.7,9Z"/><path class="b655a108-37fd-4420-b21b-8d4e0fd0e63e" d="M122.9,13.2a1.7,1.7,0,0,1,1.7.8A1.7,1.7,0,0,1,122.9,13.2Z"/><path class="b655a108-37fd-4420-b21b-8d4e0fd0e63e" d="M110.8,9.8a1.9,1.9,0,0,1,1.9.7A1.8,1.8,0,0,1,110.8,9.8Z"/><path class="b655a108-37fd-4420-b21b-8d4e0fd0e63e" d="M78.9,10.5a1.8,1.8,0,0,1,1.8-.7A1.7,1.7,0,0,1,78.9,10.5Z"/><path class="b655a108-37fd-4420-b21b-8d4e0fd0e63e" d="M117.7,11.5a1.7,1.7,0,0,1,1.8.7A1.7,1.7,0,0,1,117.7,11.5Z"/><path class="b655a108-37fd-4420-b21b-8d4e0fd0e63e" d="M75.4,11.3l1-.6Z"/><path class="b655a108-37fd-4420-b21b-8d4e0fd0e63e" d="M115.1,10.7l1.1.6Z"/><path class="b655a108-37fd-4420-b21b-8d4e0fd0e63e" d="M121.2,12.5l.9.6Z"/><path class="aaf46617-b2ea-4d0d-81c9-5ea1e0d34822" d="M89.3,83.8l-.9-.9a51.6,51.6,0,0,1-.9-8.9,16.4,16.4,0,0,1,1.3-6.2,35.2,35.2,0,0,1,4.9-8.9l5.8-3.7c5.8-3.4,16.4-3.5,22.1-.1,2.1,1.3,3.6,3.3,5.6,4.6s2.1,4,2.8,6.2a12.6,12.6,0,0,1-4.4,13.8,6.9,6.9,0,0,1-4.4,1.5c-1.9,0-1.9,0-4.5-1.9.1-.8.8-.6,1.3-.7,3.2-.1,5.2-1.9,6.4-4.8,1.9-4.5,1-6.9-3.5-10s-7.8-2.7-11.9-2.3a8.7,8.7,0,0,0-3.2,1.1c-4.9,2.9-8,6.7-8,12.7,0,2.6.8,5.1.9,7.6-.3-.1-.7-.5-1.1-.5C94.8,82.7,91.9,82.4,89.3,83.8Z"/><path class="e036d41a-b42d-403a-8a14-8c853cb58b56" d="M93.3,101.9a7.6,7.6,0,0,1,7,2.8c2.4,2.7,2.3,4.5.2,7.7a6.5,6.5,0,0,1-5.3,3.2c-3.2.2-6.2,1-9.4,1s-5.6.8-8.5,1.2l-2.1.4a1,1,0,0,1-1-1.4c1.7-4.3,3.9-8.3,7.6-11.3A18.4,18.4,0,0,1,93.3,101.9Z"/><path class="f822c09e-a52e-4d51-8f93-ade59aad8a30" d="M151.4,126a1.7,1.7,0,0,1,.8-1.8A1.9,1.9,0,0,1,151.4,126Z"/><path class="f822c09e-a52e-4d51-8f93-ade59aad8a30" d="M149.6,128.6l.9-.9Z"/><path class="f822c09e-a52e-4d51-8f93-ade59aad8a30" d="M147.1,132l.8-.9Z"/><path class="f822c09e-a52e-4d51-8f93-ade59aad8a30" d="M140.1,138.9l.9-.8Z"/><path class="f822c09e-a52e-4d51-8f93-ade59aad8a30" d="M139.2,139.7l.9-.8Z"/><path class="f822c09e-a52e-4d51-8f93-ade59aad8a30" d="M135.8,142.3l.9-.8Z"/><path class="f822c09e-a52e-4d51-8f93-ade59aad8a30" d="M130.6,145.8l.9-.8Z"/><path class="f822c09e-a52e-4d51-8f93-ade59aad8a30" d="M128.9,146.6l.9-.8Z"/><path class="f822c09e-a52e-4d51-8f93-ade59aad8a30" d="M127.2,147.5l.9-.8Z"/><path class="f822c09e-a52e-4d51-8f93-ade59aad8a30" d="M125.5,148.4l.9-.8Z"/><path class="f822c09e-a52e-4d51-8f93-ade59aad8a30" d="M123.8,149.2l.8-.8Z"/></svg>