<svg id="f1410380-53d6-4257-9d6c-9ff17b0c4416" data-name="Layer 1" xmlns="http://www.w3.org/2000/svg" viewBox="0 0 194.1 173.4"><defs><style>.a151bf89-ba43-4077-9465-7317513903b4{fill:#c6211d;}.e158a74d-6573-450f-a90a-21dfda14d855{fill:#d8481f;}.b15853a1-b074-4c3e-87c7-99f963a50d7e{fill:#790101;}.efce715a-2e89-4ff9-a290-2aa368120c8a{fill:#f16e20;}.aacede42-df98-4c05-8173-5b5ea04a6340{fill:#dd5020;}.fbfefebf-75bf-439c-adc0-6ec8297bb057{fill:#670000;}.ad100e6a-2a3c-4623-a06b-6d471a2e46cc{fill:#dc4c20;}.ba07bf13-76ab-481e-81ae-bef0a42a0ecc{fill:#ce311e;}.fbf9a9f9-e106-480e-b006-00b9fbee1359{fill:#c9241c;}.abd18cf3-1a56-4be9-b0cd-335d0b8c3370{fill:#9a090c;}.e592906e-684a-455f-8acd-af31ca6e0a5c{fill:#ef6b21;}.a7ca8fdd-7737-485a-afd7-2688482c55f9{fill:#be141a;}</style></defs><path class="a151bf89-ba43-4077-9465-7317513903b4" d="M160.1,143.1a38.6,38.6,0,0,1-8.2,8.9c-11.6,9.5-24.3,16.7-39.2,19.4-20.5,3.6-40.1,1.4-58.4-8.8a12.4,12.4,0,0,1-3.3-2.1,2.4,2.4,0,0,0-.9-.8h0c.2-2.3,2.1-1.9,3.4-1.8a6,6,0,0,0,4.7-1.2c2-.3,3.6.6,5.4,1.3,29.8,11.9,57.5,8.6,82.6-12.1a13.6,13.6,0,0,1,5.2-3C154.3,142.9,157.2,140.8,160.1,143.1Z"/><path class="e158a74d-6573-450f-a90a-21dfda14d855" d="M50.1,159.7a1,1,0,0,1,.9.8A.9.9,0,0,1,50.1,159.7Z"/><path class="b15853a1-b074-4c3e-87c7-99f963a50d7e" d="M17.1,83.7v8.1A10.8,10.8,0,0,1,17.1,83.7Z"/><path class="b15853a1-b074-4c3e-87c7-99f963a50d7e" d="M18,75v5.1a2.2,2.2,0,0,1-.8,1.9C17.3,79.7,16.7,77.2,18,75Z"/><path class="b15853a1-b074-4c3e-87c7-99f963a50d7e" d="M18.8,69.7c.1,1,.3,2-.6,2.7A2.7,2.7,0,0,1,18.8,69.7Z"/><path class="b15853a1-b074-4c3e-87c7-99f963a50d7e" d="M17,93.1c0,1,.1,2,.1,3A2,2,0,0,1,17,93.1Z"/><path class="b15853a1-b074-4c3e-87c7-99f963a50d7e" d="M23.2,55.9a1.9,1.9,0,0,1-.8,1.8A1.9,1.9,0,0,1,23.2,55.9Z"/><path class="b15853a1-b074-4c3e-87c7-99f963a50d7e" d="M19.7,66.2a1.8,1.8,0,0,1-.7,1.9A2,2,0,0,1,19.7,66.2Z"/><path class="b15853a1-b074-4c3e-87c7-99f963a50d7e" d="M20.6,62.8a2,2,0,0,1-.7,1.8A1.9,1.9,0,0,1,20.6,62.8Z"/><path class="b15853a1-b074-4c3e-87c7-99f963a50d7e" d="M21.5,60.2a2,2,0,0,1-.7,1.8A1.9,1.9,0,0,1,21.5,60.2Z"/><path class="b15853a1-b074-4c3e-87c7-99f963a50d7e" d="M22.3,58.3l-.6,1.1Z"/><path class="a151bf89-ba43-4077-9465-7317513903b4" d="M151.4,143.1a.8.8,0,0,1,.6-.8Z"/><path class="efce715a-2e89-4ff9-a290-2aa368120c8a" d="M11,101.3c-1.4-3.8-1.4-7.9-1.5-11.9-.3-24.1,7.6-44.9,24.3-62.3C43.7,16.7,55.3,9,69.1,4.8A90,90,0,0,1,106,1.7a82.9,82.9,0,0,1,47.7,21.9,84.4,84.4,0,0,1,26.8,51.3,75.1,75.1,0,0,1,.3,22.2,6.7,6.7,0,0,1-.7,2.4,12.6,12.6,0,0,1-4.6,4.3c-1.7.9-2.9.5-3.5-1.5a11.3,11.3,0,0,1-.1-2.6,10.9,10.9,0,0,1,.3-2.6,11.8,11.8,0,0,0,.5-3.1,23.4,23.4,0,0,1,.3-3.8,6.9,6.9,0,0,0,0-4.9,16.7,16.7,0,0,1-.3-3.8,12.4,12.4,0,0,0-.5-3.8,15.3,15.3,0,0,1-.3-3,12.6,12.6,0,0,0-.4-2.8,5,5,0,0,1-.3-1.6c-.2-.7-.3-1.4-.5-2.1a8.3,8.3,0,0,1-.4-1.5,12.9,12.9,0,0,0-.4-1.9l-.3-.9-.6-1.8-.3-.9-.5-1.4a3.6,3.6,0,0,0-.4-.9l-.6-1.2-.3-.9a6.5,6.5,0,0,0-.4-1.3l-.3-.8-.6-1.2-.3-.7-.6-1.2a2.5,2.5,0,0,1-.4-.7c-.1-.3-.3-.5-.4-.8s-.3-.5-.4-.8a3,3,0,0,0-.4-.8,5.9,5.9,0,0,0-.4-.8l-.4-.7-.6-.7-.5-.7c-.1-.3-.3-.5-.4-.8l-.5-.7-.2-.3-.6-.7a3,3,0,0,0-.4-.8l-.4-.7-.3-.4-.7-.6-.3-.3-.7-.8a8.3,8.3,0,0,1-.8-1.2,5.6,5.6,0,0,1-.5-.8l-.3-.3-.5-.7-.3-.3-.6-.7c0,.1-.3-.3-.3-.3s-.4-.4-.6-.6l-.3-.3a1.7,1.7,0,0,1-.6-.6c0,.1-.3-.3-.3-.2l-.6-.6-.3-.3-.6-.6s-.2-.3-.3-.3l-.5-.6-.3-.3-.6-.6-.3-.3-.6-.6c0,.1-.3-.3-.3-.2l-.6-.6-.3-.3-.6-.6-.4-.2-.7-.4-.8-.5-.6-.5-.4-.4-.6-.5-.4-.3-.8-.5-1.4-1.1c-.3-.1-.5-.4-.7-.6l-.4-.2-.7-.5-.8-.5-.8-.6-.3-.2-1.3-.7-1-.5-1.1-.4-1.1-.5C107.9,6.7,84.3,6.7,60.5,17.6l-1.1.5-1,.4-.9.4-1.3.6-.7.5-.7.5-.8.4-.7.4-.8.4-.7.4-.7.5-.6.6-.3.3a1.8,1.8,0,0,1-.7.5l-.8.5-.7.4-.3.3-.7.7-.3.3-.7.7-1.2.8-.8.5-.3.2L43,29l-.3.3-.7.6c.1,0-.3.3-.3.3l-.6.6-.3.3-.6.6-.3.3a1.7,1.7,0,0,1-.6.6c.1,0-.3.3-.2.3l-.6.6-.3.3-.6.6-.2.3-.4.8-.5.7a1.8,1.8,0,0,1-.5.7l-.3.3-.7.7-.3.3-.6.6a.5.5,0,0,1-.2.4l-.6.9a5.1,5.1,0,0,1-.9,1.3l-.6.7-.3.4-.5.7a3.5,3.5,0,0,1-.5.8l-.5.7-.3.3a4.3,4.3,0,0,1-.4.7l-.4.8a4.1,4.1,0,0,0-.6,1.1,2.2,2.2,0,0,1-.5.8l-.5.7-.2.3-.5.7a1.6,1.6,0,0,1-.4.7L25.6,52l-.3.8a3,3,0,0,0-.4.8,3,3,0,0,0-.4.8l-.6,1.2a3,3,0,0,1-.4.8,6.5,6.5,0,0,1-.4,1.3l-.3.9-.6,1.3-.3.8a12.1,12.1,0,0,0-.5,1.4l-.3,1a10.5,10.5,0,0,0-.5,1.9,8,8,0,0,1-.3,1.5,11.7,11.7,0,0,0-.5,2,9.4,9.4,0,0,1-.4,1.6A25.4,25.4,0,0,0,19,73a9.9,9.9,0,0,1-.3,2.4c-.7,2.1-.3,4.3-.5,6.5a6.3,6.3,0,0,1-.3,1.9,16.8,16.8,0,0,0-.2,7.4,5.9,5.9,0,0,1,.1,1.9,5.6,5.6,0,0,0,.1,3.4,5.1,5.1,0,0,1-.1,3c-.9,1.9-2.6,1.9-3.9.8S11.8,100.7,11,101.3Z"/><path class="e158a74d-6573-450f-a90a-21dfda14d855" d="M58,157.1c0,.7.1,1.5-.4,2a2.3,2.3,0,0,1-2.4.3,18.3,18.3,0,0,0-2.5-.6,2.6,2.6,0,0,0-2.6.9,64.1,64.1,0,0,1-19.2-15.9c-9.5-11.2-16.3-23.7-19.4-38.2a15.4,15.4,0,0,1-.5-4.3c0-1.2.1-2.4.2-3.8,1.7.2,2.3,1.8,3.5,2.4a1.6,1.6,0,0,0,2.5-.5c2.1.3,1.8,2.1,2.1,3.3,4.8,22,17,38.7,35.5,51.1C56,154.7,57.6,155.3,58,157.1Z"/><path class="aacede42-df98-4c05-8173-5b5ea04a6340" d="M160.1,143.1a17,17,0,0,0-5,.5,18.4,18.4,0,0,1-4.1.3,1.4,1.4,0,0,1-.1-1.1l.9-1.6c6.6-7.7,12.3-15.9,15.9-25.5a9.4,9.4,0,0,0,.6-1.5l.6-1.5a7.8,7.8,0,0,1,.5-1.4c.1-.5.3-1,.4-1.5a10.5,10.5,0,0,0,.5-1.9,8.3,8.3,0,0,1,.4-1.5,15.5,15.5,0,0,0,.4-2.1,4,4,0,0,1,.7-2.1,1,1,0,0,1,1-.3c.8,1.9,1.1,2.1,2.3,1.1a24.9,24.9,0,0,1,5-3.5,8.9,8.9,0,0,1-.4,3.6,13.3,13.3,0,0,0-.5,1.9c0,2.9-1,5.7-1.9,8.4a80.2,80.2,0,0,1-16.2,28.9Z"/><path class="efce715a-2e89-4ff9-a290-2aa368120c8a" d="M179.2,105a1.7,1.7,0,0,1,.5-1.9A2,2,0,0,1,179.2,105Z"/><path class="fbfefebf-75bf-439c-adc0-6ec8297bb057" d="M172.1,102.2a24.6,24.6,0,0,1-.2,2.6c-.4.5-.2,1.3-.6,1.8s-.1,1.1-.2,1.6-.3,1.3-.7,1.9a8.8,8.8,0,0,0-.2,1.6,3,3,0,0,0-.6,1.1l-.3,1.5-.6,1.1a8.9,8.9,0,0,1-1.1,3.6A78.9,78.9,0,0,1,154,140c-.7.8-1.3,1.6-2,2.3a1.6,1.6,0,0,0-.6.8,3,3,0,0,0-.4.8c-3.1,1.5-5.2,4.2-7.9,6.1a77.7,77.7,0,0,1-33.3,14.8,86.3,86.3,0,0,1-23.8.7,68,68,0,0,1-22.8-6.3L58,157.1c-9.3-5-16.8-12.3-23.8-20.1a52.5,52.5,0,0,1-6.3-9.3,80.6,80.6,0,0,1-9.8-25.9,4.4,4.4,0,0,0-.9-2.4c0-1.1-.1-2.2-.1-3.3a3.2,3.2,0,0,1-.1-3V91.8a18.4,18.4,0,0,1,0-8.1V82c1-2.2-.2-4.7.8-7l.2-2.6c.5-.8,0-1.9.6-2.7a8.8,8.8,0,0,0,.2-1.6c.4-.6.3-1.3.7-1.9a8.8,8.8,0,0,1,.2-1.6c.4-.5.2-1.3.7-1.8l.2-.8c.4-.5.2-1.3.7-1.8l.2-.8a6,6,0,0,0,.6-1.1.6.6,0,0,1,.1-.6c.5-.5.3-1.3.8-1.8a2.9,2.9,0,0,0,.2-.9l.7-.9a.8.8,0,0,1,.2-.8l.6-1a1.3,1.3,0,0,1,.3-.8l.6-.9a1.1,1.1,0,0,1,.3-.8,2.4,2.4,0,0,1,.6-.9h0a1.8,1.8,0,0,0,.8-1.1c0-.3,0-.5.2-.6a5.2,5.2,0,0,0,.7-1.1,1.1,1.1,0,0,1,.3-.7c.1-.3.4-.5.6-.8h.1a2.6,2.6,0,0,0,.7-1.1.9.9,0,0,1,.3-.7,2.3,2.3,0,0,1,.7-.7h0a3.9,3.9,0,0,0,.8-1A16.3,16.3,0,0,1,33,39.3a2.3,2.3,0,0,1,.7-.7h0l.8-.9h0c.3-.3.7-.5.9-.9h-.1a1.4,1.4,0,0,0,.9-1.1.6.6,0,0,1,.3-.6,1.2,1.2,0,0,1,.7-.7h.1a1.6,1.6,0,0,1,.8-.8h0a3,3,0,0,1,.8-.8H39l.8-.8h0l.9-.8h0a3,3,0,0,1,.8-.8h.1a3,3,0,0,1,.8-.8h.1a1.9,1.9,0,0,1,.8-.7h.1a1.2,1.2,0,0,1,.7-.7l1.5-1.2a1.8,1.8,0,0,0,1.1-.8h0l.9-.8h.1a1.4,1.4,0,0,1,.8-.7.6.6,0,0,1,.6-.3,1.8,1.8,0,0,0,1.1-.8h0l.9-.7h.1c.4-.6,1.2-.4,1.6-1h0l.9-.7.6-.2a2.1,2.1,0,0,0,1.1-.7h.1c.4-.5,1.2-.3,1.7-.9h-.1l.9-.6a1.3,1.3,0,0,1,.8-.3c1.7-.2,1.1.9.8,1.6s-2.4,2.4-3.8,3.4C34.9,38,23.9,58.5,24.4,84.7c.2,10.5,3.6,20.2,7.6,29.8.4.9.8,2.1,2,2.1s1.6-1.5,2-2.5a31.3,31.3,0,0,1,4-7.7c1.1-1.5,2.3-3.1,4.4-3.1a6,6,0,0,1,3.5,2.5c6.9,8.5,15.3,15.8,22.9,23.7a81.3,81.3,0,0,1,12.8,19c1.8,3.8,2.3,3.9,5.8,1.7l2.5-1.7c1.3-.7,2.5-2.5,4.2-1.8s-.2,2.9.7,4.4a68.7,68.7,0,0,0,22.6-22.9c2.2-3,3.7-6.5,5.5-9.7.5-1.1,1.1-2.8,2.6-2.3s1.3,2.1,1.3,3.4c0,3.2-1.1,6.2-1.8,9.2a133.4,133.4,0,0,1-9.8,20.6c15.1-6.1,28.3-13.8,31.9-31.3.3-2,.5-4,1.9-5.6s2.8,1,3.7,2.3c2.1,2.8,2.7,2.9,4.2-.3,5.6-12.1,9-24.8,7.6-38.3-1.9-17.9-9-33.4-22.2-45.9-3.1-3-6.7-5.5-10.1-8.2-1.1-.9-2.9-1.7-1.9-3.8,0-.1.2-.1.3-.1l.4.2a1.1,1.1,0,0,1,.8.3l.9.6h0c.4.6,1.2.4,1.6.9h.1l1,.7a1.1,1.1,0,0,1,.8.3,1.6,1.6,0,0,1,.7.7h.1a3.9,3.9,0,0,0,1,.8l1.6,1,.9.8h0l.9.8h0a1.8,1.8,0,0,0,1.1.8.7.7,0,0,1,.6.3,1.6,1.6,0,0,1,.7.7h.1a2.3,2.3,0,0,1,.9.8h0l.9.8h0l.9.9h0a3.4,3.4,0,0,0,.9.8h0a2,2,0,0,0,.9.9h-.1l.9.9h0l.9.9h0a2,2,0,0,0,.9.9h0l.8.9h0l.9.9h0l.8.9h0a1.8,1.8,0,0,1,.7.8l1.2,1.5a1.8,1.8,0,0,0,.8,1.1h0l.7.9h.1a1.2,1.2,0,0,1,.6.8c.2.1.3.4.4.6a2.1,2.1,0,0,0,.7,1.1h0a1.8,1.8,0,0,1,.7.8.9.9,0,0,1,.3.7l.7,1.1h.1c.5.4.4,1.3.9,1.7h0a4.7,4.7,0,0,1,.6.9,1.1,1.1,0,0,1,.3.8l.6,1a.9.9,0,0,1,.3.7l.6,1a.8.8,0,0,1,.2.8,8.6,8.6,0,0,1,.7,1l.2.8c.5.5.3,1.3.8,1.8a.7.7,0,0,1,.1.6,2.9,2.9,0,0,0,.6,1.1.8.8,0,0,1,.2.8c.5.5.3,1.3.7,1.8a1.2,1.2,0,0,1,.2.8c.5.6.3,1.3.7,1.8s.1.6.2.9.3,1.2.6,1.7l.3,1.7c.4.5.3,1.3.6,1.8a11.1,11.1,0,0,1,.2,1.7c.7.8.2,1.9.7,2.7s.2,2.2.2,3.3,0,2.5.7,3.7a11.7,11.7,0,0,1,.2,4.2,7.5,7.5,0,0,1,0,4.7,11.9,11.9,0,0,1-.2,4.2c-.6.9-.1,1.9-.7,2.8l-.2,2.4C172.2,100.3,172.9,101.4,172.1,102.2Z"/><path class="b15853a1-b074-4c3e-87c7-99f963a50d7e" d="M44.8,103.9a3.9,3.9,0,0,0-2.9,1.7,22.5,22.5,0,0,0-3.8,6.3l-1.9,4.8c-.3,1-.8,2.1-1.9,2.2s-1.8-1.1-2.4-2.1a11.3,11.3,0,0,1-1.3-2.7L25.5,99.8c-.5-1.7-.7-3.4-1.1-5.1a60.7,60.7,0,0,1-1.1-18.5,79.7,79.7,0,0,1,6.8-25.4c2.1-4.5,5.1-8.5,7.8-12.5s6.8-8,10.6-11.5,5.7-4.4,8.6-6.6a15.6,15.6,0,0,0,2-1.6c.3-.4.1-.8-.3-1.1,2.1-1.9,4.9-2.5,7.4-3.5,9.1-3.5,18.6-5.8,28.3-5.8a79.4,79.4,0,0,1,37.2,9.2,4.1,4.1,0,0,1,1.3,1,.8.8,0,0,0,0,1.4c1.6,1.2,3.1,2.5,4.8,3.7a60.4,60.4,0,0,1,12,10.6,90.3,90.3,0,0,1,7.3,10.2,71.1,71.1,0,0,1,8.5,20.3,75.4,75.4,0,0,1,2,25,65.4,65.4,0,0,1-3.6,15.6c-1.1,3-2.3,5.9-3.6,8.8a20.5,20.5,0,0,1-2,3.9,2.3,2.3,0,0,1-2.1,1.3c-1-.1-1.4-.9-1.6-1.8a7.6,7.6,0,0,0-3.4-4.8,3,3,0,0,1-1.2-2.6c.2-5.8-1.6-11.3-2.3-16.9,3.1-7.4,5.1-14.9,5-23.1-.6-32-27.3-55.2-52.3-56.7-34-1.9-56.7,20.2-61.9,49-.9,5.4-.2,10.9.6,16.4-.3,8.1-.1,16.1,5.3,22.8A2,2,0,0,1,44.8,103.9Z"/><path class="b15853a1-b074-4c3e-87c7-99f963a50d7e" d="M173.9,90.1V85.4A4.4,4.4,0,0,1,173.9,90.1Z"/><path class="b15853a1-b074-4c3e-87c7-99f963a50d7e" d="M173.7,81.2c-1.1-1.1-.7-2.4-.7-3.7C174,78.6,173.8,79.9,173.7,81.2Z"/><path class="b15853a1-b074-4c3e-87c7-99f963a50d7e" d="M173,97.1c0-1-.2-2,.7-2.8A3.2,3.2,0,0,1,173,97.1Z"/><path class="b15853a1-b074-4c3e-87c7-99f963a50d7e" d="M172.1,102.2c0-1-.2-2,.7-2.7v2.4Z"/><path class="b15853a1-b074-4c3e-87c7-99f963a50d7e" d="M172.8,74.2c-.9-.7-.7-1.7-.7-2.7A3,3,0,0,1,172.8,74.2Z"/><path class="b15853a1-b074-4c3e-87c7-99f963a50d7e" d="M52.8,21a1.8,1.8,0,0,1-1.6,1A1.6,1.6,0,0,1,52.8,21Z"/><path class="b15853a1-b074-4c3e-87c7-99f963a50d7e" d="M167.7,56.8a1.8,1.8,0,0,1-.8-1.8A2.1,2.1,0,0,1,167.7,56.8Z"/><path class="b15853a1-b074-4c3e-87c7-99f963a50d7e" d="M136.3,20.2a1.5,1.5,0,0,1-1.6-.9A1.7,1.7,0,0,1,136.3,20.2Z"/><path class="b15853a1-b074-4c3e-87c7-99f963a50d7e" d="M57.2,18.4a1.8,1.8,0,0,1-1.7.9A1.8,1.8,0,0,1,57.2,18.4Z"/><path class="b15853a1-b074-4c3e-87c7-99f963a50d7e" d="M163.4,48.1a1.8,1.8,0,0,1-.9-1.7A1.9,1.9,0,0,1,163.4,48.1Z"/><path class="b15853a1-b074-4c3e-87c7-99f963a50d7e" d="M171.9,69.8a1.7,1.7,0,0,1-.6-1.8A2,2,0,0,1,171.9,69.8Z"/><path class="b15853a1-b074-4c3e-87c7-99f963a50d7e" d="M171,66.3a1.6,1.6,0,0,1-.6-1.7A1.8,1.8,0,0,1,171,66.3Z"/><path class="b15853a1-b074-4c3e-87c7-99f963a50d7e" d="M170.2,63.7a2,2,0,0,1-.7-1.8A1.9,1.9,0,0,1,170.2,63.7Z"/><path class="b15853a1-b074-4c3e-87c7-99f963a50d7e" d="M169.3,61.1a1.9,1.9,0,0,1-.7-1.8A1.9,1.9,0,0,1,169.3,61.1Z"/><path class="b15853a1-b074-4c3e-87c7-99f963a50d7e" d="M147.7,28.9l-.9-.8A1.1,1.1,0,0,1,147.7,28.9Z"/><path class="b15853a1-b074-4c3e-87c7-99f963a50d7e" d="M43.3,28.2l-.8.7A.9.9,0,0,1,43.3,28.2Z"/><path class="b15853a1-b074-4c3e-87c7-99f963a50d7e" d="M146.8,28.1l-.9-.8A1.1,1.1,0,0,1,146.8,28.1Z"/><path class="b15853a1-b074-4c3e-87c7-99f963a50d7e" d="M44.1,27.4l-.7.7C43.5,27.7,43.7,27.4,44.1,27.4Z"/><path class="b15853a1-b074-4c3e-87c7-99f963a50d7e" d="M145.8,27.2l-.7-.7A.8.8,0,0,1,145.8,27.2Z"/><path class="b15853a1-b074-4c3e-87c7-99f963a50d7e" d="M144.5,26.2a1.2,1.2,0,0,1-1.1-.8Z"/><path class="b15853a1-b074-4c3e-87c7-99f963a50d7e" d="M46.7,25.4a1.2,1.2,0,0,1-1.1.8Z"/><path class="b15853a1-b074-4c3e-87c7-99f963a50d7e" d="M143.4,25.4l-.9-.8A1,1,0,0,1,143.4,25.4Z"/><path class="b15853a1-b074-4c3e-87c7-99f963a50d7e" d="M47.6,24.6l-.9.8A1,1,0,0,1,47.6,24.6Z"/><path class="b15853a1-b074-4c3e-87c7-99f963a50d7e" d="M142.5,24.6l-.9-.8A1.1,1.1,0,0,1,142.5,24.6Z"/><path class="b15853a1-b074-4c3e-87c7-99f963a50d7e" d="M48.5,23.9a2.7,2.7,0,0,0-.8.7A.8.8,0,0,1,48.5,23.9Z"/><path class="b15853a1-b074-4c3e-87c7-99f963a50d7e" d="M50.2,22.8a1.3,1.3,0,0,1-1.1.8Z"/><path class="b15853a1-b074-4c3e-87c7-99f963a50d7e" d="M140,22.8l-1-.8Z"/><path class="b15853a1-b074-4c3e-87c7-99f963a50d7e" d="M51.1,22.1l-.9.7A.8.8,0,0,1,51.1,22.1Z"/><path class="b15853a1-b074-4c3e-87c7-99f963a50d7e" d="M138.9,22l-.7-.7C138.6,21.3,138.8,21.6,138.9,22Z"/><path class="b15853a1-b074-4c3e-87c7-99f963a50d7e" d="M137.4,21l-1-.7Z"/><path class="b15853a1-b074-4c3e-87c7-99f963a50d7e" d="M53.7,20.3l-.9.7C52.9,20.6,53.2,20.4,53.7,20.3Z"/><path class="b15853a1-b074-4c3e-87c7-99f963a50d7e" d="M55.4,19.4a1.2,1.2,0,0,1-1.1.7Z"/><path class="b15853a1-b074-4c3e-87c7-99f963a50d7e" d="M134.7,19.3l-.9-.6A.9.9,0,0,1,134.7,19.3Z"/><path class="b15853a1-b074-4c3e-87c7-99f963a50d7e" d="M58,17.8l-.9.6A1,1,0,0,1,58,17.8Z"/><path class="b15853a1-b074-4c3e-87c7-99f963a50d7e" d="M158.2,40.2a1.1,1.1,0,0,1-.8-1.1A4.4,4.4,0,0,0,158.2,40.2Z"/><path class="b15853a1-b074-4c3e-87c7-99f963a50d7e" d="M158.9,41.1l-.7-.9A1.1,1.1,0,0,1,158.9,41.1Z"/><path class="b15853a1-b074-4c3e-87c7-99f963a50d7e" d="M31.9,41l-.8,1Z"/><path class="b15853a1-b074-4c3e-87c7-99f963a50d7e" d="M159.6,42l-.6-.8A.7.7,0,0,1,159.6,42Z"/><path class="b15853a1-b074-4c3e-87c7-99f963a50d7e" d="M31.1,42.1l-.7.7C30.4,42.4,30.7,42.2,31.1,42.1Z"/><path class="b15853a1-b074-4c3e-87c7-99f963a50d7e" d="M160.7,43.7l-.7-1.1Z"/><path class="b15853a1-b074-4c3e-87c7-99f963a50d7e" d="M30.1,43.5a1.2,1.2,0,0,1-.7,1.1Z"/><path class="b15853a1-b074-4c3e-87c7-99f963a50d7e" d="M161.4,44.6a2.7,2.7,0,0,0-.7-.8A.8.8,0,0,1,161.4,44.6Z"/><path class="b15853a1-b074-4c3e-87c7-99f963a50d7e" d="M29.3,44.6l-.6.8Z"/><path class="b15853a1-b074-4c3e-87c7-99f963a50d7e" d="M162.4,46.4l-.7-1.1Z"/><path class="b15853a1-b074-4c3e-87c7-99f963a50d7e" d="M28.4,46.1l-.7,1.1Z"/><path class="b15853a1-b074-4c3e-87c7-99f963a50d7e" d="M33.7,38.6l-.7.7C33,38.9,33.3,38.7,33.7,38.6Z"/><path class="b15853a1-b074-4c3e-87c7-99f963a50d7e" d="M27.5,47.8a1.3,1.3,0,0,1-.8,1.1A10.5,10.5,0,0,0,27.5,47.8Z"/><path class="b15853a1-b074-4c3e-87c7-99f963a50d7e" d="M164,48.9l-.6-.9A1,1,0,0,1,164,48.9Z"/><path class="b15853a1-b074-4c3e-87c7-99f963a50d7e" d="M26.7,48.9l-.6.9Z"/><path class="b15853a1-b074-4c3e-87c7-99f963a50d7e" d="M164.9,50.7l-.6-1Z"/><path class="b15853a1-b074-4c3e-87c7-99f963a50d7e" d="M25.8,50.6l-.6.9Z"/><path class="b15853a1-b074-4c3e-87c7-99f963a50d7e" d="M165.8,52.4l-.6-1Z"/><path class="b15853a1-b074-4c3e-87c7-99f963a50d7e" d="M24.9,52.3l-.6,1Z"/><path class="b15853a1-b074-4c3e-87c7-99f963a50d7e" d="M166.7,54.2l-.7-1Z"/><path class="b15853a1-b074-4c3e-87c7-99f963a50d7e" d="M24.1,54.1l-.7.9Z"/><path class="b15853a1-b074-4c3e-87c7-99f963a50d7e" d="M168.4,58.5l-.6-1.1Z"/><path class="b15853a1-b074-4c3e-87c7-99f963a50d7e" d="M34.5,37.6l-.8.9A1.1,1.1,0,0,1,34.5,37.6Z"/><path class="b15853a1-b074-4c3e-87c7-99f963a50d7e" d="M156.2,37.6l-.7-.8A.8.8,0,0,1,156.2,37.6Z"/><path class="b15853a1-b074-4c3e-87c7-99f963a50d7e" d="M35.4,36.7a2,2,0,0,1-.9.9A1.1,1.1,0,0,1,35.4,36.7Z"/><path class="b15853a1-b074-4c3e-87c7-99f963a50d7e" d="M155.5,36.8l-.8-.9A1.1,1.1,0,0,1,155.5,36.8Z"/><path class="b15853a1-b074-4c3e-87c7-99f963a50d7e" d="M36.2,35.6a1.4,1.4,0,0,1-.9,1.1Z"/><path class="b15853a1-b074-4c3e-87c7-99f963a50d7e" d="M154.7,35.9l-.9-.9C154.3,35.1,154.5,35.4,154.7,35.9Z"/><path class="b15853a1-b074-4c3e-87c7-99f963a50d7e" d="M153.8,35l-.8-.9A1.1,1.1,0,0,1,153.8,35Z"/><path class="b15853a1-b074-4c3e-87c7-99f963a50d7e" d="M37.2,34.3l-.7.7A.8.8,0,0,1,37.2,34.3Z"/><path class="b15853a1-b074-4c3e-87c7-99f963a50d7e" d="M153,34.1l-.9-.9A1.1,1.1,0,0,1,153,34.1Z"/><path class="b15853a1-b074-4c3e-87c7-99f963a50d7e" d="M38.1,33.4a3,3,0,0,0-.8.8A.9.9,0,0,1,38.1,33.4Z"/><path class="b15853a1-b074-4c3e-87c7-99f963a50d7e" d="M152.1,33.2l-.9-.9A1.3,1.3,0,0,1,152.1,33.2Z"/><path class="b15853a1-b074-4c3e-87c7-99f963a50d7e" d="M38.9,32.5l-.8.8A1,1,0,0,1,38.9,32.5Z"/><path class="b15853a1-b074-4c3e-87c7-99f963a50d7e" d="M151.2,32.4l-.9-.9A1.1,1.1,0,0,1,151.2,32.4Z"/><path class="b15853a1-b074-4c3e-87c7-99f963a50d7e" d="M39.8,31.6l-.8.8A1,1,0,0,1,39.8,31.6Z"/><path class="b15853a1-b074-4c3e-87c7-99f963a50d7e" d="M150.4,31.5l-.9-.9A1.3,1.3,0,0,1,150.4,31.5Z"/><path class="b15853a1-b074-4c3e-87c7-99f963a50d7e" d="M40.7,30.7l-.9.8A1.1,1.1,0,0,1,40.7,30.7Z"/><path class="b15853a1-b074-4c3e-87c7-99f963a50d7e" d="M149.5,30.6l-.9-.8A1.1,1.1,0,0,1,149.5,30.6Z"/><path class="b15853a1-b074-4c3e-87c7-99f963a50d7e" d="M41.5,29.9l-.8.8A1,1,0,0,1,41.5,29.9Z"/><path class="b15853a1-b074-4c3e-87c7-99f963a50d7e" d="M148.6,29.8l-.9-.9A1.1,1.1,0,0,1,148.6,29.8Z"/><path class="b15853a1-b074-4c3e-87c7-99f963a50d7e" d="M42.4,29l-.8.8A1,1,0,0,1,42.4,29Z"/><path class="b15853a1-b074-4c3e-87c7-99f963a50d7e" d="M171.3,106.6a1.7,1.7,0,0,1,.6-1.8A1.6,1.6,0,0,1,171.3,106.6Z"/><path class="b15853a1-b074-4c3e-87c7-99f963a50d7e" d="M170.4,110.1a1.8,1.8,0,0,1,.7-1.9A1.9,1.9,0,0,1,170.4,110.1Z"/><path class="b15853a1-b074-4c3e-87c7-99f963a50d7e" d="M169.6,112.8l.6-1.1Z"/><path class="b15853a1-b074-4c3e-87c7-99f963a50d7e" d="M168.7,115.4l.6-1.1Z"/><path class="ad100e6a-2a3c-4623-a06b-6d471a2e46cc" d="M148.6,92.5a65,65,0,0,1,2.7,20.1c-.4,2-.8,4-1.1,6.1a6.9,6.9,0,0,1-3.5,3c-4.9,2.5-9.7,5-14.7,7.3-1.9.9-4,1.9-6,.1-.1-2.1.8-3.9,1.2-5.9a19.6,19.6,0,0,0,.4-6.4c-1.1.1-1.2.9-1.5,1.5-1.2,2.3-2.3,4.7-3.5,7a14.6,14.6,0,0,1-2.7,3.8c-2.8,1.9-6,2.2-9.1,2.7-12.6,2.4-25.2,1.2-37.8-.7a7.5,7.5,0,0,1-2.8-1.1c-3.2-2.4-6-5.5-8.9-8.3a231.7,231.7,0,0,1-16.5-17.8c-1.6-2.6-3.7-4.8-4.8-7.7s-2.3-6.5-2.1-10.1.2-4.9.2-7.4a.8.8,0,0,1,1.2.1c2.9,5.9,8.1,9.8,13.1,13.6a66.5,66.5,0,0,0,39.9,14c18.2.3,34.2-4.8,47.9-16.8a24.3,24.3,0,0,1,4.6-3.3C148.3,87,147.7,90.2,148.6,92.5Z"/><path class="ba07bf13-76ab-481e-81ae-bef0a42a0ecc" d="M70.2,130a61.5,61.5,0,0,1,15.4,1.5l2.6.2c4.3.1,8.6.3,12.9,0a137.1,137.1,0,0,0,14.1-2.1,35.6,35.6,0,0,1,4.7-.5,61.6,61.6,0,0,1-13.2,16c-3.1,2.6-6.4,4.9-9.6,7.3a3.7,3.7,0,0,1-1.5.8.7.7,0,0,1-.9-.7,10.5,10.5,0,0,1,.4-1.7c.3-1.2.8-2.3,1.2-4l-6.4,4.4-2.2,1.4c-1.9,1-3.2.8-3.9-1.1C80.7,143.4,75.4,136.8,70.2,130Z"/><path class="fbf9a9f9-e106-480e-b006-00b9fbee1359" d="M126,129.1a11.2,11.2,0,0,0,6.2-1.3c5.9-3.1,12-6.1,18-9.1-1.6,8.5-6.2,15-12.7,20.5a57.1,57.1,0,0,1-18.8,10.5c-.9.3-1.8,1-2.9.4a4.2,4.2,0,0,1,.4-1.2,154.4,154.4,0,0,0,9.2-18.7A6,6,0,0,1,126,129.1Z"/><path class="abd18cf3-1a56-4be9-b0cd-335d0b8c3370" d="M148.6,92.5a13.5,13.5,0,0,1-2.6-4.7l-.9-1.4c-5.6-8.8-12.3-17-17-26.5a10.6,10.6,0,0,1-1.3-5.8c3.6-10.2-4.6-26.3-15.9-32.9-18.2-10.7-41.7.4-46.7,19.3A19.3,19.3,0,0,1,63,44.6c-.8,1.6-1.6,3.2-3.9,2.5s-2.1.3-3.1.9l-.8.7-.4.5a8.6,8.6,0,0,0-.7,1c-7.3,7.8-13,16.4-14.5,27.3a1.6,1.6,0,0,1-.8,1l-.7.2a69.7,69.7,0,0,1-1-12.1,37.4,37.4,0,0,1,1.3-9.4,68.6,68.6,0,0,1,7.7-17.8,57.8,57.8,0,0,1,10-12.5A52.9,52.9,0,0,1,65.5,20a61.8,61.8,0,0,1,21.6-7.5c2.8-.5,5.7,0,8.5-1h.5c4.5.7,9.1,1,13.6,2.1a43.3,43.3,0,0,1,11.4,4.1c4.6,2.7,9.2,5.4,13,9.3,2.2,2.3,4.6,4.4,6.6,6.8a51.4,51.4,0,0,1,8.5,14,54.2,54.2,0,0,1,4.4,17.6c.7,7.6.7,15.3-2.4,22.6A27.9,27.9,0,0,1,148.6,92.5Z"/><path class="e592906e-684a-455f-8acd-af31ca6e0a5c" d="M127.6,54.3A27.9,27.9,0,0,0,132,65c2.9,4.5,5.9,8.9,9,13.3a34.3,34.3,0,0,1,4.1,8.1c-.2.5-.3,1.2-.7,1.5-4.1,2.6-7.5,6.2-11.7,8.9a71.9,71.9,0,0,1-24.8,9.8,65.7,65.7,0,0,1-11.7.7H89.7c-7.1.3-13.7-1.7-20.3-4s-11.7-5.7-17-9.4A85.5,85.5,0,0,1,40.2,82.9c-1.3-1.3-1.3-2.8-1.4-4.4.2-8.2,3.6-15.2,8.4-21.6,2-2.8,4.3-5.3,6.5-8l.8-.8h.1l.9-.7c1.2-.5,1.8-2,3.4-1.8A17.5,17.5,0,0,1,61,53.3,37.5,37.5,0,0,0,74.9,79.9C79,83.3,83.3,86.5,87.6,90c-1.7-3.4-4.3-5.8-6.8-8.4-5.9-6.2-10.2-13.2-11.3-22a24.7,24.7,0,0,1,1.4-12.4,52.6,52.6,0,0,1,18.7-24c1.4-1,2.9-2.3,4.7-1.4s1.3,2.8,1.4,4.3c1,9.6,3.1,18.9,7.8,27.4.6,1.2,1.1,3.1,2.8,3s1.5-1.9,2-3.1c2.4-6.3,6.3-11.7,10.1-17.2.9-1.5,2-3,4.1-2.5s1.9,2.4,2.1,3.9C125.4,43.2,126.9,48.7,127.6,54.3Z"/><path class="a7ca8fdd-7737-485a-afd7-2688482c55f9" d="M127.6,54.3a7.2,7.2,0,0,1-1.7-3.9,127.4,127.4,0,0,1-2.7-15,3,3,0,0,0-.7-1,1.4,1.4,0,0,0-1.6.3c-.1,0-.2.2-.3.3l-.3.3c-4.1,6-8.4,11.8-11,18.7-.4,1.2-1,2.4-1.5,3.6s-1.6,2-2.9.3a44,44,0,0,1-4.9-8.7,104,104,0,0,1-4.6-16.3,39.5,39.5,0,0,1-.8-9.1c0-1.5-1-2-2.3-1.1A53.4,53.4,0,0,0,72.6,45.9c-1.8,4-2.3,9.7-1.9,14,1,8.5,5.4,15.1,11.1,21.1,2.4,2.5,5,4.9,6.6,8a4.5,4.5,0,0,1,.9,2.5c-.1.2-.4.5-.5.5l-1.2-.6c-1.8-1.4-3.7-2.7-5.5-4.2-3.4-3.1-7.5-5.4-10.7-8.8-7.1-7.6-11.5-16.3-11.6-26.9-.1-2-.8-4-.9-6l1,.8c.3.3.7.5,1.1,0a6.8,6.8,0,0,0,1.4-3.1,33.9,33.9,0,0,1,8.4-16.8,33,33,0,0,1,8.7-6.5,35.9,35.9,0,0,1,20.1-4h.4c8.2,2.3,15.8,5.5,21.1,12.7,3.3,4.4,5.9,8.9,7,14.3C128.9,46.7,129.5,50.5,127.6,54.3Z"/><path class="a7ca8fdd-7737-485a-afd7-2688482c55f9" d="M55.5,47.3l-.9.7Z"/><path class="a7ca8fdd-7737-485a-afd7-2688482c55f9" d="M54.5,48.1l-.8.8Z"/></svg>