<svg id="a0d386dc-79b2-4c8c-94b3-48354ae38d43" data-name="Layer 1" xmlns="http://www.w3.org/2000/svg" viewBox="0 0 194.1 173.4"><defs><style>.ae4e2ac7-088e-401b-b1d9-d3b41c77067d{fill:#231d3a;}.b2becfef-f83e-4aeb-8962-274fe57e383b{fill:#504a71;}.b00df2c5-d413-44bc-a303-e04de967bd7d{fill:#383353;}.ad5f6a7e-2e09-49b1-a860-3be7becdeff2{fill:#3c3657;}.a176120e-73bc-4a34-a98b-8a92ab4c7eb2{fill:#000010;}.e990cec9-e646-4457-83a9-056269cdd72f{fill:#4c466d;}.fb484d3e-1fcc-4ae7-a706-31a1395e3891{fill:#383355;}.af97769e-4683-44d0-91d2-a3d57c4250eb{fill:#4b466c;}.a48a3aa8-bcb4-427e-a6cf-ca21c2bb0572{fill:#342f50;}.a73baa6e-3a70-4636-969b-93f426b6bd30{fill:#17112b;}.a0614127-dfeb-4fb8-afa8-b1c2ca073bda{fill:#1f1936;}.ab3e2e20-541a-4e82-a932-1d63dd2b34e1{fill:#010011;}.e13c365a-39b3-4849-8610-902f18581684{fill:#292341;}.b4d114a4-818d-4895-9270-79e74b3ed7ae{fill:#150f28;}.ff60cfbe-2846-47a6-a80d-a2a573165bb0{fill:#1e1632;}</style></defs><path class="ae4e2ac7-088e-401b-b1d9-d3b41c77067d" d="M17.8,121.4a.7.7,0,0,1-.3-.8c-.4-1.8,1-1.7,1.8-1.4a9.6,9.6,0,0,0,5.3.1c2,1,2.6,3.1,3.6,4.8,12.6,21.7,31.9,34.4,56.2,37.7,32,4.4,62.7-10.2,78.5-40.1A80.8,80.8,0,0,0,171,96.5c.3-1.3.2-2.8,1.8-3.5h1.4c5.4-.4,5.4-.4,4.7,5.3s-1.3,9.3-2.8,13.7c-7.4,21.7-20.9,38.5-41.2,49.4-9.4,5.1-19.6,7.7-30.3,9a81.6,81.6,0,0,1-31.5-2c-24.4-6.9-42.4-21.9-54.3-44.1a1.5,1.5,0,0,1-.2-.9C18,122.8,18.2,122,17.8,121.4Z"/><path class="b2becfef-f83e-4aeb-8962-274fe57e383b" d="M22.2,42.7a67.6,67.6,0,0,1,16-20C51,11.3,65.9,3.9,82.9,1.8c27.3-3.4,51.3,4.1,71.4,23.2a76.7,76.7,0,0,1,16.8,23.4c-1.6,2.3-3.3,4.2-6.6,3.1-4-4.9-7-10.5-11.2-15.4a73.8,73.8,0,0,0-43.5-25.4C87.4,6.5,66.7,11.2,48.5,25A78.8,78.8,0,0,0,32,42.1c-1.1,1.5-1.9,3.3-3.8,4S23.7,44.8,22.2,42.7Z"/><path class="b00df2c5-d413-44bc-a303-e04de967bd7d" d="M22.2,42.7a4.3,4.3,0,0,1,3.1,1.6A3.9,3.9,0,0,0,28,45.6c1.1,1.8-.2,3.2-1,4.7a76.3,76.3,0,0,0-8.8,36.5,73.8,73.8,0,0,0,5,27c.7,1.8,1.9,3.6,1,5.8s-.9,1.8-2.2,1.8-1.9-1-2.9-1.5-1.2.2-1.6.7A79.9,79.9,0,0,1,9.9,87.3a88.4,88.4,0,0,1,7.7-36.6A27.8,27.8,0,0,1,22.2,42.7Z"/><path class="ad5f6a7e-2e09-49b1-a860-3be7becdeff2" d="M164.9,51.1a3.8,3.8,0,0,0,3.6-1.3,3.4,3.4,0,0,1,2.6-1.4c2.8,4.2,4.3,9,5.7,13.8a74.7,74.7,0,0,1,3,24c-.1,2.5,0,5-.1,7.5s.2,3.1-.8,4.5c-.1-.4-.1-.9-.2-1.4s.6-2.6-1-3.2-1.9.7-2.9,1.1-1.4-.5-1.7-1.4-1.2-3.1-1.2-4.8a81.7,81.7,0,0,0-6.5-33C164.9,54.1,164,52.7,164.9,51.1Z"/><path class="b00df2c5-d413-44bc-a303-e04de967bd7d" d="M17.8,121.4a1.8,1.8,0,0,1,.8,1.9A1.8,1.8,0,0,1,17.8,121.4Z"/><path class="a176120e-73bc-4a34-a98b-8a92ab4c7eb2" d="M164.9,51.1a76.5,76.5,0,0,1,5.5,14.7c.8,3.3,1.4,6.6,2,9.9,1,5.9.7,11.7.7,17.6a11.9,11.9,0,0,0-.8,1.6c-1.2,13.9-6.5,26.2-14.5,37.4A81.8,81.8,0,0,1,144,146.7c-8.8,7.4-18.8,11.6-29.5,14.6-5.6,1.6-11.5,2.8-17.5,2.4a43.4,43.4,0,0,0-5.1-.1c-10.2.3-19.7-2.5-28.8-6.8A83.5,83.5,0,0,1,50,149.6a73.7,73.7,0,0,1-22.6-24.5l-3.2-5.5A93.7,93.7,0,0,1,18,99.7c-.1-1-.3-1.9-.4-2.8a44.8,44.8,0,0,0-.6-6.4,18.3,18.3,0,0,1,0-7,22,22,0,0,0,.5-3.7c-.1-8.4,2.3-16.2,5.6-23.7,1.6-3.6,3.2-7,4.9-10.5A108.1,108.1,0,0,1,41.7,29.1,73.2,73.2,0,0,1,74.4,10.9,77.8,77.8,0,0,1,99.8,8.1a78.7,78.7,0,0,1,24.4,5.5A77.9,77.9,0,0,1,162.7,47Z"/><path class="e990cec9-e646-4457-83a9-056269cdd72f" d="M34.3,110.3a15.1,15.1,0,0,1-4.2-7.1c-.8-2.8-.1-4.5,2.3-6,.8-.5,1.7-.8,2.4-1.3,2.3-1.6,4-3.5,4.2-6.4-1.3-.5-1.6.7-2.2,1.1s-3.4.8-4-1.2a3.6,3.6,0,0,1-.2-1c-1.2-5.1-2.5-10.2-3.4-15.4a21.9,21.9,0,0,1,3.5-17A18.6,18.6,0,0,1,41,49.4l1.3-.4c3.8-1.7,6.9-4.1,8.7-8.1a44.1,44.1,0,0,0,2.3-7c1-3.6,2.8-6.7,6.5-8.1s8.5-1.6,12.9-.6c2.6.5,4.8-.9,6.9-2.3,11-7.2,22-3.5,33.1-.2,4.2,5.2,9.4,8.8,16.4,8.9L140,36.8a9.7,9.7,0,0,1,4.9,4.7c1.7,3.5,4.1,6.6,5.3,10.4s1.6,5.3,1.4,8.2a26.2,26.2,0,0,0,.1,2.8c.3,3.4,1.7,6,5.1,7a12.7,12.7,0,0,1,5.7,3.9,11.6,11.6,0,0,1,1.6,13.5A30.8,30.8,0,0,1,154.3,99a11.9,11.9,0,0,0-5.5,11.2,25.3,25.3,0,0,1,.1,2.8c-2.2,2.9-3.6.9-4.8-.9a3.9,3.9,0,0,1,0-3.9c0-2.6-.1-5.2,0-7.9a9.5,9.5,0,0,0-1.9-6.9c-4-3.2-3.7-7.8-2.8-11.7,1.7-7.3-1.2-13.4-3.5-19.8a6,6,0,0,0-2-3.1c-4.8-3.3-9.9-5.8-14.9-8.7-.8-.5-1.8-.1-2.7.1-4.9,1.7-10.1,1.2-14.9,3.5-2.6,1.1-5.3-.4-6.8-2.8s.6-3.9,2.2-5.4c4.6-4.5,3.5-8.7-3.6-12.5,3.6,3.7,4.4,7.9,2.2,11.5s-6.6,5-11.5,3.5l-1.8-.7c-4.9-2-6-1.5-7.9,3.6s-2.9,6.9-6.8,8.4c-2,.7-4.2,1.1-6,2.3s-5.6,4.9-5.1,9.2a17.7,17.7,0,0,0,0,2.3c1.9,6.7-.7,12-5.2,16.8a6.1,6.1,0,0,0-.7,1c-.7,1.1-1,2.2-.1,3.3l1.1.6c3.3.4,6.6-.4,9.8.6,5,3,5.7,7.8,5.3,13a3.7,3.7,0,0,1-3.7,3,225.5,225.5,0,0,1-26,0A5.1,5.1,0,0,1,34.3,110.3Z"/><path class="fb484d3e-1fcc-4ae7-a706-31a1395e3891" d="M34.3,110.3H62.8c2-.1,2-.1,2.7-2.9,2.5.6,1.8,2.5,1.7,4.1a27.1,27.1,0,0,1-2,6.7c-2.3,5.7-.2,9.4,5.8,10.4a25.7,25.7,0,0,0,6.1-.2C70.5,127,67,121.7,68.5,116s8.1-11.2,13.4-8.9,8.3.8,11.9-2.4,4.3-4.6,7.9-4.4a39.4,39.4,0,0,0,15.3.4c1.7-.3,3.5-.4,4.8,1.2a33,33,0,0,0-3,2.2c-2.2,1.9-2.5,3.7-1.3,6.7.1.2.5.3.7.5s.4-2.1.7-3.1a3.9,3.9,0,0,1,6.1-1.8c4.4,3.2,2.8,9.1-1.4,11.1a10.1,10.1,0,0,1-4.9,1.1h-3.3a1.9,1.9,0,0,0-1.8,2.3c.9,2.4.1,4.6-.8,6.8a8.7,8.7,0,0,1-7.2,5.8,42.7,42.7,0,0,0-10.7,3.2,16.4,16.4,0,0,0-6.9,4.7l-2,2c-5,4.2-10.3,4.3-16-.2a13.1,13.1,0,0,1-3-3.6,20.5,20.5,0,0,0-3.2-3.4c-1.6-1.4-3.6-2.3-5.6-1.5-5.3,1.9-9.1-.6-12.7-3.7a19.6,19.6,0,0,0-4.1-3,8.8,8.8,0,0,1-5-6.4,29.1,29.1,0,0,1-1-5.9A33.5,33.5,0,0,0,34.3,110.3Z"/><path class="af97769e-4683-44d0-91d2-a3d57c4250eb" d="M121.8,101.9a33.9,33.9,0,0,0-6.4.4c-4.8.8-9.7,1-14.3-1.4.4-1.9,2.3-2.4,3.6-3.4,4.3-3.2,6.8-7.2,5.8-12.8-.3-1.5-.4-3.1-.7-4.6-.7-3.3-2.9-5.1-6-5.8-6.6-1.7-17.2,4.7-19,11.6,1.8-2.7,3.7-5.3,7.2-5.6a12,12,0,0,1,8.9,3.4c2.5,4.8,1.6,9-1.9,12.9-7.2,7.8-18.4,8.5-26.4,1.4-2.7-2.5-5.4-5.2-7.9-7.9-4.4-9.7-1.9-18.2,4.4-26A5.7,5.7,0,0,1,70.2,63a9.4,9.4,0,0,1,1.2-.9c7.1-7.8,15.9-9,25.6-6.4,3.5.9,7,.6,10.6.8a10.7,10.7,0,0,1,4.9,1.4,22.8,22.8,0,0,1,5,4.8,10.1,10.1,0,0,0,7.3,4.3c6.2.8,7.6,6.1,9.1,10.9s.8,11.6-.9,17.3a50.5,50.5,0,0,1-1.3,9.5,2.3,2.3,0,0,1-.9,1.1.8.8,0,0,1-1.1-.5C127.9,102.2,124.9,101.8,121.8,101.9Z"/><path class="a48a3aa8-bcb4-427e-a6cf-ca21c2bb0572" d="M144.1,108.2c-.2,2.6.5,4.6,3.2,5.4a1.4,1.4,0,0,0,1.6-.6c1.6,3.2.9,6.6.4,10s-1.3,4.4-2,6.6a7.6,7.6,0,0,1-4.8,4.8,26.5,26.5,0,0,0-3,1.1,8.7,8.7,0,0,0-3.9,3.9,4.4,4.4,0,0,1-4.5,2.7h-1c-3.9-.5-6.9,1.1-9.4,4.1a18.7,18.7,0,0,1-5.5,4.2c-4.4,2.5-9.3,2.3-14.1,1.8a2,2,0,0,1-2-2.1c1.3-.7,2.7-.4,4.1-.3a13.2,13.2,0,0,0,7.5-2.2,33.2,33.2,0,0,0,14.4-18.3,9.5,9.5,0,0,1,5.6-6.3c2.6-1.1,5-2.4,7.6-3.6a13,13,0,0,0,3.1-2.1,5.6,5.6,0,0,0,1.8-4.1C143.3,111.5,142.7,109.7,144.1,108.2Z"/><path class="a73baa6e-3a70-4636-969b-93f426b6bd30" d="M133,95.2a22.9,22.9,0,0,1,.4-6.9,13.5,13.5,0,0,0,0-6c-.6-3.3-.8-6.7-2.8-9.6-.6-.9-1.2-1.9-1.8-2.7a4.8,4.8,0,0,0-4.1-1.9H122a3.4,3.4,0,0,1-3.2-1.6c-1.7-3.1-4.5-5.1-6.6-7.8s1.7-6.6,3.8-9.4a3.6,3.6,0,0,1,5.1,0,45.6,45.6,0,0,0,10.8,6.5,9.9,9.9,0,0,1,5.8,7.3c.6,2.2,1.6,4.4,2.4,6.5a15.9,15.9,0,0,1,.7,10.1,21,21,0,0,0,1.4,13.7c-2.3.8-4.4.9-6.5-.5s-1.4-.1-1.8.7A8.3,8.3,0,0,1,133,95.2Z"/><path class="a0614127-dfeb-4fb8-afa8-b1c2ca073bda" d="M129.1,31.6a20.5,20.5,0,0,0-6.5.6c-2.7.8-3.6.2-5.2-2.5a27,27,0,0,0-2-3.1,12.7,12.7,0,0,0-7.4-4.5c-2.9-.7-5.8-.6-8.7-1.2a64,64,0,0,0-8.8-.8c-3.1-.2-5.7,1-8.2,2.6s-2.6,1.8-3.8,2.7a6.9,6.9,0,0,1-5.8,1.3c-4.3-1.2-8.6-.8-12.9-.9.3-.3.7-.8,1.1-.8,3.2.3,5.6-1.3,8-3a40.2,40.2,0,0,1,13.8-6.7,40.2,40.2,0,0,1,19.2-.9,63.4,63.4,0,0,1,8.6,2.1c6.9,2.5,12.4,6.9,17.3,12.2A3.9,3.9,0,0,1,129.1,31.6Z"/><path class="ab3e2e20-541a-4e82-a932-1d63dd2b34e1" d="M65.4,89.6l7.7,7.3a16.8,16.8,0,0,0,12.7,4.8,17.9,17.9,0,0,0,13.5-7.3c2.4-3.2,2.5-6.8.7-10.4,4-2.4,7.8-1.8,11.4.8.2.4.6.8.6,1.2,0,5.5-2.1,9.9-6.9,12.7l-4,2.2a13.5,13.5,0,0,0-4.7,3c-1.7,1.6-3.5,3.1-5.3,4.6a5.5,5.5,0,0,1-6.1.9,36.5,36.5,0,0,0-3.5-1.4,6.1,6.1,0,0,0-6.9,1,13.9,13.9,0,0,0-5,7.2c-1,3.4.3,6.4,2.3,9.1a4.8,4.8,0,0,0,3.8,1.6h3.2c.5-.1.9-.1,1,.5a1.1,1.1,0,0,1-.3.8,5.4,5.4,0,0,1-1.6,1c-3.8,1.8-10,.8-13.1-2s-3.1-4.3-1.7-7.5a43.6,43.6,0,0,0,2.8-7.9c.3-1.5.6-3-.5-4.4a19.3,19.3,0,0,0-1.2-6.7,7.1,7.1,0,0,0-3.6-4.5c-3.6-1.3-7.5.4-11.1-.9h-.1a5,5,0,0,1,0-4.6h0C54.9,92,60,88.5,65.4,89.6Z"/><path class="e13c365a-39b3-4849-8610-902f18581684" d="M116,49.3c-.5,3.4-2.7,6.2-3.8,9.4a19.2,19.2,0,0,0-5.9-1,46.4,46.4,0,0,1-13.4-1.5,22.7,22.7,0,0,0-9.7-.1,15.3,15.3,0,0,0-8,4.5c-1.2,1.1-2.2,2.7-4.1,2.8a24.9,24.9,0,0,1-3.9-4.8A11.6,11.6,0,0,0,72.9,51a23,23,0,0,1,1.8-4.3c1-1.9,2.3-2.5,4.3-2a18,18,0,0,1,3.8,1.6,12.3,12.3,0,0,0,5,1.2c3.3.3,5.3-1.5,6.9-3.9s.7-7.7-2.2-9.3a19.2,19.2,0,0,0-2.9-1.4c.1-1,.8-1.2,1.6-1.4,4.2-.9,10.4,5.4,9.9,9.4a6.1,6.1,0,0,1-1.5,3.8,36.5,36.5,0,0,1-4.3,3.5,1.3,1.3,0,0,0-.2,2.1c1.9,2.4,4.7,3.3,7.4,1.9a15.5,15.5,0,0,1,9-2C113.1,50.4,114.5,49.4,116,49.3Z"/><path class="b4d114a4-818d-4895-9270-79e74b3ed7ae" d="M67.2,58.6c2.8.3,3.4,2.5,3.9,4.8H71l-.9.9c-1.9,2.8-4,5.5-5,8.9-1.7,5.5-2,11,.3,16.4a14.3,14.3,0,0,0-6.2,1.7c-2.9,1.5-5.7,1.7-8.3-.5a5.8,5.8,0,0,0-1.4-.3,14.1,14.1,0,0,1,3-4.6,11.9,11.9,0,0,0,2.8-4.2,5.5,5.5,0,0,0,.4-4c-1-3.2-.6-6.5-.7-9.7a5.4,5.4,0,0,1,1.5-3.8C59.3,60.9,62.7,58.7,67.2,58.6Z"/><path class="b4d114a4-818d-4895-9270-79e74b3ed7ae" d="M49.6,95.2h8.2c1,0,2.1-.1,2.9.9H52C51,96.1,50.1,96.1,49.6,95.2Z"/><path class="b4d114a4-818d-4895-9270-79e74b3ed7ae" d="M49.5,90.5v4.6C48,93.6,48.1,92.1,49.5,90.5Z"/><path class="ff60cfbe-2846-47a6-a80d-a2a573165bb0" d="M111.4,84.8A48.7,48.7,0,0,0,100,84c-1.7-.9-3.4-1.5-5.1-2.3s-6.3.6-7.7,2.7-1.3,2.5-1.9,3.7-.6,1.2-1.4.9-.6-1-.7-1.5c-.4-4.5,2-7.5,5.3-9.8a31.1,31.1,0,0,1,11.4-4.8,9.4,9.4,0,0,1,11.4,8.7A16.9,16.9,0,0,1,111.4,84.8Z"/><path class="e13c365a-39b3-4849-8610-902f18581684" d="M70.1,64.3l.9-.9Z"/></svg>