<svg id="e797ef7b-6459-4568-a38d-b445f99c3a1e" data-name="Layer 1" xmlns="http://www.w3.org/2000/svg" viewBox="0 0 194.1 173.4"><defs><style>.e6b80e12-0eac-4127-ab34-bdba92b820b9{fill:#ce990e;}.b2935a24-9501-47dc-af36-07c8d35a5002{fill:#e2cf1b;}.aa4c795f-a195-4eed-a7ce-9fd78b8cb98b{fill:#eac904;}.a778d5a0-d28e-46b9-a107-53307d53a7ce{fill:#e9c804;}.eba2bcaf-663f-4743-a84b-633b3a1e8839{fill:#f9e700;}.f695eed3-385f-42f1-9873-1252c7b68b89{fill:#fef100;}.e0094b47-2ad3-47f7-a9d5-f20153b20fcd{fill:#eeaf11;}</style></defs><path class="e6b80e12-0eac-4127-ab34-bdba92b820b9" d="M138.1,158.4c-5.3,4.2-11.4,6.7-17.8,8.7-23.5,7-46.2,5.1-67.8-6.8-1.9-1.1-3.9-1.9-5.3-3.7,1.5-1.8,3.8-.8,6.3-2.1-24.1-16.5-37.6-38.7-38-68.1.4-38.4,26.8-70.2,64.2-77C106.5,4.6,130,12,149.4,30.8c12.8,12.4,20.9,27.7,22.7,45.8.4,4.2,0,8.4.6,12.5-1,3.9-.6,8-1.4,12-4.5,22.4-16.4,39.9-35.5,52.4-1.2.8-2.8,1.2-3.5,2.8C134.1,157.5,137.2,154.9,138.1,158.4Z"/><path class="b2935a24-9501-47dc-af36-07c8d35a5002" d="M171.6,89.4a22.1,22.1,0,0,0-.4-3.7,8.9,8.9,0,0,1-.5-3.2c1-9-2.2-19.3-5.4-26.4-2.6-5.6-5.4-11.2-9.4-15.9s-6.1-8.6-10.8-11.5c-1.5-.9-2.7-2.4-4.1-3.6-5.4-4.5-11.8-7.5-18.1-10.3a47.8,47.8,0,0,0-11.1-3.5C105.2,10,98.4,8.7,91.6,9.2c-8.9.8-17.7,2-26.2,5.5A84,84,0,0,0,44.9,27,73.4,73.4,0,0,0,23.1,55.5a75.2,75.2,0,0,0-5.6,20c-.5,3.7-.6,7.4-.8,11.1s-1.6,4.9-5.3,3.3c-.5,1.1.4,3.1-1.3,4.3A9.8,9.8,0,0,1,9.6,92c-.3-10.8.5-21.4,3.9-31.7C20,40.6,32.4,25.6,49.8,14.6A80.4,80.4,0,0,1,81.9,2.8c25.3-3.4,47.9,3.3,67.4,19.8a79.6,79.6,0,0,1,25.4,37.8,87.8,87.8,0,0,1,3.4,16.8c.4,3.9,1.1,7.7.8,11.6-.1,1.5.2,3.1-.6,4.5-2.1-2.3-1.5-4.7-.8-6.9C175.8,87.3,175,90.9,171.6,89.4Z"/><path class="aa4c795f-a195-4eed-a7ce-9fd78b8cb98b" d="M171.6,89.4a4.2,4.2,0,0,0,2.8-1.4c.9-.9,1.7-2.1,3-2.5h.5a.7.7,0,0,1,.1.5l.3,7.2a67.5,67.5,0,0,1-5.3,23.9c-4.5,11.3-10.8,21.5-19.7,29.9a64.6,64.6,0,0,1-15.2,11.3c-1.5-1.5-3.1-1-4.7-.5s-2.5.9-3.4-.4.1-1.9,2-3a83.9,83.9,0,0,0,20.4-16.6c3.4-4.1,6.9-8.3,9.1-13.3s4.8-9,6.3-13.9,3.1-10.7,2.9-16.3C170.6,92.6,171.4,91,171.6,89.4Z"/><path class="a778d5a0-d28e-46b9-a107-53307d53a7ce" d="M10.1,94.2l.3-4.9c.5,0,.8-.2,1.1-.1A2.8,2.8,0,0,0,15.6,88a13.4,13.4,0,0,1,1.1-1.4,79.9,79.9,0,0,0,5.9,29.8c1.7,4.3,3.5,8.6,6.6,12.2,1.3,1.5,2.2,3.4,3.4,5,5.2,7.2,11.9,12.9,19.1,18l.8.5c1.2,1.1,3.5,1.8,2.7,3.7s-2.5.6-3.8.7H47.2a74.3,74.3,0,0,1-23.7-23.3,84.6,84.6,0,0,1-12.9-32.2A32.1,32.1,0,0,1,10.1,94.2Z"/><path class="eba2bcaf-663f-4743-a84b-633b3a1e8839" d="M152.9,51.1c1.4,1.3,1.9,3.1,2.9,4.7s.9,4.5-.7,6.4-2.5,2.8-3.8,4.2-1.5,2.4,0,4a36.5,36.5,0,0,0,5.8,5.3c2.5,1.8,5,3.8,5.6,7.1.2,1,.4,1.9.5,2.8a63.8,63.8,0,0,1-3.8,24.1,5.4,5.4,0,0,1-.7,1.3,1.3,1.3,0,0,1-2,.2c-1.6-1.9-3.2-3.9-4.6-5.9L138,85.7c-.9-1.3-1.8-2.5-2.8-3.7s-1.5-.9-2.4,0-1.6,2.1-.6,4.1c2.5,5.2,5.2,10.2,7.7,15.4,3.3,7.1,6.4,14.1,9.6,21.2.9,2,1,3.9-.5,5.6a13.4,13.4,0,0,1-1.6,2.3c-4.6,5-9.4,9.9-15.2,13.6-2.4,1.4-3.4,1.2-4.1-1.3-1.4-4.4-2.6-8.9-3.9-13.4l-5.7-19.6c-1.3-4.7-2.7-9.5-4-14.3-.3-1-.7-2-1.1-3s-1.4-2.3-3.5-2.3a11.1,11.1,0,0,0-1.9.2c-2.1.8-3.9,1.5-3.2,5.1,1,5.7,2,11.3,2.7,17s.5,13,2.4,19.2c-.4,4.1,1.2,8,1,12.1a15.1,15.1,0,0,0,.6,3.6,15.4,15.4,0,0,1,.3,3.7,2.2,2.2,0,0,1-1.9,2.3,41.2,41.2,0,0,1-5.9,1.2c-3.6.2-7.1,1.1-10.7.8a89.8,89.8,0,0,1-14.6-1.9l-1.8-.6a3.1,3.1,0,0,1-2.2-3.2,26.2,26.2,0,0,1,0-2.8c.4-4.1,1.1-8.2,1.4-12.4s1.1-7.3,1.4-11,1.1-9.5,1.4-14.3,1.8-10.4,1.3-15.7a3.7,3.7,0,0,0-7.3-.7c-1.3,4.5-2.5,9-3.8,13.4-1.8,6.4-3.7,12.8-5.5,19.2-1.3,4.6-2.6,9.2-4,13.8a16.4,16.4,0,0,1-1.4,3.9,1.4,1.4,0,0,1-2,.7,11.4,11.4,0,0,1-2.3-1.5,69.7,69.7,0,0,1-15.2-15,5.1,5.1,0,0,1-.7-6c2.1-4.2,3.9-8.5,5.9-12.7s4.6-9.8,6.6-14.8c1.3-3.2,3-6.2,4.5-9.3s.8-2.3-.7-3.5c-3.6-2.7-4.7-2.5-7.5,1.4L32.5,102.6a19.9,19.9,0,0,1-2.8,3,.9.9,0,0,1-1.5-.3c-1.1-2.1-1.3-4.5-1.6-6.7-.7-4.3-1.7-8.6-1.4-12.9s.4-6.2,1-9.3a11.3,11.3,0,0,1,3.5-5.9c1.1-1.1,2.3-2,3.5-3s1.6-2.5.7-4.2-.9-1.2-1.3-1.9a5.1,5.1,0,0,1-.1-5.3c.8-1.5,1.3-3.2,2.9-4.1s3.4,1.5,4.6,2.9C48.1,64.5,57,73,69.1,77.4c25,9.2,47.8,5.1,68.5-11.5,4-3.2,6.8-7.6,10.2-11.4C149.2,52.9,150.3,50.9,152.9,51.1Z"/><path class="f695eed3-385f-42f1-9873-1252c7b68b89" d="M43.8,40c.4-.5.7-1.1,1.1-1.5,5.7-4.8,11.3-9.6,18-13.1a54.5,54.5,0,0,1,8.9-3.9,59.4,59.4,0,0,1,21.3-3.8c15.2.1,29.3,4,41.6,13.2,3.2,2.4,6.6,4.7,8.9,8.1s.5,3.6-.5,5.2C132.4,61.2,117.5,71,97,72c-15.6.9-29-4-40.8-14-4.7-4-8.4-9-11.9-14.2C43.6,42.6,42.7,41.4,43.8,40Z"/><path class="e0094b47-2ad3-47f7-a9d5-f20153b20fcd" d="M43.8,40a3.3,3.3,0,0,0,.4,1.3A69,69,0,0,0,54.6,54.9a58.5,58.5,0,0,0,25,14.5,31.2,31.2,0,0,0,10.1,1.4h5.6c12.5.5,23.2-4.2,33.1-11.4,4.2-3.1,7-7.4,10.7-10.9,1.4-3.2,4.5-5.6,4.5-9.5a6.5,6.5,0,0,1,3.1,3.4,37.4,37.4,0,0,1,2.2,4.5c.7,2.1,2.3,3.2,4,4.2a32.2,32.2,0,0,0-2.8,2.4l-7.6,9.3-1.9,2.1a51.3,51.3,0,0,1-11.9,8.7c-3.8,1.8-7.3,4.2-11.2,5.6A83.9,83.9,0,0,1,100.3,83,65.7,65.7,0,0,1,87,83c-5.9-.5-11.5-2.2-17.1-3.9s-9.1-4.6-13.6-6.9a26.1,26.1,0,0,1-5.9-4.6l-6.2-6.3c-2.3-2.3-4.7-4.4-6.4-7.3a2.9,2.9,0,0,0-2.4-2,10.4,10.4,0,0,0,3.9-4.9c.8-1.8,1.8-3.5,2.6-5.3A3.7,3.7,0,0,1,43.8,40Z"/></svg>