<svg xmlns="http://www.w3.org/2000/svg" xmlns:xlink="http://www.w3.org/1999/xlink" viewBox="0 0 626 159"><defs><style>.bf40b6bc-f674-40ae-b78d-05d6d33c2422{isolation:isolate;}.b93aa37f-836e-4d9a-b8ca-301815aff3ae{fill:url(#fdf0ee91-58b5-4d63-8c93-540d89a07d89);}.b93e4d15-7ef2-4ef3-b00b-f8037a7369c1{fill:url(#a08bee1f-48ba-4f50-acc7-608c7dbf5721);}.bceee30b-f7e2-4181-9e9d-ea656466951f{fill:url(#abe604f5-27a3-482d-a7a9-96e44c4485b7);}.fc7a64c3-b6e2-4ef7-8bf9-02094f63df1d{fill:#eb924d;}.a1b6f3aa-4b59-4c54-b969-491192a8f2cb{fill:url(#ed3b0924-335d-4f78-8751-eb674011688c);}.b64d21d9-c482-4847-b351-203520525754{fill:url(#e40093c1-e481-43ee-85e5-5312571da056);}.a3c0d0b3-891b-4b8a-84a8-8e71927b9726{fill:url(#b22fda47-c3b4-454f-966b-ee710285e211);}.ac845e42-f395-476e-9239-3fd89be69033{fill:url(#b325dccd-ca4b-4d83-9bf4-135d9d6b41bb);}.ee6c663a-b041-4a64-a34b-62977c67496d{fill:url(#fb889039-c05a-4168-87f9-b5800d492480);}.ee7ea6da-605d-46d8-aba6-872b63890659{fill:url(#bc6c6d0e-21b9-4f91-b8fd-838f6402788c);}.f326ece5-0b30-44dd-b6f5-7da591e7d20e{fill:url(#a8b6b60b-cd32-4659-8480-a8178bcbcb1f);}.b8a330fe-7192-4da0-adf3-9f707778a74e{fill:#ffdf80;}.ad6d20c1-6c8d-4aee-9eb7-91a7d4dc31eb{fill:url(#e06c2f38-89d6-4d8f-87f7-4096d5e69595);}.b347c2ff-77c0-429d-9fa1-628e63f831af{fill:url(#b3fcdf11-722b-4a68-8e97-d6d6fefa9aaa);}.a1265b08-3baa-4096-b762-0ce4820280ec{mix-blend-mode:screen;fill:url(#be352154-a1f1-4289-95ac-8f4b33c638e3);}.eb61a2e3-d14a-427e-961a-34c9d2ef9b62{fill:#fff;}.fb32082c-19b9-4a16-8aa4-9231dae5e70f{fill:#754c24;}</style><linearGradient id="fdf0ee91-58b5-4d63-8c93-540d89a07d89" x1="444.68" y1="-278.17" x2="357.52" y2="-43.59" gradientUnits="userSpaceOnUse"><stop offset="0" stop-color="#cf5c2b"/><stop offset="1" stop-color="#59173e"/></linearGradient><linearGradient id="a08bee1f-48ba-4f50-acc7-608c7dbf5721" x1="344.31" y1="-77.14" x2="269.83" y2="315.66" xlink:href="#fdf0ee91-58b5-4d63-8c93-540d89a07d89"/><linearGradient id="abe604f5-27a3-482d-a7a9-96e44c4485b7" x1="345.29" y1="-76.15" x2="243.51" y2="443.63" xlink:href="#fdf0ee91-58b5-4d63-8c93-540d89a07d89"/><linearGradient id="ed3b0924-335d-4f78-8751-eb674011688c" x1="514.25" y1="37.78" x2="488.65" y2="106.2" xlink:href="#fdf0ee91-58b5-4d63-8c93-540d89a07d89"/><linearGradient id="e40093c1-e481-43ee-85e5-5312571da056" x1="602.16" y1="-164.38" x2="375.62" y2="361.28" xlink:href="#fdf0ee91-58b5-4d63-8c93-540d89a07d89"/><linearGradient id="b22fda47-c3b4-454f-966b-ee710285e211" x1="463.59" y1="35.73" x2="447.44" y2="78.89" xlink:href="#fdf0ee91-58b5-4d63-8c93-540d89a07d89"/><linearGradient id="b325dccd-ca4b-4d83-9bf4-135d9d6b41bb" x1="519.03" y1="-91.78" x2="376.15" y2="239.78" xlink:href="#fdf0ee91-58b5-4d63-8c93-540d89a07d89"/><linearGradient id="fb889039-c05a-4168-87f9-b5800d492480" x1="122.7" y1="65.42" x2="106.56" y2="108.58" xlink:href="#fdf0ee91-58b5-4d63-8c93-540d89a07d89"/><linearGradient id="bc6c6d0e-21b9-4f91-b8fd-838f6402788c" x1="178.15" y1="-62.09" x2="35.26" y2="269.46" xlink:href="#fdf0ee91-58b5-4d63-8c93-540d89a07d89"/><linearGradient id="a8b6b60b-cd32-4659-8480-a8178bcbcb1f" x1="317.21" y1="28.08" x2="317.21" y2="73.44" gradientUnits="userSpaceOnUse"><stop offset="0" stop-color="#ffca2b"/><stop offset="1" stop-color="#d15b24"/></linearGradient><linearGradient id="e06c2f38-89d6-4d8f-87f7-4096d5e69595" x1="317.2" y1="150.99" x2="317.2" y2="82.2" gradientUnits="userSpaceOnUse"><stop offset="0" stop-color="#ffce3b"/><stop offset="1" stop-color="#cc6923"/></linearGradient><linearGradient id="b3fcdf11-722b-4a68-8e97-d6d6fefa9aaa" x1="317.2" y1="142.54" x2="317.2" y2="50.16" xlink:href="#e06c2f38-89d6-4d8f-87f7-4096d5e69595"/><linearGradient id="be352154-a1f1-4289-95ac-8f4b33c638e3" x1="490.2" y1="-96.34" x2="360.87" y2="169.93" gradientUnits="userSpaceOnUse"><stop offset="0" stop-color="#f2de6d"/><stop offset="1"/></linearGradient></defs><g class="bf40b6bc-f674-40ae-b78d-05d6d33c2422"><g id="b0d31466-fbb0-4e2d-9b0d-1c44e424929f" data-name="Layer 1"><path class="b93aa37f-836e-4d9a-b8ca-301815aff3ae" d="M610.9,125.8l-.9-9-.9-9.4c-.2-2.2-.4-4.4-.5-6.7s1.1-4.8-.4-6.5-2.9-1.3-4.6-1.5l-6.8-.8a66.8,66.8,0,0,0,8.9-1.8,3.3,3.3,0,0,0,1.8-.7,1.7,1.7,0,0,0,.6-1.1c1-4.1.4-8.5.4-12.6s-.1-8.5-.1-12.7-.1-8-.1-12c0-1.4.8-4.3-.2-5.4s-2.7-.9-4.2-1.1a33.8,33.8,0,0,0-4.5,0l-6.7.5c2.9-.5,6-.7,8.9-1.2a31.6,31.6,0,0,0,5.5-1.3,5.8,5.8,0,0,0,2.8-1.5,1.9,1.9,0,0,0,.5-1,8.5,8.5,0,0,0,.4-2.2c.2-2.1.3-4.2.4-6.3V28.4a16,16,0,0,0-.5-2.1,12.2,12.2,0,0,0-4.9-7.7,23.6,23.6,0,0,0-10.7-4.5,24.2,24.2,0,0,0-4.7-.4Q309.8,7.6,40.2,13.6H38l-2.1.5a31.7,31.7,0,0,0-4.4,1.2,17.8,17.8,0,0,0-7.1,3.7c-1,.9-1.7,2-2.7,3s-1.1.9-1.5,1.4a47.8,47.8,0,0,1-6.4,7.3,9.6,9.6,0,0,0-3.1,8.3c.4,3.6.6,7.3,1,10.9.8,5.7.1,11.5,1.1,17.3A2.7,2.7,0,0,0,14,69.6a9.5,9.5,0,0,0,2.4.7l8.3,1.2c-3.4,1.4-8.5,1.5-10.3,4a4.4,4.4,0,0,0-.8,2.5c-.3,3.1-.7,6.2-1,9.3-.2,1.3-.3,2.7-.4,4.1a24.5,24.5,0,0,1-.4,3.9c-.4,3.1-1.6,7.1-.2,10.1s6.8,3,10.6,3.7a8.1,8.1,0,0,0-4.6,2.3L16,113.1l-1.4,1.5a18.6,18.6,0,0,0-1.9,3.3,5.8,5.8,0,0,0-.5,2.1c-.1.7-.1,1.4-.2,2.2s-.1,2.8-.2,4.2-.1,5.6,0,8.4-1,5.3.8,8a17.7,17.7,0,0,0,8.4,6.5,31.7,31.7,0,0,0,10,2q270.9,7.8,550.6-.1a27.4,27.4,0,0,0,13.3-3.6,26.1,26.1,0,0,0,4.5-3.3,50.8,50.8,0,0,0,4.4-5C607.2,135.2,611.4,130.6,610.9,125.8Z"/><path class="b93e4d15-7ef2-4ef3-b00b-f8037a7369c1" d="M590.4,140.8q-279.6,7.6-550.6,0c-8,0-15.5-3.8-18.5-8.6a10.8,10.8,0,0,1-1.4-6.7,2.7,2.7,0,0,1,.3-1.2,14.2,14.2,0,0,0,.8-1.8,3.6,3.6,0,0,1,.2-1c.3-1.8.4-3.7.6-5.5a10.1,10.1,0,0,1,.7-3,5.4,5.4,0,0,1,2.7-2.9c6-2.9,17.6-2.9,26.3-3h4.6c3.8-.2,7.5-.3,11.3-.2a261.9,261.9,0,0,1-26.6-1.6l-12.4-1.7-3-.7a5.9,5.9,0,0,1-3-1.8,3.1,3.1,0,0,1-.4-2.3c0-.7-.1-1.5-.1-2.2s.4-3.1.6-4.6a27.1,27.1,0,0,0,.6-3.8c.3-3.4.7-6.8,1-10.2.2-1,.3-2.1,1.4-2.8a8.5,8.5,0,0,1,2.4-.9c2.3-.5,4.6-.9,7-1.2s2.3-.1,3.4-.3a22,22,0,0,1,3.7-.6l39.5-3,4.7-.4L26.6,63.9,24,63.7a5.1,5.1,0,0,1-2.2-.5h-.1c-.4-.3-.4-.8-.5-1.2-.9-7.1.1-14.4-.5-21.6,0-.4-.2-2.4-.4-4.7a66.7,66.7,0,0,0-.7-7c-.9-7.9,8.3-14.7,20.2-15q269.3-6.1,550.2.1c12,.2,21.3,7.1,20.3,15-.3,2.7.5,5.3-.5,8a2.8,2.8,0,0,1-1.2,1.7,9.1,9.1,0,0,1-2.5.7l-6.8,1.1c-3,.4-5.9.9-9,1.1l-54.1,3.8h-1.4l-1.8.2h4.3l67.9-.7a5.2,5.2,0,0,1,1.8.2,1.6,1.6,0,0,1,.8,1.3,5.8,5.8,0,0,1,.2,1.8c-.1,1.9-.6,3.8-.6,5.7s.6,3.4.6,5.1-.2,5-.3,7.6c-.4,5.8-1,11.6-1.9,17.3a3.7,3.7,0,0,1-1.2,2.4,6.7,6.7,0,0,1-2.6.9l-1.7.4c-13.3,2.5-27.9.5-41.5,2l-2.7.4h-.9l3.4.2c14.9.7,29.8,1.7,44.6,2.9,1.7.2,3.7.4,4.7,1.3a3.3,3.3,0,0,1,.8,2.6v2.9c0,2.9,0,5.9.2,8.8s.6,7.7,1,11.6l.6,5.7C611.4,133.6,602.3,140.4,590.4,140.8Z"/><path class="bceee30b-f7e2-4181-9e9d-ea656466951f" d="M608,58.7c0,2.5-.2,5-.3,7.6l-22.5,1.4-5.1.4-19,1.2-9.5.5c-2,.1-3.9.6-5.8.8s-5.8-.3-8.6-.4-6.2-.2-9.3-.1c-6.2,0-12.4.3-18.6.8-12.4.9-24.6,2.5-36.9,3.8q-29.5,3.3-59.4,5c10.8.7,21.6,1.8,32.2,3.5l-12,.5c-12.6.6-25.3.8-38,1H319.1c-12.6.1-25.3.3-38,.7-6.3.2-12.6.4-18.9.8l-4.8.2c-1.9.1-3.7.5-5.7.6-15.1,1.2-30.2,2.7-45.1,4.6-23.2,3-46.5,6-70.2,7.1l-12.8.5c-20.3,2.7-42.3,3.3-62.2,4.9-6.8.5-13.7.8-20.6,1l-12.4-1.7-3-.7a5.9,5.9,0,0,1-3-1.8,3.1,3.1,0,0,1-.4-2.3c0-.7-.1-1.5-.1-2.2s.4-3.1.6-4.6c18.3-1,37-4.5,54.6-6.2,22.6-2.1,45.5-3.4,68.2-4.3,25.8-.9,51.5,1.1,77.1,1.1,23.8,0,47.5-1.3,71.2-2.6q69-3.7,138.1-7.7l-30-.5-38.3-1.1c-3-.1-6-.3-9-.1s-6.1.3-9.2.2a108.4,108.4,0,0,1-18-1.5c-3.5-.5-6.9-1.3-10.4-1.7-6-.7-12-.4-18.1-.5-22.5-.2-44.7-4.1-67.3-4-5.9.1-11.8.4-17.7.7s-12.5.8-18.8.9a58.6,58.6,0,0,1-8.4-.2,36.1,36.1,0,0,0-6.6-.2L168.5,64l-22.9-.2c-28.9-.1-57.8,1-86.7.8-12.3-.1-24.9-.2-37.1-1.4h-.1c-.4-.3-.4-.8-.5-1.2-.9-7.1.1-14.4-.5-21.6,0-.4-.2-2.4-.4-4.7,14.8-.8,29.6-1,44.4-1.7,28.8-1.4,57.7-2,86.7-2,57.5.2,114.8,2.6,172.1,5.5S438,43.9,495.3,46.5c28.9,1.4,57.9,2.2,87,2.2,8.5,0,17-.3,25.7-.8-.1,1.9-.6,3.8-.6,5.7S608,57,608,58.7Zm.9,49.8c-.2-2.9-.2-5.9-.2-8.8-18.3-1.3-36.6-2.7-55-3.5-31.6-1.4-63.2-1.2-94.8-.4-6.6.2-13.1.3-19.6.9l-9.4.7c-12.6,1-25.3,1.8-37.9,2.5l-14.8.6h38.3l38.4-.2h28.8a27.7,27.7,0,0,0,4.1-.1l2.4-.4a67.6,67.6,0,0,1,9,.2l9.5.3,19,.9,30,1.6c10.9.7,21.7,1.5,32.5,2.4-24.6,1.6-49.2,3.2-73.9,4.1-56.7,2-113.5,4.6-170.4,3.9s-112-2.9-168.1-2.7c-29.6,0-59.1.4-88.6.9-21.8.4-43.9.4-65.7,1.9a10.1,10.1,0,0,0-.7,3c-.2,1.8-.3,3.7-.6,5.5,24.2.7,48.7-.4,72.9-.5q44.3,0,88.6.6c56,.9,111.9,3,167.9,3.6s113.8-2,170.6-3.9c29.3-1,58.8-1,88.1-1.2h.6C609.5,116.2,609.2,112.4,608.9,108.5Z"/><path class="fc7a64c3-b6e2-4ef7-8bf9-02094f63df1d" d="M24.7,98.4a9.5,9.5,0,0,0,.7,4.4,5.9,5.9,0,0,1-3-1.8,3.1,3.1,0,0,1-.4-2.3c0-.7-.1-1.5-.1-2.2.2-2.8,1-5.6,1.2-8.4s.7-6.8,1-10.2c.2-1,.3-2.1,1.4-2.8a8.5,8.5,0,0,1,2.4-.9c2.3-.5,4.6-.9,7-1.2s2.3-.1,3.4-.3a22,22,0,0,1,3.7-.6l39.5-3L39,74.7c-2.7.4-6.4.4-8.7,1.6a5.7,5.7,0,0,0-1.3.8,3.9,3.9,0,0,1-1,.8,3.9,3.9,0,0,0-1.4,1.8A14.4,14.4,0,0,0,25,85.2a15,15,0,0,1-.2,2.2.9.9,0,0,1-.1.5c0,.2-.2.4-.3.6a6.7,6.7,0,0,0-.3,4.4,7.6,7.6,0,0,0,.6,1.6A10.2,10.2,0,0,1,24.7,98.4Z"/><path class="fc7a64c3-b6e2-4ef7-8bf9-02094f63df1d" d="M534.8,45.2h0Z"/><path class="fc7a64c3-b6e2-4ef7-8bf9-02094f63df1d" d="M547.8,88.7l11,.6-2.7.4Z"/><path class="fc7a64c3-b6e2-4ef7-8bf9-02094f63df1d" d="M601.9,85.1a9.3,9.3,0,0,0,.3-4.7c-.4-2.8-.7-5.7-1-8.6-.1-.6-.2-1.2-.9-1.5a4,4,0,0,0-1.9-.3l-16.4.4a72.9,72.9,0,0,0,17.1-3.1c1.5-.5,3.1-1.1,3.7-2.1a3.6,3.6,0,0,0,.3-1.7c-.1-4.6-1.3-9.6-2.1-14.1-2.6-1.7-6.5-1.9-10-2l-42.8-1.7-10.9-.4,67.9-.7a5.2,5.2,0,0,1,1.8.2,1.6,1.6,0,0,1,.8,1.3c.5,2.6-.4,5-.4,7.5s.6,3.4.6,5.1a193.4,193.4,0,0,1-2.2,24.9,3.7,3.7,0,0,1-1.2,2.4,6.7,6.7,0,0,1-2.6.9l-1.7.4A5.4,5.4,0,0,0,601.9,85.1Z"/><path class="fc7a64c3-b6e2-4ef7-8bf9-02094f63df1d" d="M20.7,40.3c-.1-1-.9-11.7-1.1-11.7-.9-7.9,8.3-14.7,20.2-15q269.3-6.1,550.2.1c12,.2,21.3,7.1,20.3,15-.3,2.7.5,5.3-.5,8a2.8,2.8,0,0,1-1.2,1.7,9.1,9.1,0,0,1-2.5.7l-6.7,1.1c2-1.2,4.2-2.6,5.1-4.3s.1-2.1-.5-3.2a11.4,11.4,0,0,1-1.1-5.1c-.1-2.2.4-5.3-2.2-7.1a35.7,35.7,0,0,0-7.1-3.3c-6.2-2-13.3-2.4-20-2.6h-1.1c-12.5-.3-25-.3-37.5.6l-4.3.5a28.2,28.2,0,0,1-5.8-.1l-12.7-.4-25.5-.4H395c-1.9,0-4.1.2-6,0s-3.5-1-5.5-1.1a34.6,34.6,0,0,0-5.6.2l-13.9.8c-2.1.2-4.4.4-5.8,1.4a5.3,5.3,0,0,1-1.4,1.1c-1.3.6-3.1.2-4.6-.1a48.3,48.3,0,0,0-9.3-1.2c-2.9-.1-5.8.2-8.6.1a30.7,30.7,0,0,1-5.3-.6c-7-.9-14.3-.9-21.4-1.3l-15.8-.5c-16.9-.4-33.9-.2-50.9.3l-25.4.8c-3.9.2-8.2.7-12.1.4l-3.2-.5a20.8,20.8,0,0,0-3.5-.1H166c-1.9,0-3.7.3-5.5.3s-3.3-.3-5-.3a42.5,42.5,0,0,0-10.2,1.4,17.8,17.8,0,0,1-3.9.7c-2.5-.1-4.2-1.7-6.4-2.4-5.3-1.6-10.8,1.6-16.3.3a32.5,32.5,0,0,0-8.3-.6H99.5c-12.3,0-24.6.3-36.8,1.1-6.1.4-12.2,1-18.3,1.7-2.9.3-5.8.9-8.8,1.1a9.3,9.3,0,0,0-2.4.4c-3.6,1.7-13.6,11.1-6.5,14.4l1.5.5,2.3.4a12.2,12.2,0,0,0,2.7.1h6.1a34.4,34.4,0,0,1,6.4.4L31.8,35.6a21.5,21.5,0,0,0-4.4.9h-.7a3.7,3.7,0,0,0-2.1,1.7c-.9,1.6-.3,3.3-.7,5s.1,6.2.6,9.2a113.9,113.9,0,0,0,2.1,11.4L24,63.7a5.2,5.2,0,0,1-2.3-.6c-.4-.3-.4-.8-.5-1.2C20.3,54.8,21.3,47.5,20.7,40.3Z"/><path class="fc7a64c3-b6e2-4ef7-8bf9-02094f63df1d" d="M610.5,125.8c-.6-5.8-1.2-11.5-1.6-17.3-.3-3.9-.2-7.8-.2-11.7a3.3,3.3,0,0,0-.8-2.6c-1-.9-3-1.1-4.7-1.3-14.8-1.2-29.7-2.2-44.6-2.9,13.3,1.7,27,3.8,39.6,6.2,2.5.4,2.7,1.7,3.7,3.2a8.9,8.9,0,0,1,1.1,5,3.9,3.9,0,0,1-.3,2.1c-.7,1.5-3.1,2.3-5.2,3l4.8.9,1,.4c.4.2.4.5.5.8.6,2.8.2,5.8.2,8.6s0,3.6.1,5.4a4.4,4.4,0,0,0,.5,1.5,5.8,5.8,0,0,1-.4,3.2,11.6,11.6,0,0,1-6,5.2c-4.8,2-10.8,2.5-16.6,2.7-9.6.5-19.2.5-28.8,1.1l-9.5.5-19,1c-12,.5-24.1.9-36.1,1.1-28.4.7-56.9.6-85.3.5H392.5c-2.8,0-5.4.2-8.2.1-6.7-.5-13.3.3-20,.8s-16,.6-22.7-2c-2.1-.9-4.2-2-6.7-2a18.8,18.8,0,0,0-5.8,1.3,51.3,51.3,0,0,1-11.3,2h-.2c-8.3.7-16.3.3-24.6-.1-6-.3-12.4.4-18.2-1s-9.2-2.6-13.8-1.8c-1.6.3-3.1.9-4.6,1.3a44.1,44.1,0,0,1-9.6,1l-6.1.2c-8.5.2-17,.2-25.4-.1a61.5,61.5,0,0,1-10.6-.8,34.7,34.7,0,0,0-7.2,0q-15.5.6-30.9.3l-12.6-.4c-2.1-.1-4.2-.4-6.3-.4s-2.7.3-4.1.3H118l-43.8-.3c-10,.8-18.3-.3-28.2-1.5-8.1-1-16.9-3.1-20.3-8.1a10.6,10.6,0,0,1-1.5-6.6,4.5,4.5,0,0,0,0-2,12.7,12.7,0,0,0-.6-1.8c-.4-2.1.5-4.4,1.3-6.4a5.9,5.9,0,0,1,2-2.8,9.5,9.5,0,0,1,3.7-1.4,69.8,69.8,0,0,1,11.3-1l16.5-.7h3.3a3.6,3.6,0,0,1-.2-1.1h-10c-8.7.1-20.3.1-26.3,3-2.6,1.3-3.1,3.8-3.4,5.9s-.4,4.4-.8,6.5a14.2,14.2,0,0,1-.8,1.8,2.7,2.7,0,0,0-.3,1.2,10.8,10.8,0,0,0,1.4,6.7c3,4.8,10.5,8.6,18.5,8.6q270.9,7.8,550.6,0C602.3,140.4,611.4,133.6,610.5,125.8Z"/><polygon class="fc7a64c3-b6e2-4ef7-8bf9-02094f63df1d" points="53.1 72.9 66.7 71.1 66.1 70.3 52 71.4 53.1 72.9"/><polygon class="fc7a64c3-b6e2-4ef7-8bf9-02094f63df1d" points="563.2 46.2 578.9 47 578.9 44.7 561.9 45.2 563.2 46.2"/><polygon class="fc7a64c3-b6e2-4ef7-8bf9-02094f63df1d" points="564.3 90.9 581.7 93.1 581.3 91.3 562.6 90.2 564.3 90.9"/><path class="fc7a64c3-b6e2-4ef7-8bf9-02094f63df1d" d="M513.4,81.1c-13.3-4.9-35.3-3.4-45.8,3.2-6.6,4.2-6.9,11.9,0,16.1,15.3,9.1,42.2,5.2,51.9-6.1l.5-.3C527.4,89.6,522.2,82.2,513.4,81.1Z"/><path class="a1b6f3aa-4b59-4c54-b969-491192a8f2cb" d="M516.5,76.8c-13.2-4.9-35.2-3.4-45.7,3.2-6.6,4.2-7,11.9,0,16.1,15.3,9.1,42.1,5.2,51.8-6.1l.6-.3C530.6,85.2,525.3,77.9,516.5,76.8Z"/><path class="b64d21d9-c482-4847-b351-203520525754" d="M513.4,79.6c-13.3-4.9-35.3-3.4-45.8,3.2-6.6,4.1-6.9,11.9,0,16,15.3,9.1,42.2,5.2,51.9-6l.5-.3C527.4,88,522.2,80.7,513.4,79.6Z"/><path class="fc7a64c3-b6e2-4ef7-8bf9-02094f63df1d" d="M463,63.1c-8.3-3.1-22.2-2.2-28.8,2-4.2,2.6-4.4,7.5,0,10.1,9.6,5.7,26.6,3.3,32.7-3.8l.3-.2C471.9,68.4,468.6,63.8,463,63.1Z"/><path class="a3c0d0b3-891b-4b8a-84a8-8e71927b9726" d="M465,60.3c-8.3-3-22.2-2.1-28.8,2.1-4.2,2.6-4.4,7.5,0,10.1,9.6,5.7,26.5,3.3,32.7-3.8l.3-.2C473.9,65.7,470.6,61,465,60.3Z"/><path class="ac845e42-f395-476e-9239-3fd89be69033" d="M463,62.1c-8.3-3.1-22.2-2.1-28.8,2-4.2,2.6-4.4,7.5,0,10.1,9.6,5.8,26.6,3.3,32.7-3.8l.3-.2C471.9,67.4,468.6,62.8,463,62.1Z"/><path class="fc7a64c3-b6e2-4ef7-8bf9-02094f63df1d" d="M122.1,92.8c-8.3-3.1-22.2-2.2-28.8,2-4.2,2.6-4.4,7.5,0,10.1,9.6,5.7,26.6,3.3,32.7-3.8l.3-.2C131,98.1,127.7,93.4,122.1,92.8Z"/><path class="ee6c663a-b041-4a64-a34b-62977c67496d" d="M124.1,90c-8.3-3.1-22.2-2.1-28.8,2.1-4.2,2.6-4.4,7.5,0,10.1,9.6,5.7,26.6,3.3,32.7-3.8l.3-.2C133,95.4,129.7,90.7,124.1,90Z"/><path class="ee7ea6da-605d-46d8-aba6-872b63890659" d="M122.1,91.8c-8.3-3.1-22.2-2.2-28.8,2-4.2,2.6-4.4,7.5,0,10.1,9.6,5.8,26.6,3.3,32.7-3.8l.3-.2C131,97.1,127.7,92.5,122.1,91.8Z"/><path class="f326ece5-0b30-44dd-b6f5-7da591e7d20e" d="M588,82.7a213.5,213.5,0,0,1-2.8,33.6c-.4,3-4.2,5.3-8.7,5.5-172,7.5-344.7,8.6-516.7,1.1-4.7-.3-8.4-2.7-8.8-5.7-2.7-22.1-5.6-45.6-4.2-67.8.2-3.6.4-7.1.9-10.6s4.4-5.5,9.1-5.6c183.6-3.5,356.4-3.4,518.3,2.5,4.5.2,8.2,2.4,8.8,5.3A203.4,203.4,0,0,1,588,82.7Z"/><path class="b8a330fe-7192-4da0-adf3-9f707778a74e" d="M584.8,81.9c-.6,1.3-1.3,2.6-1.8,3.9A62.2,62.2,0,0,0,579,98a32,32,0,0,0-.9,6.2c0,.6.3,1.2.3,1.9a1.7,1.7,0,0,1-.1,1,5.4,5.4,0,0,1-.5,1.1c-.2.4-1.7,2.4-1.4,2.8-5.6-6.7-5-14.8-5.5-22.4s-3.1-16.1-12.6-20.5c-6.3-3-14.4-3.5-22.1-3.9-154.8-8-311.1-11.6-466.3-10.8a65.4,65.4,0,0,0-3,5.9,87.9,87.9,0,0,0-3.8,9.1,42.6,42.6,0,0,0-1.5,4.7c-.4,1.4-1.2,2.9-1.1,4.4s.1.8.1,1.3a11.9,11.9,0,0,1-.8,2.2,36.9,36.9,0,0,0-2,9.4,17.7,17.7,0,0,0-.1,4.6l-1.2-7.2c-1-6.6-2-13.2-3.1-19.7l-1.5-9.8c-.2-1.3-.1-2.7-1.1-3.8l-1-1.1a22,22,0,0,1-3-4c.2-3.6.4-7.1.9-10.6s4.4-5.5,9.1-5.6c183.6-3.5,356.4-3.4,518.3,2.5,4.5.2,8.2,2.4,8.8,5.3a168.7,168.7,0,0,1,2.7,17.1c.3,2.1.5,4.3.7,6.4a40.2,40.2,0,0,1,.3,6c-.3,1.7.5,3.3.1,5a21.4,21.4,0,0,1-2.5,5.6A2,2,0,0,1,584.8,81.9Z"/><path class="ad6d20c1-6c8d-4aee-9eb7-91a7d4dc31eb" d="M575.9,115.6c-50.5,2.2-100.6,3.8-149.9,4.8q-53.1,1.2-104.9,1.3h-22c-81.1,0-161.4-1.7-238.7-5.1-2.9-23.2-6.1-49.1-3.8-72.8.1-1.5.3-3.1.4-4.6C139.8,37.8,215.2,37,287.6,37c34.7,0,68.3.2,101,.5h10.3c30.3.3,59.8.9,88.6,1.6s58.6,1.5,87.1,2.6a187.1,187.1,0,0,1,3.2,21.6A212.7,212.7,0,0,1,575.9,115.6Z"/><path class="b347c2ff-77c0-429d-9fa1-628e63f831af" d="M577.8,63.5c.2,2.8-.6,5.9-.9,8.7-1.8,14.5-51.2,12.7-65.4,13.3-127.3,5.3-256.6,1.2-383.9-2.7L72,80.8c-13.6-.4-12.6-8.2-13.4-15.2s-1.5-14.5-2-21.7c.1-1.5.3-3.1.4-4.6C139.8,37.8,215.2,37,287.6,37c104,0,197.8,1.6,287,4.9A187.1,187.1,0,0,1,577.8,63.5Z"/><path class="a1265b08-3baa-4096-b762-0ce4820280ec" d="M487.5,39.3c-9.1,1.2-17,2.7-22.5,7.9a319.9,319.9,0,0,0-41.3,47.7c-3.1,4.4-6,8.9-6.1,13.7s3,9.5,8.4,11.8q-53.1,1.2-104.9,1.3a60.1,60.1,0,0,0,29.7-8.2c9.2-5.4,15.9-12.4,22.4-19.3,8.6-9.1,17.3-18.2,26-27.2,3.7-3.9,7.5-7.9,9.3-12.4s1.5-9.6-2.6-13.4a17.1,17.1,0,0,0-7-3.5C429.2,38,458.7,38.6,487.5,39.3Z"/><path class="eb61a2e3-d14a-427e-961a-34c9d2ef9b62" d="M460,100.4a9.1,9.1,0,0,1,3.2,4.7,12.8,12.8,0,0,1,2.8-4.5,20.1,20.1,0,0,1,4.6-3.7,10.3,10.3,0,0,1-1.3-2.4,22.7,22.7,0,0,1-1.1-3.4,38.2,38.2,0,0,1-.8-3.9,28,28,0,0,1-.3-4l2.8-3.8a10.4,10.4,0,0,1,3.3-3.3,13.4,13.4,0,0,1,.6-3.5,38.3,38.3,0,0,1,1.8-4.5q1.2-2.5,2.7-5.1c1-1.8,2.1-3.5,3.2-5.1a38.4,38.4,0,0,1,3.5-4.3,16.6,16.6,0,0,1,3.6-3.1,14.5,14.5,0,0,0-3.2.3l-2.4.5-2.3.6-2.4.2h-1.8l-2.2-.3-2.4-.4a20.4,20.4,0,0,1-2.2-.9,24.9,24.9,0,0,1,1.7,2.4,5.6,5.6,0,0,1,.8,2.7v.6a1.3,1.3,0,0,1-.1.6L465.5,73l-2.4,2.5-2.5-2.6-6.9-16.1a1.3,1.3,0,0,0-.1-.6v-.6a6.6,6.6,0,0,1,.6-2.7,11.2,11.2,0,0,1,1.3-2.4,17.1,17.1,0,0,0-4.7.9,5.3,5.3,0,0,0-3,2.4l-1.3-1.2a10.9,10.9,0,0,0-1.9-1,15.7,15.7,0,0,0-3-.6,35.5,35.5,0,0,0-5-.2,21,21,0,0,1,5.2,4.8,52.9,52.9,0,0,1,4.6,6.7,45.6,45.6,0,0,1,3.1,7.3,22.7,22.7,0,0,1,1.2,6.8,20.3,20.3,0,0,1,3.7,3.1l3.6,3.8-.3,3.5-.6,3.6a33.8,33.8,0,0,1-1.1,3.4,17.7,17.7,0,0,1-1.5,3.1A24.4,24.4,0,0,1,460,100.4ZM415.7,81.2c-.9-1.1-1.8-2.2-2.7-3.1l5.2-16.7,5,16.2a38.5,38.5,0,0,1-2.6,3.4l-2.5,3.2Zm32,20.8a21.2,21.2,0,0,1-5.2-4.6,45,45,0,0,1-4.7-7,46,46,0,0,1-3.5-8.2,26.3,26.3,0,0,1-1.3-8.1,6.9,6.9,0,0,1-1.6-2.1,38.6,38.6,0,0,1-1.7-4.3c-.5-1.6-1-3.4-1.4-5.3a28.1,28.1,0,0,1-.6-5.6,16,16,0,0,1,.5-3.9,7.4,7.4,0,0,1,1.3-3l-1.3.5-2.2.7a11,11,0,0,1-2.6.6l-2.6.4a4.1,4.1,0,0,0-2.3-1.4,11.2,11.2,0,0,0-3.2-.4,27,27,0,0,0-4.8.5A29.6,29.6,0,0,0,406,52l-3.6,1.5a5.4,5.4,0,0,0-1.9,1.4l3.6-.6a13.7,13.7,0,0,1,2.8-.2,5.2,5.2,0,0,1,2.9.6,2.3,2.3,0,0,1,.8,1.9,9.3,9.3,0,0,1-.2,1.4,8.1,8.1,0,0,1-.4,1.9L406.5,72a22.7,22.7,0,0,0-3.9-1.9,9.6,9.6,0,0,0-3.3-.6,11.9,11.9,0,0,0-5.2,1.4v.2h1.1a8.5,8.5,0,0,1,4.8,1.8,24.3,24.3,0,0,1,5,4.1l-2.1,7.3a52.9,52.9,0,0,1-2.1,6,40.4,40.4,0,0,1-2.5,5.1,23.7,23.7,0,0,1-2.7,3.7,5.3,5.3,0,0,1-2.6,1.6,18.8,18.8,0,0,0,6-1.2,15.8,15.8,0,0,0,5.4-3.7l1.7,1.6,1.5,1.3,1.6,1,2.2,1a13.7,13.7,0,0,1-1.7-3.7,17.4,17.4,0,0,1-.5-3.9,22.8,22.8,0,0,1,.2-2.7,25,25,0,0,1,.7-2.6l1-3.4,4.1,6.2c1.3,1.9,2.2,3.4,3,4.4.9-1.8,2-3.7,3.2-5.7s2.5-3.8,3.7-5.5l1.6,5c.3.8.5,1.8.9,3a15,15,0,0,1,.5,3.7,8.3,8.3,0,0,1-.3,2.2,4.8,4.8,0,0,1-.9,1.9l1.9-.5a5.3,5.3,0,0,0,1.5-.8,4.5,4.5,0,0,0,1.4-1l1.5-1.4a52.6,52.6,0,0,0,7.1,3.6c2.4,1,4.9,2,7.3,2.8Zm-33,7-2.4.2H410a29.7,29.7,0,0,1-4.2-.3,25.7,25.7,0,0,1-4.4-1.1l-4.7-2c-1.7-.8-3.6-1.9-5.6-3.1.4.8.8,1.6,1.4,2.6a29.6,29.6,0,0,0,1.6,2.6,22.6,22.6,0,0,1-4.5-2.2,44.1,44.1,0,0,1-5.3-3.5,28,28,0,0,1-4.4-3.8,7.7,7.7,0,0,1-2.3-3.2,4.9,4.9,0,0,1,2.2-2.3l2.6-1.2a4.9,4.9,0,0,1-.9-1.5c-.2-.8-.5-1.6-.7-2.6a33.9,33.9,0,0,1-.4-3.5c-.1-1.3-.2-2.6-.2-4.1V63.7a17.6,17.6,0,0,1,.7-4.5,20.4,20.4,0,0,1,1.8-4.2,14.4,14.4,0,0,1,2.6-3.2,4.8,4.8,0,0,1,3.1-1.2,13.7,13.7,0,0,0-2.8-.2l-3.7.2-3.8.6-4.1.6a36.4,36.4,0,0,1-4.8.3h-2.3l-2.3-.2,2.9,1.9a6.4,6.4,0,0,1,2,1.6,6.1,6.1,0,0,1,1.1,2.7,18.9,18.9,0,0,1,.4,4.7,21.2,21.2,0,0,1-.7,5.7,23.7,23.7,0,0,1-2.5,6.2,10.2,10.2,0,0,1,1.8,2.3,8.2,8.2,0,0,1,1,2.6,14.7,14.7,0,0,1,.5,2.9c.1,1,.2,1.9.2,2.8a33.8,33.8,0,0,1-1.3,9,19.5,19.5,0,0,1-3.8,7.3,29.8,29.8,0,0,1,4.2-.4,9.9,9.9,0,0,1,4.2.9,26.6,26.6,0,0,1,3.8,2.4c1.3.9,2.5,1.9,3.8,3a33,33,0,0,0,4.3,3,23.9,23.9,0,0,0,5.1,2.3,21.1,21.1,0,0,0,6.4.9,57.7,57.7,0,0,0,7.8-.6,32.7,32.7,0,0,0,9.2-3.2ZM348.3,75.8a3.8,3.8,0,0,0-.9,1.3l-1.5-.6-2.3-.4-2.8-.3h-5.7V57.5l3.3.9,3.3,1,3.4.9,3.9.9c.1,1,.1,2.1.1,3.4s.1,2.7.1,4,.1,2.5.1,3.6.1,2,.1,2.6A4.7,4.7,0,0,0,348.3,75.8Zm2.6,6.7a14.3,14.3,0,0,1,2.3-2l2.7-1.5,3.7-1.3a17.6,17.6,0,0,1-1.7-4.2,21.7,21.7,0,0,1-.4-4.7c0-1.3,0-2.6.1-3.9s.3-2.7.5-4.1a15.6,15.6,0,0,0,2-1.6,14.6,14.6,0,0,0,1.6-1.9l1.2-1.9.8-1.7-1.7.2h-1.8a32.6,32.6,0,0,1-6-.7c-2.2-.4-4.2-.9-6.1-1.4l-5-1.8a13,13,0,0,1-2.8-1.5,31.5,31.5,0,0,1-6.6,3.1,24.7,24.7,0,0,1-6,.8,21.1,21.1,0,0,1-3.5-.2l-4-.5a8.2,8.2,0,0,0,5.8,7.7,10.9,10.9,0,0,1,.1,1.8c0,.6.1,1.2.1,1.8a37.1,37.1,0,0,1-.7,6.7,14.4,14.4,0,0,1-2.5,6.1,10.2,10.2,0,0,1,2.1,4.3,24.5,24.5,0,0,1,.8,6.2,22.2,22.2,0,0,1-.7,5.7,12,12,0,0,1-1.9,4.6,25.1,25.1,0,0,1,5.5,3.9,14.5,14.5,0,0,1,3.7,5,50.3,50.3,0,0,1,3-4.8,15.9,15.9,0,0,1,4.4-4.1,8.4,8.4,0,0,1-3.5-4.3,16.8,16.8,0,0,1-1.2-6.3V83.4c2.7,0,5.2.1,7.6.3a23.6,23.6,0,0,1,6.2,1.1ZM280.7,98.8a11.2,11.2,0,0,1,3.8-.6,57.2,57.2,0,0,1,9.6.8,69.8,69.8,0,0,1,10.8,2.4,24.5,24.5,0,0,1,3.1-2.3l2.6-1.5a11.9,11.9,0,0,1,2.3-.7l2.2-.4a19.5,19.5,0,0,1-.8-4.1,55.3,55.3,0,0,1-.3-6.1,27.2,27.2,0,0,1,.1-2.8c0-1,.1-2,.2-3h-.4c-1.7,2-3.4,4-4.9,6.1a17.2,17.2,0,0,0-3.3,7.1l-10.9-1.1c-.2-1.8-.3-4-.4-6.4s-.1-5-.1-7.8V77.2a6.4,6.4,0,0,1,2-.3H298a3,3,0,0,1,1.5.5,6.8,6.8,0,0,1,1.2,1.2,9.1,9.1,0,0,1,1.1,1.6l1,1.5.7-1.8.9-2.1a12.8,12.8,0,0,1,1.1-2,5.8,5.8,0,0,1,1.1-1.5,3,3,0,0,1-1.2-1.3,13.4,13.4,0,0,1-1.7-4,13.4,13.4,0,0,1-.7-1.8,11.8,11.8,0,0,1-2.6,2.8,4,4,0,0,1-2.7,1.1h-1.4l-1.9-.2c.1-2.7.2-5.3.4-7.7s.5-4.5.8-6.2h5.7l3.5.2a5,5,0,0,1,2.2,1,13.8,13.8,0,0,0,1.6,3.9,8.8,8.8,0,0,0,3.3,2.9l.4-.2c.1-.7.2-1.8.4-3.2s.5-2.8.7-4.3.5-2.9.8-4.2a21.6,21.6,0,0,1,.8-2.6h-1.6c-1.7,0-4,.2-6.9.5s-6.7.4-11.4.4H288a77,77,0,0,1-7.9-.7,11.9,11.9,0,0,0,2.4,3.6,8.9,8.9,0,0,0,3.1,2.1c0,.4.1,1,.1,1.7a20.1,20.1,0,0,1,.1,2.6c0,1.2-.1,2.5-.1,3.9a29,29,0,0,1-.6,4.1,22.4,22.4,0,0,1-1,3.7,9.1,9.1,0,0,1-1.8,2.7,9.2,9.2,0,0,1,1.8,4.1,24.4,24.4,0,0,1,.6,5.5,31.9,31.9,0,0,1-.3,4.2,20.4,20.4,0,0,1-.8,4.3,26.4,26.4,0,0,1-1.3,3.7,5.1,5.1,0,0,1-1.7,2.2Zm-33.3-4,12.7-24.1V82.9c0,1.4-.1,2.8-.1,4.2s-.2,2.7-.4,3.9a15.9,15.9,0,0,1-.9,3.3,7.4,7.4,0,0,1-1.7,2.4,18.2,18.2,0,0,1,2.7,1.5l2.6,2a19.2,19.2,0,0,1,1.9,2.3,6.9,6.9,0,0,1,1.2,2.2,8,8,0,0,1,1.3-2.1,21.8,21.8,0,0,1,2.1-2.2l2.6-2,2.7-1.7a8.9,8.9,0,0,1-3.5-4.3,16.8,16.8,0,0,1-1.2-6.3,19.7,19.7,0,0,1,1-6.3,23.4,23.4,0,0,1,2.1-5.2,39,39,0,0,1-2.5-5.8,15.5,15.5,0,0,1-.8-5.1,24.8,24.8,0,0,1,.2-3.9,15.3,15.3,0,0,1,.8-3.7,10.6,10.6,0,0,1,1.8-3.3,13.2,13.2,0,0,1,3.2-3l-4.4.7-4.6.6-4.8.5H255a14.5,14.5,0,0,1,2.7,2.9,23.8,23.8,0,0,1,1.8,3.9L248.7,80.3,235.7,58a5.5,5.5,0,0,1,.3-1.7,6.4,6.4,0,0,1,.6-1.8,6,6,0,0,1,.9-1.5,4,4,0,0,1,1-1.2H236a38.4,38.4,0,0,1-5-.3l-4.2-.6-3.5-.7-2.9-.2h-1.5a23,23,0,0,1,6,6.1,13.6,13.6,0,0,1,2.1,7.4,23.3,23.3,0,0,1-3.2,10.9,16.8,16.8,0,0,1,2.3,4.9,20.6,20.6,0,0,1-.1,11,26.6,26.6,0,0,1-2,5.6,32,32,0,0,1-2.9,5.1,30.8,30.8,0,0,1-3.7,4.2,27,27,0,0,0,4.4-1.7,22.2,22.2,0,0,0,3.4-2.2,11.8,11.8,0,0,0,2.5-2.5,21.1,21.1,0,0,0,2-2.9l2.5,2,2.1,1.3,2.1.9,2.5.8a25.8,25.8,0,0,1-2.2-3.1,9.8,9.8,0,0,1-1.5-3.6,26.2,26.2,0,0,1-.9-4.7,67.5,67.5,0,0,1-.2-6.8V73l12.2,21.6ZM192.6,81.2c-.9-1.1-1.8-2.2-2.7-3.1l5.2-16.7,5,16.2L197.5,81c-.9,1.2-1.8,2.2-2.5,3.2Zm32,20.8a21.2,21.2,0,0,1-5.2-4.6,38.9,38.9,0,0,1-4.7-7,39.7,39.7,0,0,1-3.5-8.2,26.3,26.3,0,0,1-1.3-8.1,5.6,5.6,0,0,1-1.6-2.1,25.7,25.7,0,0,1-1.7-4.3c-.5-1.6-1-3.4-1.4-5.3a28.1,28.1,0,0,1-.6-5.6,23.4,23.4,0,0,1,.4-3.9,9.2,9.2,0,0,1,1.4-3l-1.3.5-2.2.7a12.2,12.2,0,0,1-2.6.6l-2.6.4a4.1,4.1,0,0,0-2.3-1.4,11.9,11.9,0,0,0-3.3-.4,25.9,25.9,0,0,0-4.7.5,29.6,29.6,0,0,0-4.5,1.2l-3.6,1.5a4.6,4.6,0,0,0-1.9,1.4l3.6-.6a12.7,12.7,0,0,1,2.7-.2,5,5,0,0,1,2.9.6,2.1,2.1,0,0,1,.9,1.9,9.3,9.3,0,0,1-.2,1.4c-.1.5-.2,1.2-.4,1.9L183.4,72a22.7,22.7,0,0,0-3.9-1.9,10.6,10.6,0,0,0-3.4-.6,12.3,12.3,0,0,0-5.2,1.4v.2h1.1a9,9,0,0,1,4.8,1.8,27.2,27.2,0,0,1,5,4.1l-2.1,7.3a52.9,52.9,0,0,1-2.1,6c-.8,1.9-1.7,3.6-2.5,5.1a23.7,23.7,0,0,1-2.7,3.7,5.7,5.7,0,0,1-2.6,1.6,18.8,18.8,0,0,0,6-1.2,15.8,15.8,0,0,0,5.4-3.7,12,12,0,0,0,1.7,1.6l1.5,1.3,1.6,1a15.6,15.6,0,0,0,2.2,1,13.7,13.7,0,0,1-1.7-3.7,17.4,17.4,0,0,1-.5-3.9,22.8,22.8,0,0,1,.2-2.7l.6-2.6,1.1-3.4,4.1,6.2a52.6,52.6,0,0,0,3,4.4,56.7,56.7,0,0,1,3.2-5.7c1.2-2,2.5-3.8,3.7-5.5l1.6,5,.8,3a11.4,11.4,0,0,1,.5,3.7,16.4,16.4,0,0,1-.2,2.2,4.8,4.8,0,0,1-.9,1.9l1.9-.5,1.5-.8a6.1,6.1,0,0,0,1.4-1l1.5-1.4a52.6,52.6,0,0,0,7.1,3.6c2.4,1,4.8,2,7.3,2.8ZM163.7,65.5c.1-.9.2-1.8.4-2.9s.3-2.3.5-3.6a19.3,19.3,0,0,1,.6-3.6c.2-1.2.4-2.2.6-3.2s.4-1.6.5-2h-1.6c-1.7,0-4.1.2-7.1.5s-7.1.4-11.9.4h-7a74.6,74.6,0,0,1-7.9-.7,11.6,11.6,0,0,0,2.3,3.6,8.9,8.9,0,0,0,3.1,2.1c.1.4.1,1,.2,1.7v2.6c0,1.2,0,2.5-.1,3.9s-.3,2.7-.5,4.1a22.6,22.6,0,0,1-1.1,3.7,7.3,7.3,0,0,1-1.7,2.7,10.5,10.5,0,0,1,1.7,4.1,24.4,24.4,0,0,1,.6,5.5c0,1.3-.1,2.5-.2,3.8a26.6,26.6,0,0,1-.8,3.3,7.3,7.3,0,0,1-1.2,2.5,3.2,3.2,0,0,1-1.8,1.3c1.4.5,3.1.9,5,1.4l6.1,1.7a60.8,60.8,0,0,1,6.4,2.2,34.5,34.5,0,0,1,6.1,3,34.2,34.2,0,0,1,6.4-4.6,23.5,23.5,0,0,1,5.7-2.3,7.5,7.5,0,0,1-.3-1.7c-.1-.9-.2-2.1-.3-3.4s-.2-2.9-.3-4.6l-.3-5.3a4.5,4.5,0,0,1,.4-1.8l.9-2.1c.4-.7.7-1.4,1-2l.7-1.5a8.1,8.1,0,0,1-3.1,1,24.1,24.1,0,0,1-4,.3l-4.5-.3a39.7,39.7,0,0,1-4.8-.7l-.5,1.2a11.1,11.1,0,0,1-.7,1.6c-.2.6-.5,1.1-.7,1.6l-.7,1.2,3.2.3,2,.4,1.3.4,1.4.2c.1,1.1.1,2.2.1,3.3s.1,2.6.1,4.3,0,2.8-.1,4a11.6,11.6,0,0,1-.1,2.2l-4-.3-2.6-.4-2.5-.6-3.1-.8c0-1.5,0-3.1-.1-4.9V82.7c-.1-1.9-.1-3.8-.1-5.7V71.4c0-3.3,0-6.3.2-9a25.5,25.5,0,0,1,.7-5.5h5.1l4.1.2a5.7,5.7,0,0,1,2.9,1,22.9,22.9,0,0,0,.7,2.8,8.7,8.7,0,0,0,1,2.4,7,7,0,0,0,1.4,2.1,14.2,14.2,0,0,0,2.2,1.8A11.4,11.4,0,0,1,163.7,65.5Z"/><path class="fb32082c-19b9-4a16-8aa4-9231dae5e70f" d="M460,100.4l-.5.6a7.9,7.9,0,0,1,2.9,4.3l.6,2.5.9-2.4a13,13,0,0,1,2.6-4.3,33.6,33.6,0,0,1,4.6-3.6l.8-.5-.7-.7a6.4,6.4,0,0,1-1.2-2.1,18.7,18.7,0,0,1-1-3.3c-.3-1.2-.6-2.5-.8-3.8a27.7,27.7,0,0,1-.3-3.9h-.8l.6.5c.9-1.2,1.9-2.5,2.8-3.9a12.6,12.6,0,0,1,3.1-3l.4-.2v-.5a11.6,11.6,0,0,1,.6-3.2,36.7,36.7,0,0,1,1.7-4.5c.8-1.6,1.7-3.3,2.7-5s2-3.4,3.1-5a38.4,38.4,0,0,1,3.5-4.3,17,17,0,0,1,3.4-2.9l2.3-1.5h-2.7a17.2,17.2,0,0,0-3.4.3l-2.4.5-2.2.6a8.2,8.2,0,0,1-2.3.2h-1.8a17.7,17.7,0,0,1-2.1-.3l-2.3-.4-2-.8L467,48.3l2.1,2.7,1.6,2.3a4.1,4.1,0,0,1,.7,2.3v.6a1.1,1.1,0,0,1-.1.5h.8l-.7-.3-6.6,16-1.7,1.8-1.8-1.8-6.8-16-.8.3h.8c0-.2-.1-.4-.1-.6v-.5a6.4,6.4,0,0,1,.5-2.3,12.4,12.4,0,0,1,1.2-2.3l1-1.4h-1.7a15.8,15.8,0,0,0-4.9,1,6.2,6.2,0,0,0-3.4,2.7l.7.4.5-.5L447,52a10.3,10.3,0,0,0-2.1-1.1,19.4,19.4,0,0,0-3.2-.7,37.1,37.1,0,0,0-5.1-.2h-2.7l2.2,1.4a22.2,22.2,0,0,1,5.1,4.7,38.4,38.4,0,0,1,4.5,6.6,34.3,34.3,0,0,1,3,7.2,20.9,20.9,0,0,1,1.2,6.5v.5l.4.2a17.9,17.9,0,0,1,3.5,2.9l3.6,3.8.6-.5h-.8l-.3,3.5-.6,3.5a25.8,25.8,0,0,1-1,3.3,15.7,15.7,0,0,1-1.5,2.9l-.4.8.8.4a26.6,26.6,0,0,1,5.3,3.4l.5-.6.5-.6a36.2,36.2,0,0,0-5.6-3.7l-.4.8.7.4a23.9,23.9,0,0,0,1.6-3.2,20.1,20.1,0,0,0,1-3.5c.3-1.3.5-2.5.7-3.7s.2-2.5.3-3.6V83l-.3-.3-3.6-3.8a15.2,15.2,0,0,0-3.8-3.1l-.4.6h.8a23.9,23.9,0,0,0-1.2-7,48.3,48.3,0,0,0-3.2-7.5,54,54,0,0,0-4.6-6.8,25.2,25.2,0,0,0-5.5-5l-.4.7v.8a34,34,0,0,1,4.9.2,9.8,9.8,0,0,1,2.9.6,5,5,0,0,1,1.5.8l1.3,1.2.7.7.6-.9a4.2,4.2,0,0,1,2.6-2,14.9,14.9,0,0,1,4.4-.9v-.8l-.7-.5a21.5,21.5,0,0,0-1.4,2.6,8,8,0,0,0-.6,3v.7a6.4,6.4,0,0,1,.2.7h0l6.9,16.3,3.2,3.2,3.1-3.2L472.9,57h0a2.2,2.2,0,0,0,.1-.8v-.6a5.9,5.9,0,0,0-.9-3.1L470.4,50l-.7.5-.3.7a9.2,9.2,0,0,0,2.3.9l2.5.5,2.2.3h1.9a10.3,10.3,0,0,0,2.6-.3l2.2-.5,2.4-.5a13.5,13.5,0,0,1,3.1-.3v-.8l-.5-.7a25.5,25.5,0,0,0-3.7,3.2,44.3,44.3,0,0,0-3.6,4.5c-1.1,1.6-2.2,3.3-3.2,5.1s-1.9,3.5-2.7,5.1a31.6,31.6,0,0,0-1.8,4.7,11.8,11.8,0,0,0-.7,3.7h.8l-.5-.7a12,12,0,0,0-3.5,3.6c-.9,1.3-1.8,2.5-2.8,3.7v.5a28.3,28.3,0,0,0,.3,4.1c.2,1.4.5,2.7.8,4a23.8,23.8,0,0,0,1.2,3.5,8.9,8.9,0,0,0,1.4,2.6l.6-.5-.4-.7a25.1,25.1,0,0,0-4.8,3.8,13.1,13.1,0,0,0-3,4.8l.8.3.7-.2a8.9,8.9,0,0,0-3.4-5.1ZM415.7,81.2l.6-.5a28.6,28.6,0,0,0-2.7-3.1l-.6.5.8.3,4.4-14.3,4.2,13.7.8-.2-.7-.4a35.9,35.9,0,0,1-2.5,3.3l-2.5,3.3.6.4.6-.5-2.4-3-.6.5-.6.5c.8,1.1,1.7,2.1,2.4,3l.6.8.7-.8,2.4-3.2a25.6,25.6,0,0,0,2.6-3.4l.3-.4-5.9-19.1-6.1,19.7.4.4,2.6,3Zm32,20.8.4-.6a22.3,22.3,0,0,1-5-4.5,39.4,39.4,0,0,1-4.6-6.9,43.7,43.7,0,0,1-3.4-8,25.6,25.6,0,0,1-1.3-7.9v-.5l-.4-.2a4.8,4.8,0,0,1-1.2-1.8,23.1,23.1,0,0,1-1.7-4.1,37.1,37.1,0,0,1-1.4-5.3,26.2,26.2,0,0,1-.6-5.4,22.1,22.1,0,0,1,.4-3.7,10.3,10.3,0,0,1,1.2-2.8l2.2-3.1-3.2,2-1.2.5-2.1.7-2.6.6-2.4.3v.8l.7-.5a5.3,5.3,0,0,0-2.8-1.7,19.7,19.7,0,0,0-3.4-.4,28.1,28.1,0,0,0-4.9.5c-1.7.3-3.2.8-4.7,1.2a25.7,25.7,0,0,0-3.7,1.6,6.6,6.6,0,0,0-2.2,1.6l-1,1.6,1.9-.4,3.5-.5a12.3,12.3,0,0,1,2.7-.2,5.1,5.1,0,0,1,2.4.4c.3.2.5.5.5,1.3s-.1.7-.1,1.3-.3,1.1-.5,1.8l-3.5,12,.8.3.4-.7a23.2,23.2,0,0,0-4-1.9,9.2,9.2,0,0,0-3.6-.7,12.1,12.1,0,0,0-5.6,1.5l-.6.3.3.9.2.6h1.6a8.2,8.2,0,0,1,4.4,1.6,36.4,36.4,0,0,1,4.8,4l.6-.5-.8-.2L402.1,84c-.6,2.1-1.3,4-2,5.9a46.5,46.5,0,0,1-2.5,5,17.6,17.6,0,0,1-2.5,3.5,4.3,4.3,0,0,1-2.2,1.4v1.6a20.7,20.7,0,0,0,6.3-1.2,19.3,19.3,0,0,0,5.7-3.9l-.6-.6-.5.6,1.7,1.6,1.5,1.3a18.8,18.8,0,0,0,1.8,1.2l2.3.9,2.3.8-1.4-2a11.7,11.7,0,0,1-1.6-3.4A15.7,15.7,0,0,1,410,93a21.1,21.1,0,0,1,.2-2.6l.6-2.5,1.1-3.4-.8-.2-.7.5c1.6,2.2,2.9,4.2,4.2,6.1l2.9,4.5.8,1,.6-1.1c.9-1.8,2-3.7,3.2-5.7a46.3,46.3,0,0,1,3.7-5.4l-.7-.5-.7.3,1.5,4.9a28.2,28.2,0,0,1,.9,3,13.4,13.4,0,0,1,.5,3.5,6.4,6.4,0,0,1-.3,2,3.4,3.4,0,0,1-.7,1.6l-1.6,1.8,2.4-.5,2-.6,1.6-.8a4.2,4.2,0,0,0,1.5-1.1l1.6-1.4-.6-.6-.4.7c2.4,1.4,4.8,2.6,7.2,3.7l7.4,2.8.7.3.3-1,.2-.6-.5-.3-.4.6-.8-.2v.2l.7.2.3-.7-7.3-2.8a58.1,58.1,0,0,1-7-3.6l-.5-.3-.5.4a9.2,9.2,0,0,1-1.4,1.4l-1.3,1-1.4.6-1.8.5.2.8.6.5a5.1,5.1,0,0,0,1.1-2.2,9.9,9.9,0,0,0,.3-2.4,12.3,12.3,0,0,0-.6-3.9c-.3-1.2-.6-2.2-.8-3.1L425.4,82l-.9,1.2c-1.3,1.7-2.5,3.5-3.8,5.6s-2.3,3.9-3.2,5.7l.7.4.6-.5L415.9,90c-1.2-1.9-2.6-3.9-4.1-6.1l-1-1.4-1.5,5a12.2,12.2,0,0,0-.6,2.6,14.3,14.3,0,0,0-.3,2.9,14,14,0,0,0,.6,4.1,9.9,9.9,0,0,0,1.8,3.9l.6-.4.3-.8-2.1-.9-1.5-.9a8.6,8.6,0,0,1-1.4-1.3l-1.8-1.5-.5-.6-.5.6a19,19,0,0,1-5.2,3.5,19.9,19.9,0,0,1-5.7,1.1v.8l.2.7a5.4,5.4,0,0,0,3-1.8,17,17,0,0,0,2.8-3.8,36.1,36.1,0,0,0,2.5-5.2,54.8,54.8,0,0,0,2.2-6.1l2.2-7.7-.3-.4a33.5,33.5,0,0,0-5.1-4.2,10.1,10.1,0,0,0-5.3-1.9H394v.8l.8-.2v-.2l-.7.2.3.7a10.9,10.9,0,0,1,4.9-1.3,8.4,8.4,0,0,1,3,.6,15.8,15.8,0,0,1,3.8,1.8l.9.4,3.8-12.9c.2-.8.3-1.5.4-2.1a10.4,10.4,0,0,0,.2-1.5,3.2,3.2,0,0,0-1.2-2.6,6.2,6.2,0,0,0-3.3-.7l-2.9.2-3.6.6v.8l.7.4a6,6,0,0,1,1.6-1.1,16.9,16.9,0,0,1,3.5-1.4,25.5,25.5,0,0,1,4.4-1.2,24.9,24.9,0,0,1,4.6-.5,10.3,10.3,0,0,1,3,.4,3.2,3.2,0,0,1,1.9,1.1l.3.3h.4l2.6-.4a18.1,18.1,0,0,0,2.7-.6l2.3-.7,1.4-.7-.4-.6-.7-.5a11.6,11.6,0,0,0-1.4,3.4,16.8,16.8,0,0,0-.5,4,28.3,28.3,0,0,0,.6,5.7A39.9,39.9,0,0,0,429,68a25.7,25.7,0,0,0,1.7,4.3,7.7,7.7,0,0,0,1.9,2.5l.4-.7h-.8a28.9,28.9,0,0,0,1.4,8.4,40.5,40.5,0,0,0,3.5,8.3,40.1,40.1,0,0,0,4.8,7.1,23.3,23.3,0,0,0,5.4,4.8l.4-.7-.8-.2Zm-33,7v-.8l-2.5.2H410a27.3,27.3,0,0,1-4.1-.3,18.7,18.7,0,0,1-4.2-1.1c-1.4-.5-3-1.1-4.7-1.9s-3.5-1.9-5.4-3.1l-2.3-1.3,1.1,2.4c.4.7.8,1.6,1.4,2.6a13,13,0,0,0,1.7,2.6l.6-.4.3-.8a24.1,24.1,0,0,1-4.4-2.1,42.1,42.1,0,0,1-5.2-3.4,43.1,43.1,0,0,1-4.4-3.8,8.9,8.9,0,0,1-2.1-2.8l-.7.2.7.4a3.5,3.5,0,0,1,1.9-1.9l2.5-1.2,1.1-.5-.9-.8a5.4,5.4,0,0,1-.6-1.3,12.6,12.6,0,0,1-.7-2.5,29,29,0,0,1-.4-3.4c-.1-1.2-.2-2.5-.2-4V63.7a13.3,13.3,0,0,1,.7-4.3,16.1,16.1,0,0,1,1.7-4,12.2,12.2,0,0,1,2.4-3,4.1,4.1,0,0,1,2.6-1V49.8a14.6,14.6,0,0,0-2.9-.2l-3.8.2-3.8.6-4.1.6a33.8,33.8,0,0,1-4.7.3H367l-2.4-.2-3.2-.3,2.7,1.8,3,1.9a8.6,8.6,0,0,1,1.8,1.4,7.1,7.1,0,0,1,1,2.3,26.1,26.1,0,0,1,.3,4.6,21,21,0,0,1-.7,5.6,24.4,24.4,0,0,1-2.4,5.9l-.3.6.5.4a7.4,7.4,0,0,1,1.6,2,26,26,0,0,1,1,2.5,23.6,23.6,0,0,1,.4,2.8,24.5,24.5,0,0,1,.2,2.7,30.5,30.5,0,0,1-1.2,8.7,20,20,0,0,1-3.7,7.1l-1.4,1.7,2.1-.4a29.9,29.9,0,0,1,4.1-.4,8.6,8.6,0,0,1,3.9.9,23.2,23.2,0,0,1,3.6,2.2c1.3.9,2.5,1.9,3.8,3a49.1,49.1,0,0,0,4.4,3.1,25.8,25.8,0,0,0,5.3,2.4,21.9,21.9,0,0,0,6.6.9,57.9,57.9,0,0,0,7.9-.6,36.7,36.7,0,0,0,9.5-3.2l.6-.3-.7-2.2h-.6v.8l-.7.2.2.9.8-.3-.4-.7a27.6,27.6,0,0,1-9,3.1,53.8,53.8,0,0,1-7.6.6,21,21,0,0,1-11.1-3.1,33,33,0,0,1-4.1-2.9l-3.9-3.1a32.6,32.6,0,0,0-4-2.4,11,11,0,0,0-4.5-1,34.2,34.2,0,0,0-4.4.4l.2.8.6.5a21.2,21.2,0,0,0,4-7.6,34.6,34.6,0,0,0,1.3-9.2c0-.9-.1-1.9-.2-2.9a15.7,15.7,0,0,0-.5-3,10.4,10.4,0,0,0-3.1-5.3l-.5.6.7.4a25.3,25.3,0,0,0,2.6-6.4,23.2,23.2,0,0,0,.7-5.9,21.3,21.3,0,0,0-.4-4.9,6.9,6.9,0,0,0-1.3-3,7.9,7.9,0,0,0-2.2-1.8L365,51.1l-.4.7v.8l2.4.2h2.3a37.9,37.9,0,0,0,4.9-.3l4.2-.6,3.7-.6,3.6-.2a13.2,13.2,0,0,1,2.7.2V49.8a5.6,5.6,0,0,0-3.6,1.4,13.8,13.8,0,0,0-2.8,3.4,19.5,19.5,0,0,0-1.9,4.4,19.1,19.1,0,0,0-.7,4.7V80.1c0,1.5.1,2.9.2,4.2a29.4,29.4,0,0,0,.5,3.5,16.3,16.3,0,0,0,.7,2.8,6.1,6.1,0,0,0,1,1.8l.6-.6-.3-.7-2.7,1.2a5.7,5.7,0,0,0-2.5,2.6l-.2.3v.3a9.8,9.8,0,0,0,2.5,3.6,44.6,44.6,0,0,0,9.9,7.4,21.1,21.1,0,0,0,4.7,2.2l2.4.8-1.5-2a12,12,0,0,1-1.6-2.5,20.5,20.5,0,0,1-1.3-2.5l-.8.3-.4.7c2,1.2,3.9,2.3,5.6,3.1l4.9,2.1a25.7,25.7,0,0,0,4.4,1.1,32.5,32.5,0,0,0,4.4.3h2.3l2.5-.2V109l-.7.2ZM348.3,75.8l-.6-.6a5.4,5.4,0,0,0-1,1.6l.7.3.4-.7a5.4,5.4,0,0,0-1.7-.7l-2.4-.4-2.8-.3H335v.8h.8V57.5h-.8l-.2.7,3.3,1,3.2.9,3.5,1,4,.9v-.8h-.8c.1,1,.1,2.1.1,3.5s.1,2.6.1,3.9.1,2.5.1,3.6.1,2,.1,2.7h.8l-.4-.7-1.3,1.1.6.6.6.5.9-.8.5-.3v-.4c0-.6-.1-1.5-.1-2.6s0-2.3-.1-3.7-.1-2.5-.1-3.9,0-2.5-.1-3.5v-.6h-.6l-3.9-.9-3.4-.9-3.3-1-3.3-.9-.9-.3V76.7h6.5l2.7.3,2.2.4a3.2,3.2,0,0,1,1.3.5l.8.4.3-.8a7.6,7.6,0,0,1,.8-1.1Zm2.6,6.7.6.5a16.8,16.8,0,0,1,2.1-1.8l2.6-1.5,3.6-1.2.9-.3-.4-.8a18.1,18.1,0,0,1-1.6-4.1,19.8,19.8,0,0,1-.4-4.5c0-1.3,0-2.5.1-3.9s.3-2.6.5-4h-.8l.5.7,2-1.7a15.1,15.1,0,0,0,1.7-2l1.3-2,.8-1.8.6-1.3-1.4.2-1.7.2h-1.7a31.9,31.9,0,0,1-5.9-.6c-2.1-.5-4.1-.9-6-1.5a33,33,0,0,1-4.8-1.7,14.9,14.9,0,0,1-2.7-1.4l-.4-.3-.5.2a25.9,25.9,0,0,1-6.5,3,17.9,17.9,0,0,1-5.7.8,20,20,0,0,1-3.4-.2l-4-.5h-1v1a9.7,9.7,0,0,0,2.1,5.6,9.3,9.3,0,0,0,4.3,2.7l.2-.7h-.8a10.9,10.9,0,0,1,.1,1.8c0,.6.1,1.2.1,1.8a37,37,0,0,1-.7,6.6,13.9,13.9,0,0,1-2.3,5.8l-.4.5.5.5a10.1,10.1,0,0,1,1.9,3.9,27.4,27.4,0,0,1,.7,6,25.1,25.1,0,0,1-.6,5.5,14.9,14.9,0,0,1-1.9,4.4l-.5.7.8.4a24,24,0,0,1,5.3,3.7,12.8,12.8,0,0,1,3.5,4.8l.6,1.6.9-1.5a28,28,0,0,1,3-4.8,15.2,15.2,0,0,1,4.1-3.8l1-.7-1-.7a7.9,7.9,0,0,1-3.2-3.9,17.3,17.3,0,0,1-1.1-6V83.4h-.8v.8q4.1,0,7.5.3a20.7,20.7,0,0,1,6,1.1l.5.2.4-.5,1.9-2.3-.6-.5-.5-.6c-.7.7-1.4,1.6-2.1,2.4l.7.5.2-.7a20.8,20.8,0,0,0-6.4-1.2c-2.3-.2-4.9-.3-7.6-.3h-.8v3.5a18.4,18.4,0,0,0,1.2,6.6,11.2,11.2,0,0,0,3.8,4.7l.5-.7-.5-.6a18.3,18.3,0,0,0-4.5,4.2,37.6,37.6,0,0,0-3.1,4.9l.7.4.7-.3a14.8,14.8,0,0,0-3.9-5.3,23.9,23.9,0,0,0-5.6-4l-.4.7.6.5a12.8,12.8,0,0,0,2.1-4.9,23.2,23.2,0,0,0,.7-5.9,26.1,26.1,0,0,0-.8-6.4,9.5,9.5,0,0,0-2.3-4.6l-.6.5.7.5a16.3,16.3,0,0,0,2.6-6.4,40.2,40.2,0,0,0,.6-6.9V61.3a12.1,12.1,0,0,0-.1-1.9v-.5l-.5-.2a7.7,7.7,0,0,1-3.6-2.3,8.1,8.1,0,0,1-1.7-4.7h-.8v.8l4,.5a23,23,0,0,0,3.6.2,21.6,21.6,0,0,0,6.2-.9,26.4,26.4,0,0,0,6.8-3.1l-.4-.7-.5.6a17.5,17.5,0,0,0,3,1.7,43.5,43.5,0,0,0,5.1,1.7,54.4,54.4,0,0,0,6.1,1.5,34.6,34.6,0,0,0,6.2.7H362l1.8-.2v-.8l-.7-.3-.8,1.6L361,56.9a11.9,11.9,0,0,1-1.5,1.8l-1.8,1.4-.3.2v.4c-.2,1.4-.3,2.7-.5,4.1s-.1,2.7-.1,4a17.3,17.3,0,0,0,.5,4.8,18.8,18.8,0,0,0,1.6,4.5l.8-.4-.3-.7a26.4,26.4,0,0,0-3.7,1.3,15.7,15.7,0,0,0-2.9,1.6l-2.3,2ZM280.7,98.8l.2.7a13.6,13.6,0,0,1,3.6-.6,57,57,0,0,1,9.5.9,71.2,71.2,0,0,1,10.7,2.4h.4l.3-.3,3-2.3a15.1,15.1,0,0,1,2.5-1.3,7,7,0,0,1,2.2-.7l2.1-.4h1l-.3-.9a18.3,18.3,0,0,1-.8-4,53.4,53.4,0,0,1-.3-6,27.2,27.2,0,0,1,.1-2.8c0-.9.1-1.9.2-2.9V80l-1.5-.5-.4.4a73.7,73.7,0,0,0-5,6.1,18.5,18.5,0,0,0-3.3,7.4l.7.2v-.8l-11-1.1v.8h.8c-.2-1.8-.3-3.9-.4-6.3s-.1-5.1-.1-7.8V77.2h-.8l.2.7,1.9-.2H298a1.3,1.3,0,0,1,1,.4,3.5,3.5,0,0,1,1.1,1l1.1,1.5.9,1.5.8,1.5.6-1.6.7-1.8.9-2.1c.3-.7.7-1.3,1-1.9a7.5,7.5,0,0,1,1.1-1.3l.7-.7-.9-.5a5.5,5.5,0,0,1-1-1.1l-.9-1.9-.7-1.9-.6-1.9-.6-1.3-.8,1.2a12.5,12.5,0,0,1-2.5,2.6,3.5,3.5,0,0,1-2.2.9h-1.4l-1.8-.2v.8h.8c.1-2.7.2-5.3.4-7.7a43.4,43.4,0,0,1,.8-6.1h-.8v.8h5.7l3.4.2a3,3,0,0,1,1.8.8l.5-.6h-.7a13.1,13.1,0,0,0,1.6,4.2,10.3,10.3,0,0,0,3.6,3.2l.3.2.8-.4.4-.2v-.4c.1-.7.2-1.8.4-3.2s.4-2.8.7-4.3.5-2.8.8-4.1.6-2,.7-2.4l.6-.9-1.1-.2h-1.8c-1.7,0-4,.2-7,.5s-6.6.4-11.3.4h-7l-7.9-.6-1.3-.2.5,1.3a12.7,12.7,0,0,0,2.5,3.7,9.7,9.7,0,0,0,3.4,2.4l.3-.8h-.8c0,.4.1.9.1,1.6a20.9,20.9,0,0,1,.1,2.6c0,1.2-.1,2.5-.1,3.8s-.3,2.7-.5,4a18.9,18.9,0,0,1-1.1,3.6,7.6,7.6,0,0,1-1.5,2.5l-.5.5.4.5a9.9,9.9,0,0,1,1.6,3.7,23.5,23.5,0,0,1,.6,5.4,30.5,30.5,0,0,1-.3,4.1,20.7,20.7,0,0,1-.8,4.2,19,19,0,0,1-1.2,3.6,4.1,4.1,0,0,1-1.4,1.8l-.6.3.3.9.3.7.7-.3-.2-.7.7-.3h-.1l-.7.2.4.7a4.9,4.9,0,0,0,2-2.6,18.8,18.8,0,0,0,1.4-3.8,31.1,31.1,0,0,0,.8-4.4,34.6,34.6,0,0,0,.3-4.3,21.2,21.2,0,0,0-.7-5.7,11.2,11.2,0,0,0-1.8-4.4l-.7.5.6.6a9.1,9.1,0,0,0,1.9-3,16,16,0,0,0,1.1-3.9,26.5,26.5,0,0,0,.6-4.2c0-1.4.1-2.7.1-3.9a22.6,22.6,0,0,0-.1-2.7c0-.7-.1-1.3-.1-1.7v-.5l-.4-.2a6.3,6.3,0,0,1-2.8-1.9,10,10,0,0,1-2.2-3.3l-.8.3V51c2.8.3,5.5.6,8,.7h7.1c4.7,0,8.6-.1,11.5-.4s5.2-.5,6.8-.5h1.5v-.8l-.7-.3a13.1,13.1,0,0,0-.9,2.8c-.2,1.2-.5,2.6-.8,4.1s-.5,3-.7,4.4-.3,2.5-.4,3.2h.8l-.3-.8-.5.2.4.8.3-.7a8,8,0,0,1-3-2.7,15,15,0,0,1-1.4-3.6v-.3l-.3-.2a4.6,4.6,0,0,0-2.6-1,18.6,18.6,0,0,0-3.6-.3H295l-.2.6c-.3,1.8-.6,3.8-.8,6.3s-.3,5-.4,7.8v.7h4.1a4.8,4.8,0,0,0,3.2-1.3,13,13,0,0,0,2.8-2.9l-.7-.5-.7.4a10.7,10.7,0,0,1,.6,1.7,18,18,0,0,0,.8,2.1l1,2a3.9,3.9,0,0,0,1.5,1.6l.4-.7-.6-.5a11.1,11.1,0,0,0-1.2,1.6,12.8,12.8,0,0,0-1.1,2,20.4,20.4,0,0,0-.9,2.2c-.3.7-.6,1.3-.8,1.9l.8.2.7-.3a14,14,0,0,0-1-1.6,9.9,9.9,0,0,0-1.1-1.7,6.1,6.1,0,0,0-1.5-1.3A3.2,3.2,0,0,0,298,76h-1.7a7.8,7.8,0,0,0-2.2.3h-.6v1.8c0,2.8,0,5.4.1,7.8s.2,4.6.4,6.5v.6l12.4,1.3v-.7a18.1,18.1,0,0,1,3.1-6.9c1.5-2,3.2-4,4.9-6l-.6-.5-.2.8h.4l.2-.8h-.8c-.1,1.1-.2,2.1-.2,3.1a26.2,26.2,0,0,0-.1,2.8,57.2,57.2,0,0,0,.3,6.2,23.8,23.8,0,0,0,.8,4.3l.8-.3v-.8l-2.2.4a14.4,14.4,0,0,0-2.5.8l-2.8,1.5a26.3,26.3,0,0,0-3.1,2.4l.5.6.2-.8a71,71,0,0,0-10.9-2.4,58.3,58.3,0,0,0-9.7-.8,10.7,10.7,0,0,0-4.1.7l.3.7.7-.3Zm-33.3-4,.8.3,11.1-21.2v9c0,1.4-.1,2.8-.1,4.2s-.2,2.6-.4,3.8a14,14,0,0,1-.9,3.1,5.5,5.5,0,0,1-1.4,2.1l-1,.9,1.2.5a10.5,10.5,0,0,1,2.6,1.3,23.1,23.1,0,0,1,2.4,2,9.7,9.7,0,0,1,1.9,2.2,8.8,8.8,0,0,1,1,1.9l.7,1.9.8-1.8a9.2,9.2,0,0,1,1.3-1.9,12.9,12.9,0,0,1,2-2.1,15.9,15.9,0,0,1,2.4-2l2.7-1.6,1.2-.6-1.2-.8a7.8,7.8,0,0,1-3.1-3.9,15.3,15.3,0,0,1-1.2-6,24,24,0,0,1,3-11.1l.2-.4-.2-.3a32,32,0,0,1-2.4-5.7,14.6,14.6,0,0,1-.9-4.9,23.4,23.4,0,0,1,.3-3.8,12.8,12.8,0,0,1,.8-3.5,11,11,0,0,1,1.7-3.2,11.7,11.7,0,0,1,3-2.8l2.8-1.9-3.4.5-4.4.7-4.6.6-4.8.5h-6l-3.7-1,2.9,2.4A10.7,10.7,0,0,1,257,55a17.3,17.3,0,0,1,1.7,3.6l.8-.2-.8-.4L248.6,78.6l-12.2-21-.7.4h.8a7.7,7.7,0,0,1,.2-1.5l.6-1.6.8-1.5.9-1,2.2-1.7-2.7.3H236a36.8,36.8,0,0,1-4.9-.3l-4.2-.6-3.5-.6-3-.3a4.7,4.7,0,0,0-1.7.2l-1.6.5,1.3.9a20.2,20.2,0,0,1,5.8,5.9,11.7,11.7,0,0,1,2,6.9,23.5,23.5,0,0,1-3.1,10.6l-.2.4.3.4a14.6,14.6,0,0,1,2.1,4.6,17,17,0,0,1,.7,5.1,25.9,25.9,0,0,1-.7,5.5,36.2,36.2,0,0,1-2,5.5,30.1,30.1,0,0,1-2.9,4.9,37.1,37.1,0,0,1-3.5,4.2l-2.4,2.3,3.1-1a22.1,22.1,0,0,0,4.6-1.8,23.3,23.3,0,0,0,3.5-2.2,16.4,16.4,0,0,0,2.6-2.7,16.1,16.1,0,0,0,2.1-3l-.7-.4-.5.7,2.5,1.9,2.2,1.4a8.5,8.5,0,0,0,2.2.9,13.4,13.4,0,0,0,2.6.8l2.4.7-1.6-1.9a19.1,19.1,0,0,1-2.2-3,21.8,21.8,0,0,1-1.4-3.4,39.3,39.3,0,0,1-.8-4.6,65.4,65.4,0,0,1-.2-6.7V76l10.9,19.3,2.1.4.3-.6-.8-.3.2-.8h-.8L233.3,70V82.9c0,2.7,0,5,.2,6.9a30.7,30.7,0,0,0,.9,4.9,13.8,13.8,0,0,0,1.6,3.7,30.5,30.5,0,0,0,2.2,3.2l.7-.5.2-.8-2.5-.8-2-.8-1.9-1.3a27.7,27.7,0,0,1-2.5-1.9l-.7-.6-.5.8a19.6,19.6,0,0,1-1.9,2.8,13.6,13.6,0,0,1-2.4,2.4,29.6,29.6,0,0,1-3.2,2.1,29.6,29.6,0,0,1-4.3,1.7l.2.7.6.6a26.9,26.9,0,0,0,3.7-4.4,24.3,24.3,0,0,0,3-5.2,27.8,27.8,0,0,0,2.1-5.7,23.3,23.3,0,0,0,.8-5.9,24.3,24.3,0,0,0-.7-5.5,17,17,0,0,0-2.4-5.1l-.7.4.8.4c2.1-4.2,3.2-7.9,3.2-11.3a13.9,13.9,0,0,0-2.2-7.8,24.6,24.6,0,0,0-6.2-6.3l-.5.6.2.8h1.3a14.7,14.7,0,0,1,2.8.2l3.5.7,4.2.6a41.2,41.2,0,0,0,5.1.3h2.6v-.8l-.5-.6a7.7,7.7,0,0,0-1.2,1.3,9.1,9.1,0,0,0-.9,1.7,10.7,10.7,0,0,0-.7,1.9,6.8,6.8,0,0,0-.3,1.9v.2L248.7,82l11.6-23.6v-.3a16.6,16.6,0,0,0-1.8-4,20.1,20.1,0,0,0-2.8-3.1l-.6.6-.2.8h6.6l4.9-.5,4.7-.6,4.3-.7v-.8l-.5-.7a16.8,16.8,0,0,0-3.3,3.2,13.3,13.3,0,0,0-1.9,3.5,13,13,0,0,0-.9,3.9,26.1,26.1,0,0,0-.2,4,17.7,17.7,0,0,0,.8,5.4,41.1,41.1,0,0,0,2.6,5.9l.7-.4-.7-.4a27.5,27.5,0,0,0-2.2,5.4,20.5,20.5,0,0,0-1,6.5,16.5,16.5,0,0,0,1.3,6.6,9.9,9.9,0,0,0,3.8,4.7l.4-.7-.4-.7-2.8,1.7-2.6,2.1a23.9,23.9,0,0,0-2.2,2.3,9,9,0,0,0-1.4,2.2l.7.4.7-.3a7.7,7.7,0,0,0-1.2-2.4,22.5,22.5,0,0,0-2.1-2.4l-2.6-2.1a13.4,13.4,0,0,0-2.9-1.5l-.3.7.5.6a7.7,7.7,0,0,0,1.9-2.7,24.7,24.7,0,0,0,1-3.5c.2-1.2.3-2.5.4-4s.1-2.8.1-4.2V67.4l-14.2,27,.7.4.2-.8ZM192.6,81.2l.6-.5a28.6,28.6,0,0,0-2.7-3.1l-.6.5.8.3,4.4-14.3,4.2,13.7.8-.2-.7-.4-2.5,3.3-2.6,3.3.7.4.6-.5-2.4-3-.6.5-.7.5,2.5,3,.6.8.6-.8,2.5-3.2a38.5,38.5,0,0,0,2.6-3.4l.2-.4-5.8-19.1L189,78.3l.3.4a25.5,25.5,0,0,1,2.6,3Zm32,20.8.4-.6a22.3,22.3,0,0,1-5-4.5,34.5,34.5,0,0,1-4.6-6.9,37.7,37.7,0,0,1-3.4-8,25.6,25.6,0,0,1-1.3-7.9v-.5l-.4-.2c-.2,0-.7-.7-1.3-1.8a23.4,23.4,0,0,1-1.6-4.1,37.1,37.1,0,0,1-1.4-5.3,26.2,26.2,0,0,1-.6-5.4,15,15,0,0,1,.4-3.7,10.3,10.3,0,0,1,1.2-2.8l2.2-3L206,49.2l-1.2.5-2.2.7-2.5.6-2.4.3v.8l.6-.5a5,5,0,0,0-2.7-1.7,19.7,19.7,0,0,0-3.5-.4,27,27,0,0,0-4.8.5c-1.7.3-3.2.8-4.7,1.2a21.6,21.6,0,0,0-3.7,1.6,5,5,0,0,0-2.2,1.6l-1,1.6,1.8-.4,3.6-.5a11.8,11.8,0,0,1,2.6-.2,5.3,5.3,0,0,1,2.5.4c.3.2.4.5.5,1.3a10.5,10.5,0,0,1-.2,1.3,7.4,7.4,0,0,1-.4,1.8l-3.5,12,.8.3.3-.7a20.2,20.2,0,0,0-4-1.9,9.2,9.2,0,0,0-3.6-.7,12,12,0,0,0-5.5,1.5l-.6.3.2.9.3.6h1.6a8.5,8.5,0,0,1,4.4,1.6,36.4,36.4,0,0,1,4.8,4l.6-.5-.8-.2L179,84a51.2,51.2,0,0,1-2.1,5.9,47.3,47.3,0,0,1-2.4,5,17.7,17.7,0,0,1-2.6,3.5,4.2,4.2,0,0,1-2.1,1.4v1.6a20.7,20.7,0,0,0,6.3-1.2,17.8,17.8,0,0,0,5.6-3.9l-.5-.6-.6.6,1.8,1.6,1.5,1.3a8.1,8.1,0,0,0,1.8,1.2l2.2.9,2.4.8-1.4-2a9.6,9.6,0,0,1-1.6-3.4,11.8,11.8,0,0,1-.5-3.7,21.1,21.1,0,0,1,.2-2.6,12.9,12.9,0,0,1,.6-2.5l1-3.4-.7-.2-.7.5c1.5,2.2,2.9,4.2,4.1,6.1l3,4.5.8,1.1.6-1.2a56.7,56.7,0,0,1,3.2-5.7,63.2,63.2,0,0,1,3.6-5.4l-.6-.5-.8.3,1.6,4.9a28.2,28.2,0,0,1,.9,3,13.4,13.4,0,0,1,.4,3.5,6.5,6.5,0,0,1-.2,2,4.8,4.8,0,0,1-.7,1.6l-1.6,1.8,2.3-.5,2.1-.6,1.6-.8a7.2,7.2,0,0,0,1.5-1.1l1.5-1.4-.5-.6-.4.7a61,61,0,0,0,7.2,3.7l7.3,2.8.8.3.3-1,.2-.6-.5-.3-.4.6-.8-.2v.2l.8.2.3-.7-7.3-2.8a51.5,51.5,0,0,1-7-3.6l-.6-.3-.4.4a9.2,9.2,0,0,1-1.5,1.4l-1.2,1-1.4.6-1.8.5.2.8.6.5a5.1,5.1,0,0,0,1.1-2.2,19.4,19.4,0,0,0,.2-2.4,12.3,12.3,0,0,0-.5-3.9c-.3-1.2-.6-2.2-.9-3.1l-2-6.4-.9,1.2a49.7,49.7,0,0,0-3.8,5.6c-1.3,2-2.3,3.9-3.3,5.7l.8.4.6-.5L192.8,90l-4.2-6.1-.9-1.4-1.5,5a25,25,0,0,0-.7,2.6,28.3,28.3,0,0,0-.2,2.9,18.4,18.4,0,0,0,.5,4.1,13.8,13.8,0,0,0,1.8,3.9l.7-.4.3-.8-2.1-.9A5.4,5.4,0,0,1,185,98l-1.5-1.3-1.7-1.5-.5-.6-.6.6a18.6,18.6,0,0,1-5.1,3.5,19.9,19.9,0,0,1-5.7,1.1v1.5a5.3,5.3,0,0,0,3.1-1.8,20.8,20.8,0,0,0,2.8-3.8,51.1,51.1,0,0,0,2.5-5.2,54.6,54.6,0,0,0,2.1-6.1l2.3-7.7-.4-.4a28.6,28.6,0,0,0-5-4.2,10.1,10.1,0,0,0-5.3-1.9h-1.2v.8l.8-.2v-.2l-.8.2.4.7a10.8,10.8,0,0,1,4.8-1.3,8.9,8.9,0,0,1,3.1.6,15.8,15.8,0,0,1,3.8,1.8l.8.4,3.8-12.9a10.4,10.4,0,0,0,.5-2.1,8.6,8.6,0,0,0,.1-1.5,2.9,2.9,0,0,0-1.1-2.6,6.4,6.4,0,0,0-3.4-.7l-2.9.2-3.6.6.2.8.6.4a9,9,0,0,1,1.6-1.1,19.6,19.6,0,0,1,3.5-1.4,29.6,29.6,0,0,1,4.5-1.2,24.8,24.8,0,0,1,4.5-.5,10.6,10.6,0,0,1,3.1.4,3.2,3.2,0,0,1,1.9,1.1l.3.3h.4l2.6-.4a26.1,26.1,0,0,0,2.7-.6l2.2-.7,1.5-.7-.4-.6-.7-.5a9.4,9.4,0,0,0-1.4,3.4,16.8,16.8,0,0,0-.5,4,28.3,28.3,0,0,0,.6,5.7c.4,2,.9,3.8,1.4,5.5a37.3,37.3,0,0,0,1.8,4.3,7.7,7.7,0,0,0,1.9,2.5l.4-.7h-.8a28.7,28.7,0,0,0,1.3,8.4,43.1,43.1,0,0,0,8.4,15.4,25.3,25.3,0,0,0,5.3,4.8l.5-.7-.8-.2ZM163.7,65.5h.8c.1-.8.2-1.7.4-2.8s.3-2.3.5-3.6a34.8,34.8,0,0,1,.5-3.6c.3-1.1.5-2.2.7-3.1a4.4,4.4,0,0,1,.5-1.8l.4-.9-1-.2h-1.8c-1.7,0-4.1.2-7.2.5s-7,.4-11.8.4h-7l-7.8-.6-1.4-.2.5,1.3a13.1,13.1,0,0,0,2.6,3.7,8.2,8.2,0,0,0,3.4,2.4l.2-.8h-.8c.1.4.1.9.2,1.6v2.6c0,1.2,0,2.5-.1,3.8s-.3,2.7-.5,4a31,31,0,0,1-1,3.6,9.8,9.8,0,0,1-1.6,2.5l-.5.5.5.5a10,10,0,0,1,1.5,3.7,23.5,23.5,0,0,1,.6,5.4c0,1.3-.1,2.5-.2,3.7a25.5,25.5,0,0,1-.7,3.2,7.1,7.1,0,0,1-1.2,2.3,2.2,2.2,0,0,1-1.3.9l-2.7.7,2.6.9,5.1,1.4,6,1.6,6.4,2.2a41.5,41.5,0,0,1,6,2.9l.5.3.4-.3a34.5,34.5,0,0,1,6.2-4.5,24.1,24.1,0,0,1,5.6-2.2l1-.2-.4-.9a4.3,4.3,0,0,1-.3-1.5c-.1-.9-.2-2-.3-3.4s-.2-2.9-.3-4.6l-.3-5.2h0a4.9,4.9,0,0,1,.3-1.5l.9-2.1,1-2a4.8,4.8,0,0,0,.7-1.5l.8-2.1-1.9,1.1a8.4,8.4,0,0,1-2.8.9,22.1,22.1,0,0,1-3.9.3l-4.4-.3a39.7,39.7,0,0,1-4.8-.7l-.7-.2-.2.8a7.6,7.6,0,0,1-.4,1.1l-.7,1.6-.7,1.5-.7,1.2-.6,1.1h1.3l3.1.3,1.9.4,1.3.4,1.6.2v-.8h-.8c.1,1.1.1,2.2.1,3.3s.1,2.6.1,4.3,0,2.8-.1,3.9a8.8,8.8,0,0,1-.1,2.1l.8.2v-.8l-3.9-.3-2.6-.4-2.3-.5-3.3-.9V93h.8c0-1.5,0-3.1-.1-4.9V82.7c-.1-1.9-.1-3.8-.1-5.7V71.4c0-3.3,0-6.3.2-8.9a23.4,23.4,0,0,1,.7-5.4l-.8-.2v.8h5.1l4,.2a5.9,5.9,0,0,1,2.5.8l.5-.6h-.8a20.6,20.6,0,0,0,.7,2.9,10.2,10.2,0,0,0,1.1,2.6,10.7,10.7,0,0,0,1.5,2.2l2.3,2,1.3.9V67a12.4,12.4,0,0,1,.1-1.5h-1.6a11.8,11.8,0,0,0-.1,1.6h.8l.5-.6a9.8,9.8,0,0,1-2.1-1.8,8,8,0,0,1-1.3-1.9,11.2,11.2,0,0,1-1-2.2c-.2-.8-.4-1.8-.6-2.8v-.3l-.3-.2a7.1,7.1,0,0,0-3.3-1.1l-4.2-.2h-5.6l-.2.5a22.1,22.1,0,0,0-.8,5.8c-.2,2.6-.2,5.6-.2,9V77c0,1.9,0,3.8.1,5.7v5.4c.1,1.8.1,3.4.1,4.9v.6l.6.2,3.1.8,2.5.6,2.7.4,4,.3h.7l.2-.6a14.9,14.9,0,0,0,.1-2.4c.1-1.2.1-2.5.1-4s0-3.1-.1-4.3,0-2.3-.1-3.4v-.7h-.7l-1.2-.2-1.3-.3a8.8,8.8,0,0,0-2-.4l-3.3-.4V80l.7.4.7-1.2a11.9,11.9,0,0,1,.8-1.6c.2-.6.5-1.2.7-1.7a9.3,9.3,0,0,0,.4-1.3l-.7-.2-.2.7a29.4,29.4,0,0,0,4.9.8l4.6.3a27.7,27.7,0,0,0,4.2-.3,9.9,9.9,0,0,0,3.3-1.1l-.4-.7-.8-.3-.6,1.4c-.3.6-.7,1.3-1,2a12.8,12.8,0,0,0-.9,2.2,6.3,6.3,0,0,0-.5,2.1h0l.3,5.2c.1,1.7.2,3.2.3,4.6s.2,2.5.3,3.4a7.8,7.8,0,0,0,.4,2.1l.7-.4v-.8a22.2,22.2,0,0,0-6,2.4,39.8,39.8,0,0,0-6.5,4.6l.5.7.4-.7a39.9,39.9,0,0,0-6.2-3.1l-6.5-2.2-6.1-1.7a43.9,43.9,0,0,1-5-1.4l-.2.8.2.8a3.8,3.8,0,0,0,2.2-1.6,11.5,11.5,0,0,0,1.4-2.7,30.2,30.2,0,0,0,.8-3.5c.1-1.3.2-2.6.2-3.9a26.2,26.2,0,0,0-.6-5.7,9.9,9.9,0,0,0-1.9-4.4l-.6.5.5.6a9.3,9.3,0,0,0,2-3,36.4,36.4,0,0,0,1.1-3.9c.2-1.3.4-2.7.5-4.2s.1-2.7.1-3.9V57.5c-.1-.7-.1-1.3-.2-1.7v-.5l-.5-.2a6.9,6.9,0,0,1-2.8-1.9,10,10,0,0,1-2.2-3.3l-.7.3V51c2.8.3,5.4.6,7.9.7h7.1c4.9,0,8.8-.1,11.9-.4s5.5-.5,7.1-.5h1.5v-.8l-.7-.3a12.9,12.9,0,0,0-.6,2.2c-.2.9-.4,1.9-.6,3.1l-.6,3.7c-.2,1.3-.4,2.5-.5,3.6s-.3,2-.4,2.9Z"/></g></g></svg>