<svg xmlns="http://www.w3.org/2000/svg" xmlns:xlink="http://www.w3.org/1999/xlink" viewBox="0 0 362.7 95"><defs><style>.eed459b4-f561-474f-b2ca-8c57b7e56f40{isolation:isolate;}.b0e3f700-77fe-4ae0-a819-4f751e12cc57{fill:url(#ad119f8e-a85a-4e40-b22b-d52959593a9a);}.a43c6b08-00dc-4787-9e7c-6740e9d4d7d0{fill:url(#b08239ae-d026-45e9-bcf3-ac84bd56fdfb);}.bfdd2966-72fd-4d44-a622-9652853a5b78{fill:url(#ea9a0906-c1fc-4bf5-97a8-d5db2a7f43ea);}.e9615ac6-a5b6-40b9-b871-de0de9ebe22e{fill:#eb924d;}.beefae64-c413-4698-b374-bc3170a8a815{fill:url(#ae271aad-4a4e-4fee-afb9-dadda60fb62e);}.b130747a-15a0-4cad-95bb-629bd17bcefe{fill:url(#f560330c-f250-4d54-af2c-819f6095579e);}.aa1b84ec-dce0-4087-9eaa-4be48a1a7b34{fill:url(#abe66d4e-b8b5-4c07-8481-9d3e6c340b49);}.eec57197-7408-4382-b4f6-e6a3a756c7df{fill:url(#b63d3592-3ea9-4fbd-aa0a-54c6151708a1);}.f9e85bed-499d-4ddc-83bf-ce12cc9b2bce{fill:url(#bac0f2c1-b416-4490-8971-d94d2b546e17);}.bc19f94f-2f6f-4ed5-affe-37cfc6c74c05{fill:url(#b42083b7-bdc5-463f-aa07-ef481ab44c1c);}.bd5796f4-8959-440d-98d5-f7ff367984c4{fill:url(#ecf8dd35-5f4c-45a6-a981-1c1d1556eac2);}.b647c1c1-67f0-4f8e-b301-0f6fc093af04{fill:url(#efd35eb7-14c3-4356-ad4b-673f9e7eef23);}.fc51cadd-53fd-45f7-adf9-258187588e04{fill:#ffdf80;}.fbb59056-1d5d-456b-88f4-e8f83e017955{fill:url(#a5a5501a-1ca2-45fd-b51e-5bbd0b8d2735);}.a91b2722-84d0-4d5c-9b0b-a2b08bbbf8f5{fill:url(#f1617fd0-2df6-470b-8cf8-1446085f6a30);}.a5315417-14a9-4f1a-8704-7c2dd0a98689{mix-blend-mode:screen;fill:url(#a152cacf-4cab-43fa-961e-f9f4e28d1837);}.fa9bdc4b-f7e9-4da9-922d-675606ed6363{font-size:35.58px;fill:#fff;stroke:#603813;stroke-miterlimit:10;stroke-width:0.9px;font-family:NewRocker-Regular, New Rocker;letter-spacing:0em;}.bb3e4015-cb75-4ac1-84c9-369b94af4834{letter-spacing:0em;}.a5b28f62-b0f5-48b2-abc5-3cdb3187363c{letter-spacing:0em;}.a86f5358-5d86-4020-839e-c0b4e2783b3c{letter-spacing:-0.03em;}</style><linearGradient id="ad119f8e-a85a-4e40-b22b-d52959593a9a" x1="260.6" y1="-167.96" x2="208.48" y2="-27.69" gradientUnits="userSpaceOnUse"><stop offset="0" stop-color="#cf5c2b"/><stop offset="1" stop-color="#59173e"/></linearGradient><linearGradient id="b08239ae-d026-45e9-bcf3-ac84bd56fdfb" x1="200.64" y1="-48.27" x2="155.89" y2="187.76" xlink:href="#ad119f8e-a85a-4e40-b22b-d52959593a9a"/><linearGradient id="ea9a0906-c1fc-4bf5-97a8-d5db2a7f43ea" x1="201.13" y1="-47.15" x2="140.26" y2="263.69" xlink:href="#ad119f8e-a85a-4e40-b22b-d52959593a9a"/><linearGradient id="ae271aad-4a4e-4fee-afb9-dadda60fb62e" x1="188.13" y1="117.26" x2="184.74" y2="59.92" xlink:href="#ad119f8e-a85a-4e40-b22b-d52959593a9a"/><linearGradient id="f560330c-f250-4d54-af2c-819f6095579e" x1="300.91" y1="20.87" x2="285.52" y2="62" xlink:href="#ad119f8e-a85a-4e40-b22b-d52959593a9a"/><linearGradient id="abe66d4e-b8b5-4c07-8481-9d3e6c340b49" x1="353.67" y1="-100.37" x2="217.73" y2="215.07" xlink:href="#ad119f8e-a85a-4e40-b22b-d52959593a9a"/><linearGradient id="b63d3592-3ea9-4fbd-aa0a-54c6151708a1" x1="270.91" y1="19.47" x2="261.21" y2="45.41" xlink:href="#ad119f8e-a85a-4e40-b22b-d52959593a9a"/><linearGradient id="bac0f2c1-b416-4490-8971-d94d2b546e17" x1="304.19" y1="-57" x2="218.45" y2="141.96" xlink:href="#ad119f8e-a85a-4e40-b22b-d52959593a9a"/><linearGradient id="b42083b7-bdc5-463f-aa07-ef481ab44c1c" x1="69.54" y1="37.56" x2="59.84" y2="63.5" xlink:href="#ad119f8e-a85a-4e40-b22b-d52959593a9a"/><linearGradient id="ecf8dd35-5f4c-45a6-a981-1c1d1556eac2" x1="102.82" y1="-38.91" x2="17.08" y2="160.05" xlink:href="#ad119f8e-a85a-4e40-b22b-d52959593a9a"/><linearGradient id="efd35eb7-14c3-4356-ad4b-673f9e7eef23" x1="183.38" y1="16.6" x2="183.38" y2="41.59" gradientUnits="userSpaceOnUse"><stop offset="0" stop-color="#ffca2b"/><stop offset="1" stop-color="#d15b24"/></linearGradient><linearGradient id="a5a5501a-1ca2-45fd-b51e-5bbd0b8d2735" x1="183.37" y1="84.31" x2="183.37" y2="46.42" gradientUnits="userSpaceOnUse"><stop offset="0" stop-color="#ffce3b"/><stop offset="1" stop-color="#cc6923"/></linearGradient><linearGradient id="f1617fd0-2df6-470b-8cf8-1446085f6a30" x1="183.37" y1="79.66" x2="183.37" y2="28.77" xlink:href="#a5a5501a-1ca2-45fd-b51e-5bbd0b8d2735"/><linearGradient id="a152cacf-4cab-43fa-961e-f9f4e28d1837" x1="278.68" y1="-51.94" x2="207.43" y2="94.75" gradientUnits="userSpaceOnUse"><stop offset="0" stop-color="#f2de6d"/><stop offset="1"/></linearGradient></defs><g class="eed459b4-f561-474f-b2ca-8c57b7e56f40"><g id="a3d1b039-9c32-4d4b-b0fe-234a35f56650" data-name="Layer 1"><path class="b0e3f700-77fe-4ae0-a819-4f751e12cc57" d="M357.8,74.1c-.2-1.8-.4-3.7-.5-5.5s-.4-3.8-.5-5.7-.3-2.7-.3-4.1.6-3-.3-4a4.4,4.4,0,0,0-2.7-.9l-4-.5a45.1,45.1,0,0,0,5.3-1,1.7,1.7,0,0,0,1.4-1.2c.6-2.5.2-5.1.2-7.6s0-5.2-.1-7.8V28.5c0-.8.5-2.6-.1-3.3s-1.6-.6-2.5-.6h-2.6l-4,.4c1.7-.4,3.5-.5,5.2-.8a15.9,15.9,0,0,0,3.3-.8,3.5,3.5,0,0,0,1.7-.9,1.1,1.1,0,0,0,.2-.6,5.8,5.8,0,0,0,.3-1.4c.1-1.2.2-2.5.2-3.8V14.7c0-.4-.3-.8-.3-1.2a7.7,7.7,0,0,0-2.9-4.8A14.5,14.5,0,0,0,348.5,6l-2.8-.3Q180,2.1,20.7,5.7H19.4l-1.3.3-2.5.7A9.9,9.9,0,0,0,11.4,9c-.6.6-1.1,1.3-1.6,1.9a7.3,7.3,0,0,0-.9.8,26.7,26.7,0,0,1-3.8,4.5,5.8,5.8,0,0,0-1.8,5c.2,2.2.3,4.5.6,6.7s0,7,.6,10.6a2.1,2.1,0,0,0,.7,1.4,3.7,3.7,0,0,0,1.5.3l4.9.8c-2.1.9-5.1.9-6.1,2.4A3,3,0,0,0,5,45l-.6,5.6a21.1,21.1,0,0,0-.2,2.5l-.3,2.4c-.2,1.9-.9,4.3-.1,6.2s4,1.8,6.3,2.2a5,5,0,0,0-2.8,1.4l-.9,1.1-.8.9a5.6,5.6,0,0,0-1.1,2,5,5,0,0,0-.4,1.3v1.3c-.1.8-.1,1.7-.2,2.5v5.2c0,1.6-.6,3.2.5,4.9a10.6,10.6,0,0,0,5,3.9,18.1,18.1,0,0,0,5.8,1.2q160.1,4.8,325.3,0a16.9,16.9,0,0,0,7.9-2.2,13.7,13.7,0,0,0,2.6-2,40,40,0,0,0,2.7-3.1C355.6,79.8,358.1,77,357.8,74.1Z"/><path class="a43c6b08-00dc-4787-9e7c-6740e9d4d7d0" d="M345.7,83.2Q180.6,88,20.5,83.2c-4.8,0-9.2-2.3-11-5.2a7.4,7.4,0,0,1-.8-4.1,1.9,1.9,0,0,1,.2-.7c.1-.4.4-.7.4-1.1s.1-.4.2-.6l.3-3.4a6.1,6.1,0,0,1,.5-1.8,3.1,3.1,0,0,1,1.6-1.8c3.5-1.8,10.3-1.7,15.4-1.8h9.5a118.7,118.7,0,0,1-15.8-1c-2.4-.2-4.9-.6-7.3-1l-1.8-.4A3.6,3.6,0,0,1,10.2,59a2.4,2.4,0,0,1-.3-1.4,6.5,6.5,0,0,0,0-1.4,27,27,0,0,1,.4-2.8l.3-2.3.6-6.2a2.3,2.3,0,0,1,.8-1.7,3.4,3.4,0,0,1,1.4-.5,31,31,0,0,1,4.2-.8l2-.2a13.3,13.3,0,0,1,2.1-.3l23.4-1.9,2.8-.2L12.7,36.4l-1.6-.2a2.1,2.1,0,0,1-1.3-.3h0a.8.8,0,0,1-.3-.8c-.6-4.3,0-8.7-.3-13.1,0-.3-.1-1.5-.2-2.9a41.8,41.8,0,0,0-.5-4.3C8,10,13.4,5.9,20.5,5.7q159-3.7,325,0c7.1.2,12.5,4.4,12,9.2-.2,1.6.3,3.2-.3,4.9a1.3,1.3,0,0,1-.8,1,2.3,2.3,0,0,1-1.4.4l-4,.7a48.1,48.1,0,0,1-5.3.7l-32,2.3h.7l40-.4h1.1a.8.8,0,0,1,.5.8,4.5,4.5,0,0,1,.1,1.1c0,1.2-.3,2.3-.3,3.5s.3,2,.3,3.1-.1,3.1-.2,4.6a95.2,95.2,0,0,1-1.1,10.6,1.9,1.9,0,0,1-.7,1.4,3.9,3.9,0,0,1-1.5.6l-1.1.2c-7.8,1.5-16.4.3-24.5,1.3l-1.5.2h1.4q13.2.6,26.4,1.8a4.6,4.6,0,0,1,2.7.8,1.7,1.7,0,0,1,.5,1.5v1.8a46.1,46.1,0,0,0,.2,5.3c.1,2.4.3,4.8.6,7.1l.3,3.5C358.1,78.9,352.7,83,345.7,83.2Z"/><path class="bfdd2966-72fd-4d44-a622-9652853a5b78" d="M356.1,33.2c0,1.5-.1,3.1-.2,4.6l-13.3.9-3,.2-11.2.7-5.6.4c-1.2,0-2.3.3-3.5.4a27.9,27.9,0,0,1-5-.2h-5.5c-3.7,0-7.3.2-11,.5-7.3.6-14.5,1.5-21.8,2.4q-17.4,1.9-35.1,3c6.4.4,12.8,1.1,19,2.1l-7,.4c-7.5.3-15,.4-22.5.5H185.5l-22.5.4-11.2.5H149l-3.3.4c-9,.7-17.9,1.6-26.7,2.8-13.7,1.9-27.5,3.7-41.5,4.3l-7.5.3c-12,1.7-25,2-36.8,3-4,.3-8.1.5-12.2.6-2.4-.2-4.9-.6-7.3-1l-1.8-.4A3.6,3.6,0,0,1,10.2,59a2.4,2.4,0,0,1-.3-1.4,6.5,6.5,0,0,0,0-1.4,27,27,0,0,1,.4-2.8c10.8-.6,21.8-2.7,32.2-3.8,13.3-1.3,26.9-2,40.3-2.5,15.2-.6,30.4.6,45.5.6s28.1-.8,42.1-1.6c27.2-1.5,54.4-3,81.6-4.7-5.9,0-11.9-.1-17.8-.3l-22.6-.6a31.1,31.1,0,0,0-5.3-.1,48.7,48.7,0,0,1-5.4.1,63.5,63.5,0,0,1-10.7-.9c-2-.3-4-.8-6.1-1a94.9,94.9,0,0,0-10.7-.3c-13.3-.2-26.4-2.6-39.7-2.5l-10.5.5-11.1.5a27.5,27.5,0,0,1-5-.2,25.1,25.1,0,0,0-3.9-.1H83c-17.1-.1-34.2.6-51.2.5-7.3,0-14.7-.2-22-.9h0a.8.8,0,0,1-.3-.8c-.6-4.3,0-8.7-.3-13.1,0-.3-.1-1.5-.2-2.9,8.7-.5,17.4-.6,26.1-1q25.7-1.4,51.3-1.2c33.9.1,67.8,1.6,101.6,3.3s67.7,3.9,101.5,5.6c17.1.8,34.3,1.3,51.4,1.3,5,0,10.1-.2,15.2-.5,0,1.2-.3,2.3-.3,3.5S356.1,32.1,356.1,33.2Zm.6,30.3a46.1,46.1,0,0,1-.2-5.3c-10.8-.8-21.6-1.6-32.5-2.2-18.6-.8-37.3-.7-56-.2-3.9.1-7.7.2-11.5.5l-5.6.5c-7.5.6-14.9,1.1-22.4,1.5l-8.8.4h64.8l1.4-.3a47,47,0,0,1,5.3.2l5.6.2,11.3.5,17.7,1q9.6.6,19.2,1.5c-14.5.9-29.1,1.9-43.6,2.4-33.6,1.3-67.1,2.9-100.7,2.4s-66.2-1.7-99.3-1.6c-17.5,0-34.9.2-52.4.6-12.8.2-25.9.2-38.7,1.1a6.1,6.1,0,0,0-.5,1.8l-.3,3.4c14.3.4,28.7-.3,43-.3,17.5,0,34.9.1,52.4.4,33,.5,66.1,1.7,99.1,2.1s67.3-1.2,100.8-2.4c17.3-.5,34.8-.6,52.1-.7h.4C357,68.3,356.8,65.9,356.7,63.5Z"/><path class="e9615ac6-a5b6-40b9-b871-de0de9ebe22e" d="M11.6,57.4a5,5,0,0,0,.3,2.7A3.6,3.6,0,0,1,10.2,59a2.4,2.4,0,0,1-.3-1.4,6.5,6.5,0,0,0,0-1.4c.1-1.7.6-3.4.7-5.1l.6-6.2a2.3,2.3,0,0,1,.8-1.7,3.4,3.4,0,0,1,1.4-.5,31,31,0,0,1,4.2-.8l2-.2a13.3,13.3,0,0,1,2.1-.3l23.4-1.9L20,43c-1.6.2-3.8.2-5.1.9l-.8.5-.6.5a2.1,2.1,0,0,0-.8,1.1,8.3,8.3,0,0,0-1,3.4,6.2,6.2,0,0,1-.1,1.3.4.4,0,0,1-.1.3c0,.1-.1.2-.1.3a3.9,3.9,0,0,0-.2,2.8l.3.9A9.7,9.7,0,0,1,11.6,57.4Z"/><path class="e9615ac6-a5b6-40b9-b871-de0de9ebe22e" d="M312.9,25h0Z"/><path class="e9615ac6-a5b6-40b9-b871-de0de9ebe22e" d="M320.5,51.5l6.5.4-1.5.2Z"/><path class="e9615ac6-a5b6-40b9-b871-de0de9ebe22e" d="M352.5,49.3a5.7,5.7,0,0,0,.2-2.9l-.6-5.2c-.1-.4-.1-.7-.5-1h-1.2l-9.6.2a36.9,36.9,0,0,0,10-1.9c.9-.3,1.9-.6,2.2-1.3a1.6,1.6,0,0,0,.2-1,80.9,80.9,0,0,0-1.2-8.6c-1.6-1-3.8-1.1-5.9-1.2l-25.3-1-6.4-.3,40-.4h1.1a.8.8,0,0,1,.5.8c.3,1.6-.2,3-.2,4.6s.3,2,.3,3.1a112.7,112.7,0,0,1-1.3,15.2,1.9,1.9,0,0,1-.7,1.4,3.9,3.9,0,0,1-1.5.6l-1.1.2A3.1,3.1,0,0,0,352.5,49.3Z"/><path class="e9615ac6-a5b6-40b9-b871-de0de9ebe22e" d="M9.2,22c-.1-.6-.5-7.2-.7-7.2C8,10,13.4,5.9,20.5,5.7q159-3.7,325,0c7.1.2,12.5,4.4,12,9.2-.2,1.6.3,3.2-.3,4.9a1.3,1.3,0,0,1-.8,1,2.3,2.3,0,0,1-1.4.4l-4,.7a7.8,7.8,0,0,0,3-2.6c.4-.7.1-1.3-.2-2a5.7,5.7,0,0,1-.7-3.1c-.1-1.3.3-3.2-1.3-4.3a18.1,18.1,0,0,0-4.2-2c-3.6-1.2-7.8-1.4-11.8-1.6h-.6c-7.4-.1-14.8-.1-22.2.4a19,19,0,0,0-2.5.3,13.7,13.7,0,0,1-3.5-.1l-7.5-.2-15-.3H230.3a20.5,20.5,0,0,1-3.5,0c-1.2-.1-2.1-.6-3.3-.7h-3.3l-8.2.6a7.1,7.1,0,0,0-3.4.8,3.1,3.1,0,0,1-.9.7c-.7.4-1.8.1-2.7-.1a25.1,25.1,0,0,0-5.5-.7c-1.7-.1-3.4.1-5.1.1l-3.1-.4c-4.1-.5-8.5-.6-12.6-.8l-9.4-.3c-10-.3-20-.1-30,.2l-15.1.5a56.1,56.1,0,0,1-7.1.2l-1.9-.3H88.8a23.5,23.5,0,0,0-6,.8,9.3,9.3,0,0,1-2.3.4C79,7.3,78,6.4,76.7,6c-3.2-1-6.4.9-9.6.1a19.9,19.9,0,0,0-4.9-.3H55.7c-7.2,0-14.5.1-21.7.6-3.6.3-7.2.6-10.8,1.1L18,8.2a3,3,0,0,0-1.4.2c-2.2,1-8,6.7-3.9,8.7l.9.4,1.4.2a4.2,4.2,0,0,0,1.6.1h3.6a23,23,0,0,1,3.7.2l-8.1,1.1-2.6.5h-.5a2.5,2.5,0,0,0-1.2,1c-.6,1-.2,2.1-.5,3.1s.2,3.8.4,5.6.8,4.7,1.3,7l-1.6-.2a1.8,1.8,0,0,1-1.3-.3.8.8,0,0,1-.3-.8C8.9,30.8,9.5,26.4,9.2,22Z"/><path class="e9615ac6-a5b6-40b9-b871-de0de9ebe22e" d="M357.6,74.1c-.4-3.5-.7-7-.9-10.6s-.2-4.7-.2-7.1a1.7,1.7,0,0,0-.5-1.5,4.6,4.6,0,0,0-2.7-.8q-13.2-1.2-26.4-1.8c7.9,1,16,2.3,23.4,3.7,1.5.3,1.6,1.1,2.2,2a6.7,6.7,0,0,1,.7,3.1,2.5,2.5,0,0,1-.2,1.2c-.5.9-1.9,1.5-3.1,1.9l2.8.5.6.2a.9.9,0,0,1,.3.6,22.5,22.5,0,0,1,.1,5.2c.1,1.1.1,2.2.1,3.3a3.2,3.2,0,0,0,.3.9,3.2,3.2,0,0,1-.3,1.9,6.2,6.2,0,0,1-3.5,3.2c-2.8,1.3-6.4,1.5-9.8,1.7-5.6.3-11.3.2-17,.6l-5.6.3-11.3.6c-7,.3-14.2.6-21.2.7-16.8.4-33.7.4-50.5.3h-6.1a38.4,38.4,0,0,1-4.8,0,92.3,92.3,0,0,0-11.8.6c-4.6.3-9.5.3-13.5-1.3a7.2,7.2,0,0,0-7.3-.4,36.1,36.1,0,0,1-6.7,1.3h-.2a98.8,98.8,0,0,1-14.4-.1c-3.6-.1-7.4.3-10.8-.6s-5.5-1.6-8.2-1.1l-2.7.8a21.7,21.7,0,0,1-5.7.6h-3.6c-5,.2-10,.1-15,0a42.1,42.1,0,0,1-6.2-.5,15.5,15.5,0,0,0-4.3,0c-6.1.3-12.2.3-18.3.2l-7.4-.3-3.7-.2-2.4.2H66.7l-25.9-.2c-5.9.6-10.8-.1-16.7-.9s-10-1.9-11.9-4.9a6.1,6.1,0,0,1-.9-4.1V72.1c-.1-.4-.3-.7-.4-1.1s.3-2.6.8-3.8a3.2,3.2,0,0,1,1.1-1.7,5.4,5.4,0,0,1,2.2-.9,30.4,30.4,0,0,1,6.7-.6l9.8-.4h1.9a1.5,1.5,0,0,1-.1-.7h-6c-5.1.1-11.9,0-15.4,1.8-1.6.8-1.9,2.3-2.1,3.6a27.3,27.3,0,0,1-.5,4c0,.4-.3.7-.4,1.1a1.9,1.9,0,0,0-.2.7A7.4,7.4,0,0,0,9.5,78c1.8,2.9,6.2,5.2,11,5.2q159.9,4.8,325.2,0C352.7,83,358.1,78.9,357.6,74.1Z"/><path class="e9615ac6-a5b6-40b9-b871-de0de9ebe22e" d="M28.2,48.1c0,1,.1,2,.1,3s.1.9.2,1.4a3.7,3.7,0,0,0,.1,1.1,2.4,2.4,0,0,1,.2.8l.2,2.5.3,5c.2,2.1.3,4.2.5,6.3A4.4,4.4,0,0,0,31,71.4l.6.6a4,4,0,0,0,1.3.7A41,41,0,0,0,39,73.8c3.2.3,6.4.4,9.6.5,42.5,1,84.9,2,127.3,1.3,5.2-.1,10.6-.2,15.4,1.1-2.2-2.6-7.5-3-12-3.1C132.2,72.9,85,72.1,38,69.4a8,8,0,0,1-3.6-.8,3,3,0,0,1-1.1-1.7,37.4,37.4,0,0,1-1.5-20.4,5.3,5.3,0,0,0,.3-1.2A6.2,6.2,0,0,1,32,44a12.2,12.2,0,0,1,.1-2.7,1.5,1.5,0,0,0-1-.2l-2.6.2a9.7,9.7,0,0,1-.1,1.7c-.1.2,0,.4,0,.6a2.1,2.1,0,0,1-.1,1.1,10.9,10.9,0,0,1-.1,1.8Z"/><path class="e9615ac6-a5b6-40b9-b871-de0de9ebe22e" d="M193.1,77.1c.6-.9,2.3-1.1,3.8-1.1l34.2-.5,32.4-.4c3.5-.1,7.2-.1,10.1,1.3l-.2-.9,3.6-.3a14.8,14.8,0,0,0,2.1-.1l4.8-.3c8.9-.3,17.8-.3,26.7-.7l6.7-.3,6.6-.4h2.2a35,35,0,0,0,6.6-1.1c2.6-.8,4.9-2.3,5.8-4.2a7.5,7.5,0,0,0,.5-2.6,60.2,60.2,0,0,0-.3-12c-.3-.2-1,.2-1.1.5a45.9,45.9,0,0,0-2.4,8.8c-.3,1.8-.6,3.6-2.2,5s-4.7,2.1-7.4,2.6c-14.8,2.3-30,2.5-45.1,2.8l-42.2.6c-11.7-.3-23.7,1-35.4.1-3.3-.2-6.6-.7-9.8-.3a.8.8,0,0,0-.7.2c-.1,0-.2.2-.2.3S192.5,76.1,193.1,77.1Z"/><path class="beefae64-c413-4698-b374-bc3170a8a815" d="M338.6,60.1c0-3.4-.1-6.8-.1-10.2V40.2c-.1-4,.1-7.9-.5-11.8a10.1,10.1,0,0,1-.4-2.3,5,5,0,0,0-1.1-3.2,16.7,16.7,0,0,0-3.9-4.1c-3.4-2.8-8.3-2.9-13.4-3.1H263.3l-21.8-.2H230.6a17.7,17.7,0,0,0-2.3,0l-1.4.3a28.1,28.1,0,0,1-5-.4,23,23,0,0,1,1.9-7.6,51.4,51.4,0,0,1-5.1,7.4.7.7,0,0,1-.5.4h-.8l-1.6-.2a25.4,25.4,0,0,0-3.9-.1h-50c-11.8.1-23.6,0-35.5-.1h-9.6a28.2,28.2,0,0,0-4.1.2,22.6,22.6,0,0,1-4.5-.1,5.1,5.1,0,0,1-2.2-.4,2.7,2.7,0,0,1-1.3-1.3L103,10.3a22.5,22.5,0,0,0,.6,3.6c.1.4.1.9-.4,1.1h-.6a6.1,6.1,0,0,1-1.9.1,21.7,21.7,0,0,0-3.6-.1H56.9c-7.5,0-25.6-2.6-28,4.4a7,7,0,0,0-.4,2.9,68.9,68.9,0,0,0-.1,9.1c.2,9.9.6,19.8,1.2,29.8a34.4,34.4,0,0,0,.5,4.5c.2,1.2.1,2.8,1.5,3.7l1.2,1A8.6,8.6,0,0,0,36.1,72a31.5,31.5,0,0,0,8.7,1.2L74,74l29.3.5,29.3.3h40.2c4.9,0,10.8-1.1,15.3.5a10.3,10.3,0,0,1,5.2,3.6,12.3,12.3,0,0,1,.2-3.8c3.5-.3,7.1-.5,10.7-.6l4.6.2h40.8c9.7-.1,19.5-.2,29.3-.5h5.3c13.4-.4,26.9-.9,40.4-1.6l3.3-.3a12.4,12.4,0,0,0,4.7-1.5,18.3,18.3,0,0,0,4.6-3.4C339.1,65,338.6,62.5,338.6,60.1Zm-7.3,4.6a15.6,15.6,0,0,1-3.1,2.3,4.1,4.1,0,0,1-1.6.4l-2.6.2c-12.9.7-26.4,1.2-40.1,1.6l-5.2.2c-10.3.2-19.8.4-29.2.4-27.8.3-55.2.4-81.5.4H132.7l-29.2-.2c-9.7-.2-19.6-.3-29.3-.6l-29-.8a24.3,24.3,0,0,1-6.3-.7,1.4,1.4,0,0,1-.6-.3l-1.2-1A4.3,4.3,0,0,0,37,66c0-.3-.1-.6-.1-.9s-.3-2.6-.4-4.2q-.9-14.8-1.2-29.7V29.5c0-2.4-.1-4.7.1-7a2.2,2.2,0,0,1,.1-.8,4.5,4.5,0,0,1,.1-1.3c.2-.7,2.8-1.3,7.9-1.3l7.8.3,5.7.2H182c22.5,0,45.5.2,67.8.4l53.2.3h16c4.7.2,7,.3,8.3,1.4a16,16,0,0,1,2.9,3,2,2,0,0,1,.4,1.2,8.6,8.6,0,0,0,.4,2.4,1.1,1.1,0,0,0,.1.5,58.4,58.4,0,0,1,.4,8.5v2.8l.2,19.9a6.2,6.2,0,0,1,.1,1.3C331.8,62.8,331.9,64.1,331.3,64.7Z"/><polygon class="e9615ac6-a5b6-40b9-b871-de0de9ebe22e" points="28.3 41.8 36.3 40.8 36 40.2 27.7 40.9 28.3 41.8"/><polygon class="e9615ac6-a5b6-40b9-b871-de0de9ebe22e" points="329.6 25.6 338.9 26.1 338.9 24.7 328.9 25 329.6 25.6"/><polygon class="e9615ac6-a5b6-40b9-b871-de0de9ebe22e" points="330.3 52.8 340.6 54.2 340.3 53.1 329.3 52.4 330.3 52.8"/><path class="e9615ac6-a5b6-40b9-b871-de0de9ebe22e" d="M300.2,46.9c-7.8-3-20.8-2.1-27,1.9-3.9,2.5-4.1,7.3,0,9.8,9,5.5,24.9,3.2,30.6-3.7l.3-.2C308.5,52,305.4,47.5,300.2,46.9Z"/><path class="b130747a-15a0-4cad-95bb-629bd17bcefe" d="M302.1,44.2c-7.9-3-20.9-2-27.1,2-3.9,2.5-4.1,7.2,0,9.8,9.1,5.5,24.9,3.1,30.7-3.7l.3-.2C310.4,49.4,307.3,44.9,302.1,44.2Z"/><path class="aa1b84ec-dce0-4087-9eaa-4be48a1a7b34" d="M300.2,45.9c-7.8-3-20.8-2-27,2-3.9,2.5-4.1,7.2,0,9.8,9,5.5,24.9,3.1,30.6-3.7l.3-.2C308.5,51.1,305.4,46.6,300.2,45.9Z"/><path class="e9615ac6-a5b6-40b9-b871-de0de9ebe22e" d="M270.5,35.9c-5-1.9-13.2-1.3-17.1,1.2-2.4,1.6-2.6,4.6,0,6.2,5.7,3.5,15.7,2,19.3-2.4h.3C275.7,39.1,273.7,36.3,270.5,35.9Z"/><path class="eec57197-7408-4382-b4f6-e6a3a756c7df" d="M271.6,34.2c-4.9-1.9-13.1-1.3-17,1.2s-2.6,4.6,0,6.2c5.7,3.5,15.7,2,19.3-2.3.1-.1.2-.1.2-.2C276.9,37.4,274.9,34.6,271.6,34.2Z"/><path class="f9e85bed-499d-4ddc-83bf-ce12cc9b2bce" d="M270.5,35.3c-5-1.9-13.2-1.3-17.1,1.2-2.4,1.6-2.6,4.6,0,6.2,5.7,3.5,15.7,2,19.3-2.4h.3C275.7,38.5,273.7,35.7,270.5,35.3Z"/><path class="e9615ac6-a5b6-40b9-b871-de0de9ebe22e" d="M69.1,54c-4.9-1.9-13.1-1.4-17,1.2s-2.6,4.6,0,6.2c5.7,3.5,15.7,2,19.3-2.4h.2C74.3,57.2,72.4,54.4,69.1,54Z"/><path class="bc19f94f-2f6f-4ed5-affe-37cfc6c74c05" d="M70.3,52.3c-5-1.9-13.2-1.3-17.1,1.2s-2.6,4.6,0,6.2c5.7,3.5,15.7,2,19.3-2.3l.3-.2C75.5,55.5,73.5,52.7,70.3,52.3Z"/><path class="bd5796f4-8959-440d-98d5-f7ff367984c4" d="M69.1,53.4c-4.9-1.9-13.1-1.3-17,1.2s-2.6,4.6,0,6.2c5.7,3.5,15.7,2,19.3-2.4h.2C74.3,56.6,72.4,53.8,69.1,53.4Z"/><path class="b647c1c1-67f0-4f8e-b301-0f6fc093af04" d="M332.6,46.7A129.6,129.6,0,0,1,331,65.2c-.2,1.6-2.3,2.9-4.8,3-94.8,4.2-189.9,4.8-284.7.6-2.5-.1-4.6-1.4-4.8-3.1-1.5-12.2-3.1-25.1-2.3-37.4a56.7,56.7,0,0,1,.5-5.8c.2-1.7,2.4-3,5-3.1,101.2-1.9,196.4-1.9,285.6,1.4,2.4.1,4.5,1.3,4.8,2.9A115.7,115.7,0,0,1,332.6,46.7Z"/><path class="fc51cadd-53fd-45f7-adf9-258187588e04" d="M330.8,46.3l-1,2.1a32.8,32.8,0,0,0-2.2,6.7,19.9,19.9,0,0,0-.5,3.4c0,.4.2.7.2,1.1a.9.9,0,0,1-.1.5c0,.2-.2.4-.2.6s-1,1.4-.8,1.6c-3.1-3.7-2.8-8.2-3-12.4s-1.7-8.8-7-11.3c-3.5-1.6-7.9-1.9-12.2-2.1-85.2-4.4-171.4-6.4-256.9-6l-1.7,3.3c-.7,1.7-1.4,3.3-2,5l-.9,2.6a10.5,10.5,0,0,0-.6,2.4c0,.3.1.5.1.7s-.3.8-.4,1.2a25.8,25.8,0,0,0-.8,2.6c-.1.9-.3,1.7-.4,2.6a11.3,11.3,0,0,0,0,2.6c-.2-1.4-.4-2.7-.7-4-.5-3.6-1.1-7.2-1.7-10.9-.2-1.8-.5-3.6-.8-5.4a4.2,4.2,0,0,0-.6-2.1l-.6-.5a11.9,11.9,0,0,1-1.6-2.3,56.7,56.7,0,0,1,.5-5.8c.2-1.7,2.4-3,5-3.1,101.2-1.9,196.4-1.9,285.6,1.4,2.4.1,4.5,1.3,4.8,2.9a76.5,76.5,0,0,1,1.5,9.4c.2,1.2.3,2.4.4,3.6a12.2,12.2,0,0,1,.1,3.3c-.1.9.3,1.8.1,2.7a12,12,0,0,1-1.3,3.1Z"/><path class="fbb59056-1d5d-456b-88f4-e8f83e017955" d="M325.9,64.8c-27.8,1.2-55.4,2.1-82.6,2.7-19.5.4-38.8.6-57.8.7H173.4c-44.7,0-88.9-.9-131.5-2.8-1.6-12.7-3.4-27-2.1-40.1a21.1,21.1,0,0,1,.2-2.5c45.6-.8,87.2-1.3,127.1-1.3,19.1,0,37.6.1,55.6.3h5.7c16.7.2,32.9.5,48.8.9s32.3.8,48,1.4a92.1,92.1,0,0,1,1.7,11.9A115.5,115.5,0,0,1,325.9,64.8Z"/><path class="a91b2722-84d0-4d5c-9b0b-a2b08bbbf8f5" d="M326.9,36.1a19.1,19.1,0,0,1-.5,4.8c-.9,8-28.2,7-36,7.3-70.1,3-141.4.7-211.5-1.5l-30.6-1c-7.5-.3-6.9-4.6-7.4-8.5s-.9-7.9-1.1-11.9a21.1,21.1,0,0,1,.2-2.5c45.6-.8,87.2-1.3,127.1-1.3,57.2,0,108.9.9,158.1,2.7A92.1,92.1,0,0,1,326.9,36.1Z"/><path class="a5315417-14a9-4f1a-8704-7c2dd0a98689" d="M277.2,22.8c-5,.7-9.4,1.5-12.4,4.4A179,179,0,0,0,242,53.4c-1.6,2.4-3.2,4.9-3.3,7.6a7.5,7.5,0,0,0,4.6,6.5c-19.5.4-38.8.6-57.8.7a32.7,32.7,0,0,0,16.4-4.6c5-2.9,8.7-6.8,12.3-10.6l14.3-15c2.1-2.1,4.2-4.3,5.2-6.8a6.3,6.3,0,0,0-1.4-7.3,9.6,9.6,0,0,0-3.9-2C245.1,22.1,261.3,22.4,277.2,22.8Z"/><text class="fa9bdc4b-f7e9-4da9-922d-675606ed6363" transform="translate(81.5 57.6) scale(1.09 1)">ROA<tspan class="bb3e4015-cb75-4ac1-84c9-369b94af4834" x="75.7" y="0">D</tspan><tspan class="a5b28f62-b0f5-48b2-abc5-3cdb3187363c" x="100.5" y="0">MA</tspan><tspan class="a86f5358-5d86-4020-839e-c0b4e2783b3c" x="159" y="0">P</tspan></text></g></g></svg>