<svg id="b3051c83-4bba-46ec-9cc9-af0d740bff34" data-name="Layer 1" xmlns="http://www.w3.org/2000/svg" xmlns:xlink="http://www.w3.org/1999/xlink" viewBox="0 0 347.5 90.2"><defs><style>.a3a2b0fa-0748-445e-b223-bc6e564e7da1{fill:#712102;}.beee36c7-5ecb-422a-9986-933d52119d63{fill:#f7a238;}.a0b2c1b6-3aaf-4b7d-8ded-60e91f9ca214{fill:url(#e7fbab6c-b4f4-42fe-9ca8-081a882c6cc0);}.e3f42307-3009-4799-a9c3-640b36aa322d{fill:url(#b02844b4-d980-46dc-9ae3-8f7af5c38400);}.e88ad07d-db53-4002-84df-74a7bf44b7da{fill:url(#a3605305-18b3-4a53-bf0e-afca8ad0ef52);}.e46e3dbb-925c-44f1-bd40-b4bbf6152f90{opacity:0.5;}.aa56e102-39a3-41fa-be7b-32f5f0ee20ef,.b88bd984-8d15-4219-b277-08253c0808d4,.eaa06b8a-9180-46e3-9694-729506d3ae73{fill:#fff;}.b88bd984-8d15-4219-b277-08253c0808d4,.eaa06b8a-9180-46e3-9694-729506d3ae73{font-size:37.16px;stroke:#1d1d1b;stroke-miterlimit:10;stroke-width:0.39px;font-family:NewRocker-Regular, New Rocker;}.eaa06b8a-9180-46e3-9694-729506d3ae73{letter-spacing:0em;}.b88bd984-8d15-4219-b277-08253c0808d4{letter-spacing:0em;}</style><linearGradient id="e7fbab6c-b4f4-42fe-9ca8-081a882c6cc0" x1="299.76" y1="48.5" x2="335.61" y2="48.5" gradientUnits="userSpaceOnUse"><stop offset="0" stop-color="#edd6b9"/><stop offset="1" stop-color="#d4b492"/></linearGradient><linearGradient id="b02844b4-d980-46dc-9ae3-8f7af5c38400" x1="13.58" y1="48.35" x2="49.43" y2="48.35" xlink:href="#e7fbab6c-b4f4-42fe-9ca8-081a882c6cc0"/><radialGradient id="a3605305-18b3-4a53-bf0e-afca8ad0ef52" cx="175.5" cy="35.05" r="100" gradientUnits="userSpaceOnUse"><stop offset="0" stop-color="#f5812a"/><stop offset="1" stop-color="#bd5519"/></radialGradient></defs><path class="a3a2b0fa-0748-445e-b223-bc6e564e7da1" d="M309.6,89.5a21.4,21.4,0,0,1-18.1-10.2H57.6a21.3,21.3,0,0,1-18,10.1H21.7A14.9,14.9,0,0,1,6.9,76.2L2.3,35.3A14.9,14.9,0,0,1,5.9,23.7,15.2,15.2,0,0,1,17,18.8H27.1a19.6,19.6,0,0,1,4.4-9.3A20.2,20.2,0,0,1,47.1,2.2l259.6.9a20.3,20.3,0,0,1,15.7,7.4,20.8,20.8,0,0,1,4.2,8.4h5.6a15,15,0,0,1,11.1,5,14.6,14.6,0,0,1,3.6,11.5l-4.6,40.9a14.9,14.9,0,0,1-14.8,13.2Z"/><path class="beee36c7-5ecb-422a-9986-933d52119d63" d="M339,22a8.9,8.9,0,0,0-6.8-3.1H321.3A14.6,14.6,0,0,0,306.7,3.1L47.1,2.2A14.9,14.9,0,0,0,35.8,7.4a15.1,15.1,0,0,0-3.3,11.4H17a9.2,9.2,0,0,0-6.8,3,9.4,9.4,0,0,0-2.3,7.1l4.7,40.9a9,9,0,0,0,9.1,8.1H39.6a15.4,15.4,0,0,0,14.5-10H295a15.6,15.6,0,0,0,14.6,10.2h17.9a9.1,9.1,0,0,0,9.1-8.1l4.7-40.9A9.2,9.2,0,0,0,339,22Z"/><path class="a0b2c1b6-3aaf-4b7d-8ded-60e91f9ca214" d="M327.5,72.4H309.6a9.8,9.8,0,0,1-9.8-9.9V24.6h32.4a3.5,3.5,0,0,1,3.4,3.8c-1.6,13.7-3.1,27.3-4.7,40.9A3.4,3.4,0,0,1,327.5,72.4Z"/><path class="e3f42307-3009-4799-a9c3-640b36aa322d" d="M21.7,72.2H39.6a9.8,9.8,0,0,0,9.8-9.8V24.5H17a3.5,3.5,0,0,0-3.4,3.8c1.6,13.6,3.1,27.3,4.7,40.9A3.4,3.4,0,0,0,21.7,72.2Z"/><path class="e88ad07d-db53-4002-84df-74a7bf44b7da" d="M298.8,62.2H52.1a9,9,0,0,1-8.9-7.4L36.9,18.5A9,9,0,0,1,45.8,7.9l259.5.9a9,9,0,0,1,8.8,10.6c-2.1,11.8-4.3,23.6-6.4,35.4A9,9,0,0,1,298.8,62.2Z"/><g class="e46e3dbb-925c-44f1-bd40-b4bbf6152f90"><path class="aa56e102-39a3-41fa-be7b-32f5f0ee20ef" d="M46.2,38.9,44.3,16.8a5.1,5.1,0,0,1,5-5.5l50.9-1.2L49.4,14a3.5,3.5,0,0,0-3.2,3.5Z"/></g><text class="eaa06b8a-9180-46e3-9694-729506d3ae73" transform="translate(118.5 49.5) scale(0.98 0.99)">Phase 1</text><path class="a3a2b0fa-0748-445e-b223-bc6e564e7da1" d="M309.6,89.5a21.4,21.4,0,0,1-18.1-10.2H57.6a21.3,21.3,0,0,1-18,10.1H21.7A14.9,14.9,0,0,1,6.9,76.2L2.3,35.3A14.9,14.9,0,0,1,5.9,23.7,15.2,15.2,0,0,1,17,18.8H27.1a19.6,19.6,0,0,1,4.4-9.3A20.2,20.2,0,0,1,47.1,2.2l259.6.9a20.3,20.3,0,0,1,15.7,7.4,20.8,20.8,0,0,1,4.2,8.4h5.6a15,15,0,0,1,11.1,5,14.6,14.6,0,0,1,3.6,11.5l-4.6,40.9a14.9,14.9,0,0,1-14.8,13.2Z"/><path class="beee36c7-5ecb-422a-9986-933d52119d63" d="M339,22a8.9,8.9,0,0,0-6.8-3.1H321.3A14.6,14.6,0,0,0,306.7,3.1L47.1,2.2A14.9,14.9,0,0,0,35.8,7.4a15.1,15.1,0,0,0-3.3,11.4H17a9.2,9.2,0,0,0-6.8,3,9.4,9.4,0,0,0-2.3,7.1l4.7,40.9a9,9,0,0,0,9.1,8.1H39.6a15.4,15.4,0,0,0,14.5-10H295a15.6,15.6,0,0,0,14.6,10.2h17.9a9.1,9.1,0,0,0,9.1-8.1l4.7-40.9A9.2,9.2,0,0,0,339,22Z"/><path class="a0b2c1b6-3aaf-4b7d-8ded-60e91f9ca214" d="M327.5,72.4H309.6a9.8,9.8,0,0,1-9.8-9.9V24.6h32.4a3.5,3.5,0,0,1,3.4,3.8c-1.6,13.7-3.1,27.3-4.7,40.9A3.4,3.4,0,0,1,327.5,72.4Z"/><path class="e3f42307-3009-4799-a9c3-640b36aa322d" d="M21.7,72.2H39.6a9.8,9.8,0,0,0,9.8-9.8V24.5H17a3.5,3.5,0,0,0-3.4,3.8c1.6,13.6,3.1,27.3,4.7,40.9A3.4,3.4,0,0,0,21.7,72.2Z"/><path class="e88ad07d-db53-4002-84df-74a7bf44b7da" d="M298.8,62.2H52.1a9,9,0,0,1-8.9-7.4L36.9,18.5A9,9,0,0,1,45.8,7.9l259.5.9a9,9,0,0,1,8.8,10.6c-2.1,11.8-4.3,23.6-6.4,35.4A9,9,0,0,1,298.8,62.2Z"/><g class="e46e3dbb-925c-44f1-bd40-b4bbf6152f90"><path class="aa56e102-39a3-41fa-be7b-32f5f0ee20ef" d="M46.2,38.9,44.3,16.8a5.1,5.1,0,0,1,5-5.5l50.9-1.2L49.4,14a3.5,3.5,0,0,0-3.2,3.5Z"/></g><text class="b88bd984-8d15-4219-b277-08253c0808d4" transform="translate(118.5 49.5) scale(0.98 0.99)">Phase 5</text></svg>