<svg id="bb26d485-011f-46bd-9aca-f5c981be83f7" data-name="Layer 1" xmlns="http://www.w3.org/2000/svg" xmlns:xlink="http://www.w3.org/1999/xlink" viewBox="0 0 255.7 70"><defs><style>.ff43f0ab-c66b-4163-b047-8948ec33e534{fill:#712102;}.bf34379f-de5f-4629-8b1d-1e2a80843153{fill:#f7a238;}.b901ec20-5c8d-4228-89a8-6c9d423d1d4d{fill:url(#b96f7239-b049-43c7-b5d9-66314be06b96);}.f2eb2912-5cde-434a-8c38-882b24bf200c{fill:url(#e32e8d65-d227-454c-992f-6bf9fcf96e72);}.beea7490-e124-44a1-859d-daca099d3ec9{fill:url(#a92500d2-3fe5-46c9-8779-4a037a4325fc);}.ed55c3b2-4ad9-46a1-889a-99acb9b5b33a{opacity:0.5;}.bf90ccf4-d22d-45a7-ae6c-27fdfc15624f,.e71852ed-6aea-40c8-9025-d681a159ab26{fill:#fff;}.bf90ccf4-d22d-45a7-ae6c-27fdfc15624f{font-size:26.01px;stroke:#1d1d1b;stroke-miterlimit:10;stroke-width:0.27px;font-family:NewRocker-Regular, New Rocker;letter-spacing:0em;}</style><linearGradient id="b96f7239-b049-43c7-b5d9-66314be06b96" x1="215.48" y1="38.3" x2="240.58" y2="38.3" gradientUnits="userSpaceOnUse"><stop offset="0" stop-color="#edd6b9"/><stop offset="1" stop-color="#d4b492"/></linearGradient><linearGradient id="e32e8d65-d227-454c-992f-6bf9fcf96e72" x1="15.14" y1="38.19" x2="40.24" y2="38.19" xlink:href="#b96f7239-b049-43c7-b5d9-66314be06b96"/><radialGradient id="a92500d2-3fe5-46c9-8779-4a037a4325fc" cx="128.49" cy="28.88" r="70.01" gradientUnits="userSpaceOnUse"><stop offset="0" stop-color="#f5812a"/><stop offset="1" stop-color="#bd5519"/></radialGradient></defs><path class="ff43f0ab-c66b-4163-b047-8948ec33e534" d="M222.4,67a15.1,15.1,0,0,1-12.7-7.1H46a15,15,0,0,1-12.7,7H20.8a10.4,10.4,0,0,1-10.3-9.2L7.2,29.1A10.4,10.4,0,0,1,9.8,21a10.1,10.1,0,0,1,7.7-3.5h7.1A13.6,13.6,0,0,1,27.7,11,14,14,0,0,1,38.6,5.9l181.8.6a14.1,14.1,0,0,1,10.9,5.2,13.3,13.3,0,0,1,3,5.9h3.9a10.5,10.5,0,0,1,10.3,11.6l-3.3,28.6A10.4,10.4,0,0,1,234.9,67Z"/><path class="bf34379f-de5f-4629-8b1d-1e2a80843153" d="M243,19.7a6.8,6.8,0,0,0-4.8-2.1h-7.6a10.1,10.1,0,0,0-2.4-7.4,10.2,10.2,0,0,0-7.8-3.7L38.6,5.9a10.5,10.5,0,0,0-7.9,3.6,10.6,10.6,0,0,0-2.3,8H17.5a6.4,6.4,0,0,0-4.7,2.1,6.6,6.6,0,0,0-1.6,5l3.2,28.6a6.4,6.4,0,0,0,6.4,5.7H33.3a10.9,10.9,0,0,0,10.2-7H212.2A10.9,10.9,0,0,0,222.4,59h12.5a6.4,6.4,0,0,0,6.4-5.7l3.2-28.6A6.5,6.5,0,0,0,243,19.7Z"/><path class="b901ec20-5c8d-4228-89a8-6c9d423d1d4d" d="M234.9,55H222.4a6.9,6.9,0,0,1-6.9-6.9V21.6h22.7a2.5,2.5,0,0,1,2.4,2.7l-3.3,28.6A2.4,2.4,0,0,1,234.9,55Z"/><path class="f2eb2912-5cde-434a-8c38-882b24bf200c" d="M20.8,54.9H33.3A6.9,6.9,0,0,0,40.2,48V21.5H17.5a2.3,2.3,0,0,0-2.3,2.7c1,9.5,2.1,19,3.2,28.6A2.5,2.5,0,0,0,20.8,54.9Z"/><path class="beea7490-e124-44a1-859d-daca099d3ec9" d="M214.8,47.9H42.1a6.2,6.2,0,0,1-6.2-5.2L31.4,17.3a6.3,6.3,0,0,1,6.3-7.4l181.7.6a6.4,6.4,0,0,1,6.2,7.5c-1.6,8.2-3.1,16.5-4.6,24.7A6.2,6.2,0,0,1,214.8,47.9Z"/><g class="ed55c3b2-4ad9-46a1-889a-99acb9b5b33a"><path class="e71852ed-6aea-40c8-9025-d681a159ab26" d="M38,31.6,36.7,16.1a3.6,3.6,0,0,1,3.5-3.9l35.6-.8L40.2,14.1A2.5,2.5,0,0,0,38,16.6Z"/></g><text class="bf90ccf4-d22d-45a7-ae6c-27fdfc15624f" transform="translate(88.6 39) scale(0.98 0.99)">Phase 1</text></svg>