<svg id="b92036e8-8d60-4813-ad00-f1a5449d1aae" data-name="Layer 1" xmlns="http://www.w3.org/2000/svg" xmlns:xlink="http://www.w3.org/1999/xlink" viewBox="0 0 271.7 72"><defs><style>.ab14a3dd-5c34-445d-b921-eb9b6046efc8{fill:#712102;}.ac842360-fe75-426c-90f9-a1a0a5927616{fill:#f7a238;}.e71e5ada-df3c-483c-a28a-b5c85ded18bc{fill:url(#bc5a0254-83de-4c6a-aee0-693dd3b3b414);}.b72281e2-fef0-4c44-85d5-792d73756b68{fill:url(#f1eb9730-54ae-4b8d-8855-b94be7a4ade9);}.b56fcd86-e933-4e62-ba8c-cfbb17f7c6cc{fill:url(#a6e5b535-9b37-4945-b348-f915d7da0f74);}.f5846159-8ce0-4547-9908-f33d6d73d1a7{opacity:0.5;}.a834cc44-da05-4653-9e74-501ed125ad76,.b5cf37fc-e171-4bae-9f1d-7518acd889a7,.e3048152-e70d-417f-8338-12e30961f95a{fill:#fff;}.b5cf37fc-e171-4bae-9f1d-7518acd889a7,.e3048152-e70d-417f-8338-12e30961f95a{font-size:28.99px;stroke:#1d1d1b;stroke-miterlimit:10;stroke-width:0.31px;font-family:NewRocker-Regular, New Rocker;}.b5cf37fc-e171-4bae-9f1d-7518acd889a7{letter-spacing:0em;}.b04764af-f087-4c2d-967a-76222a30686c{fill:url(#a995b713-1c1f-4dd4-b83f-ea4ccc53fd7b);}.e3048152-e70d-417f-8338-12e30961f95a{letter-spacing:0em;}</style><linearGradient id="bc5a0254-83de-4c6a-aee0-693dd3b3b414" x1="234.34" y1="39.01" x2="262.31" y2="39.01" gradientUnits="userSpaceOnUse"><stop offset="0" stop-color="#edd6b9"/><stop offset="1" stop-color="#d4b492"/></linearGradient><linearGradient id="f1eb9730-54ae-4b8d-8855-b94be7a4ade9" x1="11.05" y1="38.89" x2="39.02" y2="38.89" xlink:href="#bc5a0254-83de-4c6a-aee0-693dd3b3b414"/><radialGradient id="a6e5b535-9b37-4945-b348-f915d7da0f74" cx="137.39" cy="28.51" r="78.02" gradientUnits="userSpaceOnUse"><stop offset="0" stop-color="#f5812a"/><stop offset="1" stop-color="#bd5519"/></radialGradient><linearGradient id="a995b713-1c1f-4dd4-b83f-ea4ccc53fd7b" x1="234.34" y1="39.01" x2="262.31" y2="39.01" xlink:href="#bc5a0254-83de-4c6a-aee0-693dd3b3b414"/></defs><path class="ab14a3dd-5c34-445d-b921-eb9b6046efc8" d="M242,71a16.7,16.7,0,0,1-14.1-7.9H45.4a16.9,16.9,0,0,1-14.1,7.8H17.4A11.5,11.5,0,0,1,5.9,60.6L2.2,28.7a11.7,11.7,0,0,1,2.9-9,11.4,11.4,0,0,1,8.6-3.9h7.9A16.5,16.5,0,0,1,25,8.6,15.6,15.6,0,0,1,37.2,2.9l202.6.7A15.9,15.9,0,0,1,252,9.3a17.1,17.1,0,0,1,3.3,6.6h4.3a11.6,11.6,0,0,1,8.7,3.9,11.4,11.4,0,0,1,2.8,9l-3.6,31.9A11.6,11.6,0,0,1,256,71Z"/><path class="ac842360-fe75-426c-90f9-a1a0a5927616" d="M265,18.3a7.3,7.3,0,0,0-5.4-2.4h-8.4a11.7,11.7,0,0,0-2.6-8.2,11.5,11.5,0,0,0-8.8-4.1L37.2,2.9A11.5,11.5,0,0,0,28.4,7a11.2,11.2,0,0,0-2.6,8.8H13.7a7.2,7.2,0,0,0-7.1,7.9l3.7,32A7.1,7.1,0,0,0,17.4,62H31.3a12.3,12.3,0,0,0,11.4-7.8H230.6A12.3,12.3,0,0,0,242,62.1h14a7.1,7.1,0,0,0,7.1-6.3l3.6-31.9A7.4,7.4,0,0,0,265,18.3Z"/><path class="e71e5ada-df3c-483c-a28a-b5c85ded18bc" d="M256,57.6H242a7.7,7.7,0,0,1-7.7-7.6V20.4h25.3a2.7,2.7,0,0,1,2.7,3l-3.6,31.9A2.7,2.7,0,0,1,256,57.6Z"/><path class="b72281e2-fef0-4c44-85d5-792d73756b68" d="M17.4,57.5H31.3A7.6,7.6,0,0,0,39,49.8V20.3H13.7a2.6,2.6,0,0,0-2.6,2.9l3.6,32A2.7,2.7,0,0,0,17.4,57.5Z"/><path class="b56fcd86-e933-4e62-ba8c-cfbb17f7c6cc" d="M233.6,49.7H41.1a7,7,0,0,1-6.9-5.8l-5-28.3a7.1,7.1,0,0,1,7-8.3L238.7,8a7.2,7.2,0,0,1,6.9,8.3l-5.1,27.6A7,7,0,0,1,233.6,49.7Z"/><g class="f5846159-8ce0-4547-9908-f33d6d73d1a7"><path class="a834cc44-da05-4653-9e74-501ed125ad76" d="M36.5,31.5,35,14.3A3.9,3.9,0,0,1,38.9,10L78.6,9,39,12.1a2.7,2.7,0,0,0-2.5,2.7Z"/></g><text class="b5cf37fc-e171-4bae-9f1d-7518acd889a7" transform="translate(92.9 39.8) scale(0.98 0.99)">Phase 1</text><path class="ab14a3dd-5c34-445d-b921-eb9b6046efc8" d="M242,71a16.7,16.7,0,0,1-14.1-7.9H45.4a16.9,16.9,0,0,1-14.1,7.8H17.4A11.5,11.5,0,0,1,5.9,60.6L2.2,28.7a11.7,11.7,0,0,1,2.9-9,11.4,11.4,0,0,1,8.6-3.9h7.9A16.5,16.5,0,0,1,25,8.6,15.6,15.6,0,0,1,37.2,2.9l202.6.7A15.9,15.9,0,0,1,252,9.3a17.1,17.1,0,0,1,3.3,6.6h4.3a11.6,11.6,0,0,1,8.7,3.9,11.4,11.4,0,0,1,2.8,9l-3.6,31.9A11.6,11.6,0,0,1,256,71Z"/><path class="ac842360-fe75-426c-90f9-a1a0a5927616" d="M265,18.3a7.3,7.3,0,0,0-5.4-2.4h-8.4a11.7,11.7,0,0,0-2.6-8.2,11.5,11.5,0,0,0-8.8-4.1L37.2,2.9A11.5,11.5,0,0,0,28.4,7a11.2,11.2,0,0,0-2.6,8.8H13.7a7.2,7.2,0,0,0-7.1,7.9l3.7,32A7.1,7.1,0,0,0,17.4,62H31.3a12.3,12.3,0,0,0,11.4-7.8H230.6A12.3,12.3,0,0,0,242,62.1h14a7.1,7.1,0,0,0,7.1-6.3l3.6-31.9A7.4,7.4,0,0,0,265,18.3Z"/><path class="b04764af-f087-4c2d-967a-76222a30686c" d="M256,57.6H242a7.7,7.7,0,0,1-7.7-7.6V20.4h25.3a2.7,2.7,0,0,1,2.7,3l-3.6,31.9A2.7,2.7,0,0,1,256,57.6Z"/><path class="b72281e2-fef0-4c44-85d5-792d73756b68" d="M17.4,57.5H31.3A7.6,7.6,0,0,0,39,49.8V20.3H13.7a2.6,2.6,0,0,0-2.6,2.9l3.6,32A2.7,2.7,0,0,0,17.4,57.5Z"/><path class="b56fcd86-e933-4e62-ba8c-cfbb17f7c6cc" d="M233.6,49.7H41.1a7,7,0,0,1-6.9-5.8l-5-28.3a7.1,7.1,0,0,1,7-8.3L238.7,8a7.2,7.2,0,0,1,6.9,8.3l-5.1,27.6A7,7,0,0,1,233.6,49.7Z"/><g class="f5846159-8ce0-4547-9908-f33d6d73d1a7"><path class="a834cc44-da05-4653-9e74-501ed125ad76" d="M36.5,31.5,35,14.3A3.9,3.9,0,0,1,38.9,10L78.6,9,39,12.1a2.7,2.7,0,0,0-2.5,2.7Z"/></g><text class="e3048152-e70d-417f-8338-12e30961f95a" transform="translate(92.9 39.8) scale(0.98 0.99)">Phase 2</text></svg>