<svg id="b3b7aa0f-06a9-4ad3-a59e-6d4840a36b84" data-name="Layer 1" xmlns="http://www.w3.org/2000/svg" xmlns:xlink="http://www.w3.org/1999/xlink" viewBox="0 0 347.5 90.2"><defs><style>.b0db2675-2dba-46b7-af95-67a6956fd3c7{fill:#712102;}.bf4f76af-b267-41f3-a583-e3cc5cde1c2c{fill:#f7a238;}.acd3232f-9829-4049-9170-0b8c4aa081e1{fill:url(#bfcfb44e-c0d8-4a20-aae7-9b12f82d5ff5);}.bc20955c-77ce-41e7-b892-b84cafd58081{fill:url(#b81d3e93-7879-493f-9218-e81da39138e4);}.a412d73b-ac84-4d18-a053-c569e702ceda{fill:url(#aeb136b5-5fa9-4cdc-9390-672c164e991d);}.a34a8535-a57b-4d5d-bb25-da83de5baf35{opacity:0.5;}.a0fce94f-50b0-4878-bb09-ff3b92a8d676,.a24a95a5-783e-41dc-8c55-fe4e04be3a5c,.bb87a527-4708-45e8-b956-e02678a1f200{fill:#fff;}.a0fce94f-50b0-4878-bb09-ff3b92a8d676,.bb87a527-4708-45e8-b956-e02678a1f200{font-size:37.16px;stroke:#1d1d1b;stroke-miterlimit:10;stroke-width:0.39px;font-family:NewRocker-Regular, New Rocker;}.a0fce94f-50b0-4878-bb09-ff3b92a8d676{letter-spacing:0em;}.bb87a527-4708-45e8-b956-e02678a1f200{letter-spacing:0em;}</style><linearGradient id="bfcfb44e-c0d8-4a20-aae7-9b12f82d5ff5" x1="299.76" y1="48.5" x2="335.61" y2="48.5" gradientUnits="userSpaceOnUse"><stop offset="0" stop-color="#edd6b9"/><stop offset="1" stop-color="#d4b492"/></linearGradient><linearGradient id="b81d3e93-7879-493f-9218-e81da39138e4" x1="13.58" y1="48.35" x2="49.43" y2="48.35" xlink:href="#bfcfb44e-c0d8-4a20-aae7-9b12f82d5ff5"/><radialGradient id="aeb136b5-5fa9-4cdc-9390-672c164e991d" cx="175.5" cy="35.05" r="100" gradientUnits="userSpaceOnUse"><stop offset="0" stop-color="#f5812a"/><stop offset="1" stop-color="#bd5519"/></radialGradient></defs><path class="b0db2675-2dba-46b7-af95-67a6956fd3c7" d="M309.6,89.5a21.4,21.4,0,0,1-18.1-10.2H57.6a21.3,21.3,0,0,1-18,10.1H21.7A14.9,14.9,0,0,1,6.9,76.2L2.3,35.3A14.9,14.9,0,0,1,5.9,23.7,15.2,15.2,0,0,1,17,18.8H27.1a19.6,19.6,0,0,1,4.4-9.3A20.2,20.2,0,0,1,47.1,2.2l259.6.9a20.3,20.3,0,0,1,15.7,7.4,20.8,20.8,0,0,1,4.2,8.4h5.6a15,15,0,0,1,11.1,5,14.6,14.6,0,0,1,3.6,11.5l-4.6,40.9a14.9,14.9,0,0,1-14.8,13.2Z"/><path class="bf4f76af-b267-41f3-a583-e3cc5cde1c2c" d="M339,22a8.9,8.9,0,0,0-6.8-3.1H321.3A14.6,14.6,0,0,0,306.7,3.1L47.1,2.2A14.9,14.9,0,0,0,35.8,7.4a15.1,15.1,0,0,0-3.3,11.4H17a9.2,9.2,0,0,0-6.8,3,9.4,9.4,0,0,0-2.3,7.1l4.7,40.9a9,9,0,0,0,9.1,8.1H39.6a15.4,15.4,0,0,0,14.5-10H295a15.6,15.6,0,0,0,14.6,10.2h17.9a9.1,9.1,0,0,0,9.1-8.1l4.7-40.9A9.2,9.2,0,0,0,339,22Z"/><path class="acd3232f-9829-4049-9170-0b8c4aa081e1" d="M327.5,72.4H309.6a9.8,9.8,0,0,1-9.8-9.9V24.6h32.4a3.5,3.5,0,0,1,3.4,3.8c-1.6,13.7-3.1,27.3-4.7,40.9A3.4,3.4,0,0,1,327.5,72.4Z"/><path class="bc20955c-77ce-41e7-b892-b84cafd58081" d="M21.7,72.2H39.6a9.8,9.8,0,0,0,9.8-9.8V24.5H17a3.5,3.5,0,0,0-3.4,3.8c1.6,13.6,3.1,27.3,4.7,40.9A3.4,3.4,0,0,0,21.7,72.2Z"/><path class="a412d73b-ac84-4d18-a053-c569e702ceda" d="M298.8,62.2H52.1a9,9,0,0,1-8.9-7.4L36.9,18.5A9,9,0,0,1,45.8,7.9l259.5.9a9,9,0,0,1,8.8,10.6c-2.1,11.8-4.3,23.6-6.4,35.4A9,9,0,0,1,298.8,62.2Z"/><g class="a34a8535-a57b-4d5d-bb25-da83de5baf35"><path class="a24a95a5-783e-41dc-8c55-fe4e04be3a5c" d="M46.2,38.9,44.3,16.8a5.1,5.1,0,0,1,5-5.5l50.9-1.2L49.4,14a3.5,3.5,0,0,0-3.2,3.5Z"/></g><text class="a0fce94f-50b0-4878-bb09-ff3b92a8d676" transform="translate(118.5 49.5) scale(0.98 0.99)">Phase 1</text><path class="b0db2675-2dba-46b7-af95-67a6956fd3c7" d="M309.6,89.5a21.4,21.4,0,0,1-18.1-10.2H57.6a21.3,21.3,0,0,1-18,10.1H21.7A14.9,14.9,0,0,1,6.9,76.2L2.3,35.3A14.9,14.9,0,0,1,5.9,23.7,15.2,15.2,0,0,1,17,18.8H27.1a19.6,19.6,0,0,1,4.4-9.3A20.2,20.2,0,0,1,47.1,2.2l259.6.9a20.3,20.3,0,0,1,15.7,7.4,20.8,20.8,0,0,1,4.2,8.4h5.6a15,15,0,0,1,11.1,5,14.6,14.6,0,0,1,3.6,11.5l-4.6,40.9a14.9,14.9,0,0,1-14.8,13.2Z"/><path class="bf4f76af-b267-41f3-a583-e3cc5cde1c2c" d="M339,22a8.9,8.9,0,0,0-6.8-3.1H321.3A14.6,14.6,0,0,0,306.7,3.1L47.1,2.2A14.9,14.9,0,0,0,35.8,7.4a15.1,15.1,0,0,0-3.3,11.4H17a9.2,9.2,0,0,0-6.8,3,9.4,9.4,0,0,0-2.3,7.1l4.7,40.9a9,9,0,0,0,9.1,8.1H39.6a15.4,15.4,0,0,0,14.5-10H295a15.6,15.6,0,0,0,14.6,10.2h17.9a9.1,9.1,0,0,0,9.1-8.1l4.7-40.9A9.2,9.2,0,0,0,339,22Z"/><path class="acd3232f-9829-4049-9170-0b8c4aa081e1" d="M327.5,72.4H309.6a9.8,9.8,0,0,1-9.8-9.9V24.6h32.4a3.5,3.5,0,0,1,3.4,3.8c-1.6,13.7-3.1,27.3-4.7,40.9A3.4,3.4,0,0,1,327.5,72.4Z"/><path class="bc20955c-77ce-41e7-b892-b84cafd58081" d="M21.7,72.2H39.6a9.8,9.8,0,0,0,9.8-9.8V24.5H17a3.5,3.5,0,0,0-3.4,3.8c1.6,13.6,3.1,27.3,4.7,40.9A3.4,3.4,0,0,0,21.7,72.2Z"/><path class="a412d73b-ac84-4d18-a053-c569e702ceda" d="M298.8,62.2H52.1a9,9,0,0,1-8.9-7.4L36.9,18.5A9,9,0,0,1,45.8,7.9l259.5.9a9,9,0,0,1,8.8,10.6c-2.1,11.8-4.3,23.6-6.4,35.4A9,9,0,0,1,298.8,62.2Z"/><g class="a34a8535-a57b-4d5d-bb25-da83de5baf35"><path class="a24a95a5-783e-41dc-8c55-fe4e04be3a5c" d="M46.2,38.9,44.3,16.8a5.1,5.1,0,0,1,5-5.5l50.9-1.2L49.4,14a3.5,3.5,0,0,0-3.2,3.5Z"/></g><text class="bb87a527-4708-45e8-b956-e02678a1f200" transform="translate(118.5 49.5) scale(0.98 0.99)">Phase 4</text></svg>