<svg id="b1b1b5dc-946f-4316-b076-0a7db4d7e49b" data-name="Layer 1" xmlns="http://www.w3.org/2000/svg" xmlns:xlink="http://www.w3.org/1999/xlink" viewBox="0 0 347.5 90.2"><defs><style>.b2a5719b-405e-43a3-bd00-a7581e4314ef{fill:#712102;}.b432e376-fbbb-45db-acff-8472b0722150{fill:#f7a238;}.bd86d974-8fb2-4add-97fa-b999aa154ab9{fill:url(#fb930a9a-a74a-47e3-9964-67950aced5da);}.a9948ab2-793a-4f06-ac17-c05a7c638bd0{fill:url(#b616f35e-f70a-4467-b489-88bbc165298e);}.bcd14ef0-d3cd-41fb-baa2-dab33f1800e7{fill:url(#a6084a44-bc2a-4419-aa36-17a46222157a);}.b3fffef3-2d81-48dd-be8b-f37b76578170{opacity:0.5;}.ac098949-0877-43be-baab-aa04d834ec37,.bef89e18-94d0-4010-a55d-60a87be1e354,.e72b1dbc-33f7-452e-a364-922a1443f475{fill:#fff;}.ac098949-0877-43be-baab-aa04d834ec37,.e72b1dbc-33f7-452e-a364-922a1443f475{font-size:37.16px;stroke:#1d1d1b;stroke-miterlimit:10;stroke-width:0.39px;font-family:NewRocker-Regular, New Rocker;}.ac098949-0877-43be-baab-aa04d834ec37{letter-spacing:0em;}.e72b1dbc-33f7-452e-a364-922a1443f475{letter-spacing:0em;}</style><linearGradient id="fb930a9a-a74a-47e3-9964-67950aced5da" x1="299.76" y1="48.5" x2="335.61" y2="48.5" gradientUnits="userSpaceOnUse"><stop offset="0" stop-color="#edd6b9"/><stop offset="1" stop-color="#d4b492"/></linearGradient><linearGradient id="b616f35e-f70a-4467-b489-88bbc165298e" x1="13.58" y1="48.35" x2="49.43" y2="48.35" xlink:href="#fb930a9a-a74a-47e3-9964-67950aced5da"/><radialGradient id="a6084a44-bc2a-4419-aa36-17a46222157a" cx="175.5" cy="35.05" r="100" gradientUnits="userSpaceOnUse"><stop offset="0" stop-color="#f5812a"/><stop offset="1" stop-color="#bd5519"/></radialGradient></defs><path class="b2a5719b-405e-43a3-bd00-a7581e4314ef" d="M309.6,89.5a21.4,21.4,0,0,1-18.1-10.2H57.6a21.3,21.3,0,0,1-18,10.1H21.7A14.9,14.9,0,0,1,6.9,76.2L2.3,35.3A14.9,14.9,0,0,1,5.9,23.7,15.2,15.2,0,0,1,17,18.8H27.1a19.6,19.6,0,0,1,4.4-9.3A20.2,20.2,0,0,1,47.1,2.2l259.6.9a20.3,20.3,0,0,1,15.7,7.4,20.8,20.8,0,0,1,4.2,8.4h5.6a15,15,0,0,1,11.1,5,14.6,14.6,0,0,1,3.6,11.5l-4.6,40.9a14.9,14.9,0,0,1-14.8,13.2Z"/><path class="b432e376-fbbb-45db-acff-8472b0722150" d="M339,22a8.9,8.9,0,0,0-6.8-3.1H321.3A14.6,14.6,0,0,0,306.7,3.1L47.1,2.2A14.9,14.9,0,0,0,35.8,7.4a15.1,15.1,0,0,0-3.3,11.4H17a9.2,9.2,0,0,0-6.8,3,9.4,9.4,0,0,0-2.3,7.1l4.7,40.9a9,9,0,0,0,9.1,8.1H39.6a15.4,15.4,0,0,0,14.5-10H295a15.6,15.6,0,0,0,14.6,10.2h17.9a9.1,9.1,0,0,0,9.1-8.1l4.7-40.9A9.2,9.2,0,0,0,339,22Z"/><path class="bd86d974-8fb2-4add-97fa-b999aa154ab9" d="M327.5,72.4H309.6a9.8,9.8,0,0,1-9.8-9.9V24.6h32.4a3.5,3.5,0,0,1,3.4,3.8c-1.6,13.7-3.1,27.3-4.7,40.9A3.4,3.4,0,0,1,327.5,72.4Z"/><path class="a9948ab2-793a-4f06-ac17-c05a7c638bd0" d="M21.7,72.2H39.6a9.8,9.8,0,0,0,9.8-9.8V24.5H17a3.5,3.5,0,0,0-3.4,3.8c1.6,13.6,3.1,27.3,4.7,40.9A3.4,3.4,0,0,0,21.7,72.2Z"/><path class="bcd14ef0-d3cd-41fb-baa2-dab33f1800e7" d="M298.8,62.2H52.1a9,9,0,0,1-8.9-7.4L36.9,18.5A9,9,0,0,1,45.8,7.9l259.5.9a9,9,0,0,1,8.8,10.6c-2.1,11.8-4.3,23.6-6.4,35.4A9,9,0,0,1,298.8,62.2Z"/><g class="b3fffef3-2d81-48dd-be8b-f37b76578170"><path class="bef89e18-94d0-4010-a55d-60a87be1e354" d="M46.2,38.9,44.3,16.8a5.1,5.1,0,0,1,5-5.5l50.9-1.2L49.4,14a3.5,3.5,0,0,0-3.2,3.5Z"/></g><text class="ac098949-0877-43be-baab-aa04d834ec37" transform="translate(118.5 49.5) scale(0.98 0.99)">Phase 1</text><path class="b2a5719b-405e-43a3-bd00-a7581e4314ef" d="M309.6,89.5a21.4,21.4,0,0,1-18.1-10.2H57.6a21.3,21.3,0,0,1-18,10.1H21.7A14.9,14.9,0,0,1,6.9,76.2L2.3,35.3A14.9,14.9,0,0,1,5.9,23.7,15.2,15.2,0,0,1,17,18.8H27.1a19.6,19.6,0,0,1,4.4-9.3A20.2,20.2,0,0,1,47.1,2.2l259.6.9a20.3,20.3,0,0,1,15.7,7.4,20.8,20.8,0,0,1,4.2,8.4h5.6a15,15,0,0,1,11.1,5,14.6,14.6,0,0,1,3.6,11.5l-4.6,40.9a14.9,14.9,0,0,1-14.8,13.2Z"/><path class="b432e376-fbbb-45db-acff-8472b0722150" d="M339,22a8.9,8.9,0,0,0-6.8-3.1H321.3A14.6,14.6,0,0,0,306.7,3.1L47.1,2.2A14.9,14.9,0,0,0,35.8,7.4a15.1,15.1,0,0,0-3.3,11.4H17a9.2,9.2,0,0,0-6.8,3,9.4,9.4,0,0,0-2.3,7.1l4.7,40.9a9,9,0,0,0,9.1,8.1H39.6a15.4,15.4,0,0,0,14.5-10H295a15.6,15.6,0,0,0,14.6,10.2h17.9a9.1,9.1,0,0,0,9.1-8.1l4.7-40.9A9.2,9.2,0,0,0,339,22Z"/><path class="bd86d974-8fb2-4add-97fa-b999aa154ab9" d="M327.5,72.4H309.6a9.8,9.8,0,0,1-9.8-9.9V24.6h32.4a3.5,3.5,0,0,1,3.4,3.8c-1.6,13.7-3.1,27.3-4.7,40.9A3.4,3.4,0,0,1,327.5,72.4Z"/><path class="a9948ab2-793a-4f06-ac17-c05a7c638bd0" d="M21.7,72.2H39.6a9.8,9.8,0,0,0,9.8-9.8V24.5H17a3.5,3.5,0,0,0-3.4,3.8c1.6,13.6,3.1,27.3,4.7,40.9A3.4,3.4,0,0,0,21.7,72.2Z"/><path class="bcd14ef0-d3cd-41fb-baa2-dab33f1800e7" d="M298.8,62.2H52.1a9,9,0,0,1-8.9-7.4L36.9,18.5A9,9,0,0,1,45.8,7.9l259.5.9a9,9,0,0,1,8.8,10.6c-2.1,11.8-4.3,23.6-6.4,35.4A9,9,0,0,1,298.8,62.2Z"/><g class="b3fffef3-2d81-48dd-be8b-f37b76578170"><path class="bef89e18-94d0-4010-a55d-60a87be1e354" d="M46.2,38.9,44.3,16.8a5.1,5.1,0,0,1,5-5.5l50.9-1.2L49.4,14a3.5,3.5,0,0,0-3.2,3.5Z"/></g><text class="e72b1dbc-33f7-452e-a364-922a1443f475" transform="translate(118.5 49.5) scale(0.98 0.99)">Phase 6</text></svg>